dancing-script_regular.sfdir

StartChar: exclam
Encoding: 33 33 4
Width: 260
GlyphClass: 2
Flags: W
LayerCount: 2
Fore
SplineSet
-21 17 m 0,0,1
 -21 33 -21 33 -2 45.5 c 128,-1,2
 17 58 17 58 37 58 c 0,3,4
 63 58 63 58 63 34 c 0,5,6
 63 19 63 19 46.5 4.5 c 128,-1,7
 30 -10 30 -10 11 -10 c 0,8,9
 -21 -10 -21 -10 -21 17 c 0,0,1
40 103 m 1,10,11
 40 150 40 150 95 293 c 2,12,-1
 134 394 l 1,13,-1
 172 488 l 2,14,15
 196 547 196 547 212 580 c 1,16,-1
 249 650 l 2,17,18
 269 687 269 687 285 703.5 c 128,-1,19
 301 720 301 720 314 720 c 0,20,21
 322 720 322 720 328 713.5 c 128,-1,22
 334 707 334 707 334 697 c 0,23,24
 334 657 334 657 216.5 423.5 c 128,-1,25
 99 190 99 190 40 103 c 1,10,11
EndSplineSet
EndChar

StartChar: quotedbl
Encoding: 34 34 5
Width: 245
GlyphClass: 2
Flags: W
LayerCount: 2
Fore
SplineSet
131 613 m 0,0,1
 131 646 131 646 151 683 c 128,-1,2
 171 720 171 720 192 720 c 0,3,4
 202 720 202 720 209.5 711.5 c 128,-1,5
 217 703 217 703 217 692 c 1,6,7
 208 683 208 683 200 672.5 c 128,-1,8
 192 662 192 662 187 654 c 128,-1,9
 182 646 182 646 175.5 633.5 c 128,-1,10
 169 621 169 621 166 615 c 2,11,-1
 156 595 l 2,12,13
 149 581 149 581 148 576 c 1,14,15
 131 586 131 586 131 613 c 0,0,1
251 613 m 0,16,17
 251 646 251 646 271 683 c 128,-1,18
 291 720 291 720 312 720 c 0,19,20
 322 720 322 720 329.5 711.5 c 128,-1,21
 337 703 337 703 337 692 c 1,22,23
 328 683 328 683 320 672.5 c 128,-1,24
 312 662 312 662 307 654 c 128,-1,25
 302 646 302 646 295 634 c 1,26,-1
 286 615 l 1,27,-1
 277 595 l 2,28,29
 270 581 270 581 268 576 c 1,30,31
 251 586 251 586 251 613 c 0,16,17
EndSplineSet
EndChar

StartChar: numbersign
Encoding: 35 35 6
Width: 668
GlyphClass: 2
Flags: W
LayerCount: 2
Fore
SplineSet
9 155 m 1,0,1
 14 220 14 220 225 225 c 1,2,3
 234 271 234 271 239 289 c 1,4,5
 115 280 115 280 103 279 c 2,6,-1
 46 274 l 1,7,8
 51 338 51 338 251 343 c 1,9,-1
 289 531 l 2,10,11
 311 643 311 643 318 675 c 0,12,13
 321 687 321 687 323.5 693.5 c 128,-1,14
 326 700 326 700 336 708 c 128,-1,15
 346 716 346 716 363 720 c 1,16,17
 360 707 360 707 350 652 c 2,18,-1
 323 508 l 1,19,-1
 292 344 l 1,20,-1
 296 344 l 2,21,22
 340 344 340 344 420 340 c 1,23,-1
 488 675 l 2,24,25
 491 687 491 687 493.5 693.5 c 128,-1,26
 496 700 496 700 506 708 c 128,-1,27
 516 716 516 716 533 720 c 1,28,29
 530 707 530 707 520 650 c 2,30,-1
 492 504 l 1,31,-1
 460 338 l 1,32,33
 487 337 487 337 529.5 334 c 128,-1,34
 572 331 572 331 604 329 c 128,-1,35
 636 327 636 327 662 327 c 1,36,37
 625 295 625 295 561 295 c 0,38,39
 539 295 539 295 503 294.5 c 128,-1,40
 467 294 467 294 452 294 c 1,41,42
 438 223 438 223 437 218 c 1,43,44
 612 208 612 208 624 208 c 1,45,46
 587 176 587 176 524 176 c 0,47,48
 457 176 457 176 428 175 c 1,49,50
 413 99 413 99 402 53 c 128,-1,51
 391 7 391 7 377 -39 c 128,-1,52
 363 -85 363 -85 348.5 -109 c 128,-1,53
 334 -133 334 -133 315 -147.5 c 128,-1,54
 296 -162 296 -162 272 -162 c 1,55,56
 318 -106 318 -106 383 172 c 1,57,-1
 257 172 l 1,58,-1
 235 70 l 2,59,60
 227 33 227 33 215 -11.5 c 128,-1,61
 203 -56 203 -56 193 -79 c 128,-1,62
 183 -102 183 -102 169 -123.5 c 128,-1,63
 155 -145 155 -145 138.5 -153.5 c 128,-1,64
 122 -162 122 -162 102 -162 c 1,65,66
 148 -106 148 -106 212 170 c 1,67,68
 148 167 148 167 65 160 c 2,69,-1
 9 155 l 1,0,1
268 225 m 1,70,71
 314 225 314 225 394 221 c 1,72,-1
 410 293 l 1,73,74
 355 293 355 293 281 291 c 1,75,-1
 268 225 l 1,70,71
EndSplineSet
EndChar

StartChar: dollar
Encoding: 36 36 7
Width: 531
GlyphClass: 2
Flags: W
LayerCount: 2
Fore
SplineSet
1 95 m 0,0,1
 1 157 1 157 41.5 191.5 c 128,-1,2
 82 226 82 226 129 226 c 1,3,4
 74 166 74 166 74 93 c 0,5,6
 74 42 74 42 105 12 c 128,-1,7
 136 -18 136 -18 194 -24 c 1,8,9
 226 84 226 84 266 263 c 1,10,11
 232 283 232 283 215 294.5 c 128,-1,12
 198 306 198 306 174 327.5 c 128,-1,13
 150 349 150 349 139.5 375 c 128,-1,14
 129 401 129 401 129 433 c 0,15,16
 129 514 129 514 193 576 c 128,-1,17
 257 638 257 638 346 652 c 1,18,19
 346 654 346 654 349 666 c 128,-1,20
 352 678 352 678 354 683 c 128,-1,21
 356 688 356 688 361 697 c 128,-1,22
 366 706 366 706 374.5 711.5 c 128,-1,23
 383 717 383 717 396 720 c 1,24,25
 389 685 389 685 384 655 c 1,26,27
 447 655 447 655 472 628 c 128,-1,28
 497 601 497 601 497 551 c 0,29,30
 497 472 497 472 449 390 c 1,31,32
 432 394 432 394 423 405.5 c 128,-1,33
 414 417 414 417 414 432 c 128,-1,34
 414 447 414 447 432.5 503 c 128,-1,35
 451 559 451 559 451 582 c 0,36,37
 451 631 451 631 379 631 c 1,38,-1
 320 319 l 1,39,40
 353 301 353 301 372 288.5 c 128,-1,41
 391 276 391 276 415 254.5 c 128,-1,42
 439 233 439 233 450 205.5 c 128,-1,43
 461 178 461 178 461 143 c 0,44,45
 461 58 461 58 395 5 c 128,-1,46
 329 -48 329 -48 235 -56 c 1,47,48
 195 -162 195 -162 135 -162 c 1,49,50
 157 -134 157 -134 184 -56 c 1,51,52
 105 -51 105 -51 53 -12.5 c 128,-1,53
 1 26 1 26 1 95 c 0,0,1
192 458 m 0,54,55
 192 417 192 417 215.5 390.5 c 128,-1,56
 239 364 239 364 283 339 c 1,57,-1
 341 627 l 1,58,59
 276 613 276 613 234 563 c 128,-1,60
 192 513 192 513 192 458 c 0,54,55
245 -24 m 1,61,62
 313 -17 313 -17 352.5 20 c 128,-1,63
 392 57 392 57 392 113 c 0,64,65
 392 187 392 187 304 241 c 1,66,67
 260 21 260 21 245 -24 c 1,61,62
EndSplineSet
EndChar

StartChar: percent
Encoding: 37 37 8
Width: 698
GlyphClass: 2
Flags: W
LayerCount: 2
Fore
SplineSet
78 -87 m 1,0,1
 145 -20 145 -20 298.5 255 c 128,-1,2
 452 530 452 530 508 675 c 0,3,4
 513 690 513 690 541 705 c 128,-1,5
 569 720 569 720 592 720 c 1,6,7
 573 672 573 672 448 432.5 c 128,-1,8
 323 193 323 193 263 97 c 0,9,10
 206 6 206 6 162 -40.5 c 128,-1,11
 118 -87 118 -87 78 -87 c 1,0,1
98 455 m 0,12,13
 98 528 98 528 140.5 598.5 c 128,-1,14
 183 669 183 669 243 669 c 0,15,16
 281 669 281 669 304 640.5 c 128,-1,17
 327 612 327 612 327 565 c 0,18,19
 327 494 327 494 283.5 420.5 c 128,-1,20
 240 347 240 347 180 347 c 0,21,22
 140 347 140 347 119 378 c 128,-1,23
 98 409 98 409 98 455 c 0,12,13
153 447 m 0,24,25
 153 385 153 385 186 385 c 0,26,27
 220 385 220 385 247.5 448.5 c 128,-1,28
 275 512 275 512 275 573 c 0,29,30
 275 633 275 633 243 633 c 0,31,32
 203 633 203 633 178 569 c 128,-1,33
 153 505 153 505 153 447 c 0,24,25
421 108 m 0,34,35
 421 181 421 181 463.5 251.5 c 128,-1,36
 506 322 506 322 566 322 c 0,37,38
 604 322 604 322 627 293.5 c 128,-1,39
 650 265 650 265 650 218 c 0,40,41
 650 147 650 147 606.5 73.5 c 128,-1,42
 563 0 563 0 503 0 c 0,43,44
 463 0 463 0 442 31 c 128,-1,45
 421 62 421 62 421 108 c 0,34,35
476 101 m 0,46,47
 476 38 476 38 509 38 c 0,48,49
 543 38 543 38 570.5 101.5 c 128,-1,50
 598 165 598 165 598 226 c 0,51,52
 598 286 598 286 566 286 c 0,53,54
 526 286 526 286 501 222.5 c 128,-1,55
 476 159 476 159 476 101 c 0,46,47
EndSplineSet
EndChar

StartChar: ampersand
Encoding: 38 38 9
Width: 616
GlyphClass: 2
Flags: W
LayerCount: 2
Fore
SplineSet
-3 95 m 0,0,1
 -3 188 -3 188 73 266 c 128,-1,2
 149 344 149 344 256 354 c 1,3,4
 180 417 180 417 180 512 c 0,5,6
 180 594 180 594 239.5 656.5 c 128,-1,7
 299 719 299 719 387 719 c 0,8,9
 496 719 496 719 496 613 c 0,10,11
 496 558 496 558 470.5 509 c 128,-1,12
 445 460 445 460 420 460 c 0,13,14
 398 460 398 460 383 492 c 1,15,16
 465 564 465 564 465 629 c 0,17,18
 465 661 465 661 448 680 c 128,-1,19
 431 699 431 699 397 699 c 0,20,21
 330 699 330 699 291.5 639.5 c 128,-1,22
 253 580 253 580 253 495 c 0,23,24
 253 394 253 394 311 344 c 1,25,26
 215 328 215 328 152.5 252 c 128,-1,27
 90 176 90 176 90 92 c 0,28,29
 90 35 90 35 121.5 -9 c 128,-1,30
 153 -53 153 -53 218 -53 c 0,31,32
 322 -53 322 -53 409 44.5 c 128,-1,33
 496 142 496 142 510 264 c 1,34,35
 465 262 465 262 403 250 c 2,36,-1
 379 245 l 1,37,38
 382 315 382 315 483 315 c 0,39,40
 516 315 516 315 567.5 306.5 c 128,-1,41
 619 298 619 298 636 298 c 1,42,43
 621 266 621 266 594 266 c 1,44,45
 571 265 571 265 536 265 c 1,46,47
 522 126 522 126 420 19.5 c 128,-1,48
 318 -87 318 -87 192 -87 c 0,49,50
 104 -87 104 -87 50.5 -34.5 c 128,-1,51
 -3 18 -3 18 -3 95 c 0,0,1
EndSplineSet
EndChar

StartChar: quotesingle
Encoding: 39 39 10
Width: 125
GlyphClass: 2
Flags: W
LayerCount: 2
Fore
SplineSet
131 613 m 0,0,1
 131 646 131 646 151 683 c 128,-1,2
 171 720 171 720 192 720 c 0,3,4
 202 720 202 720 209.5 711.5 c 128,-1,5
 217 703 217 703 217 692 c 1,6,7
 208 683 208 683 200 672.5 c 128,-1,8
 192 662 192 662 187 654 c 128,-1,9
 182 646 182 646 175.5 633.5 c 128,-1,10
 169 621 169 621 166 615 c 2,11,-1
 156 595 l 2,12,13
 149 581 149 581 148 576 c 1,14,15
 131 586 131 586 131 613 c 0,0,1
EndSplineSet
EndChar

StartChar: parenleft
Encoding: 40 40 11
Width: 258
GlyphClass: 2
Flags: W
LayerCount: 2
Fore
SplineSet
57 189 m 0,0,1
 57 280 57 280 80.5 366 c 128,-1,2
 104 452 104 452 139.5 514.5 c 128,-1,3
 175 577 175 577 217 624.5 c 128,-1,4
 259 672 259 672 298 696 c 128,-1,5
 337 720 337 720 364 720 c 1,6,7
 239 631 239 631 177 478.5 c 128,-1,8
 115 326 115 326 115 162 c 0,9,10
 115 12 115 12 162 -66 c 1,11,12
 156 -80 156 -80 142 -87 c 1,13,14
 105 -65 105 -65 81 13 c 128,-1,15
 57 91 57 91 57 189 c 0,0,1
EndSplineSet
EndChar

StartChar: parenright
Encoding: 41 41 12
Width: 268
GlyphClass: 2
Flags: W
LayerCount: 2
Fore
SplineSet
-61 -63 m 1,0,1
 51 16 51 16 123.5 156 c 128,-1,2
 196 296 196 296 196 475 c 0,3,4
 196 622 196 622 125 720 c 1,5,6
 171 708 171 708 209 630.5 c 128,-1,7
 247 553 247 553 247 435 c 0,8,9
 247 329 247 329 212.5 227.5 c 128,-1,10
 178 126 178 126 130 60 c 128,-1,11
 82 -6 82 -6 35.5 -46.5 c 128,-1,12
 -11 -87 -11 -87 -39 -87 c 1,13,14
 -51 -84 -51 -84 -61 -63 c 1,0,1
EndSplineSet
EndChar

StartChar: asterisk
Encoding: 42 42 13
Width: 391
GlyphClass: 2
Flags: W
LayerCount: 2
Fore
SplineSet
116 572 m 1,0,1
 135 573 135 573 233 577 c 1,2,3
 185 656 185 656 185 692 c 0,4,5
 185 702 185 702 199 718 c 1,6,7
 242 626 242 626 267 588 c 1,8,9
 270 594 270 594 277 608 c 1,10,-1
 286 630 l 2,11,12
 289 637 289 637 295 648.5 c 128,-1,13
 301 660 301 660 304.5 665.5 c 128,-1,14
 308 671 308 671 313.5 680 c 128,-1,15
 319 689 319 689 324 694 c 2,16,-1
 335 705 l 2,17,18
 341 710 341 710 348 713 c 128,-1,19
 355 716 355 716 362 718 c 1,20,21
 355 699 355 699 329 647 c 128,-1,22
 303 595 303 595 295 577 c 1,23,24
 340 580 340 580 347 580 c 0,25,26
 407 580 407 580 433 551 c 1,27,-1
 303 539 l 1,28,29
 306 534 306 534 316.5 518.5 c 128,-1,30
 327 503 327 503 331.5 495 c 128,-1,31
 336 487 336 487 343 472 c 128,-1,32
 350 457 350 457 352.5 440.5 c 128,-1,33
 355 424 355 424 355 404 c 1,34,35
 338 424 338 424 266 532 c 1,36,37
 235 472 235 472 211 440 c 128,-1,38
 187 408 187 408 163 408 c 1,39,40
 175 425 175 425 185 442.5 c 128,-1,41
 195 460 195 460 200.5 471.5 c 128,-1,42
 206 483 206 483 215 504 c 128,-1,43
 224 525 224 525 231 539 c 1,44,-1
 205 539 l 2,45,46
 124 539 124 539 116 572 c 1,0,1
EndSplineSet
EndChar

StartChar: plus
Encoding: 43 43 14
Width: 408
GlyphClass: 2
Flags: W
LayerCount: 2
Fore
SplineSet
3 144 m 1,0,1
 19 190 19 190 162 193 c 1,2,-1
 162 243 l 2,3,4
 162 306 162 306 191 346 c 1,5,6
 199 277 199 277 200 193 c 1,7,8
 288 192 288 192 360 184 c 1,9,10
 320 155 320 155 257 155 c 2,11,-1
 200 155 l 1,12,13
 197 6 197 6 151 -11 c 1,14,15
 162 58 162 58 162 155 c 1,16,17
 70 155 70 155 3 144 c 1,0,1
EndSplineSet
EndChar

StartChar: hyphen
Encoding: 45 45 16
Width: 484
GlyphClass: 2
Flags: W
LayerCount: 2
Fore
SplineSet
36 144 m 1,0,1
 54 193 54 193 225 193 c 0,2,3
 306 193 306 193 393 184 c 1,4,5
 353 155 353 155 290 155 c 2,6,-1
 195 155 l 2,7,8
 105 155 105 155 36 144 c 1,0,1
EndSplineSet
EndChar

StartChar: period
Encoding: 46 46 17
Width: 214
GlyphClass: 2
Flags: W
LayerCount: 2
Fore
SplineSet
8 17 m 0,0,1
 8 33 8 33 27 45.5 c 128,-1,2
 46 58 46 58 66 58 c 0,3,4
 92 58 92 58 92 34 c 0,5,6
 92 19 92 19 75.5 4.5 c 128,-1,7
 59 -10 59 -10 40 -10 c 0,8,9
 8 -10 8 -10 8 17 c 0,0,1
EndSplineSet
EndChar

StartChar: slash
Encoding: 47 47 18
Width: 330
GlyphClass: 2
Flags: W
LayerCount: 2
Fore
SplineSet
-68 -162 m 1,0,1
 25 -69 25 -69 312 675 c 0,2,3
 317 690 317 690 345 705 c 128,-1,4
 373 720 373 720 396 720 c 1,5,6
 347 593 347 593 107 22 c 0,7,8
 70 -65 70 -65 23 -113.5 c 128,-1,9
 -24 -162 -24 -162 -68 -162 c 1,0,1
EndSplineSet
EndChar

StartChar: zero
Encoding: 48 48 19
Width: 630
GlyphClass: 2
Flags: W
LayerCount: 2
Fore
SplineSet
53 174 m 0,0,1
 53 291 53 291 97.5 415.5 c 128,-1,2
 142 540 142 540 228 630 c 128,-1,3
 314 720 314 720 415 720 c 0,4,5
 506 720 506 720 559.5 653 c 128,-1,6
 613 586 613 586 613 474 c 0,7,8
 613 338 613 338 565.5 209.5 c 128,-1,9
 518 81 518 81 431.5 -3 c 128,-1,10
 345 -87 345 -87 244 -87 c 0,11,12
 150 -87 150 -87 101.5 -12.5 c 128,-1,13
 53 62 53 62 53 174 c 0,0,1
137 153 m 0,14,15
 137 59 137 59 169.5 3 c 128,-1,16
 202 -53 202 -53 258 -53 c 0,17,18
 330 -53 330 -53 396 38.5 c 128,-1,19
 462 130 462 130 499.5 256.5 c 128,-1,20
 537 383 537 383 537 495 c 0,21,22
 537 586 537 586 508 639.5 c 128,-1,23
 479 693 479 693 416 693 c 0,24,25
 352 693 352 693 296.5 635 c 128,-1,26
 241 577 241 577 208 491 c 128,-1,27
 175 405 175 405 156 315 c 128,-1,28
 137 225 137 225 137 153 c 0,14,15
EndSplineSet
EndChar

StartChar: one
Encoding: 49 49 20
Width: 365
GlyphClass: 2
Flags: W
LayerCount: 2
Fore
SplineSet
-46 -46 m 1,0,1
 -26 -48 -26 -48 -14 -48 c 0,2,3
 30 -48 30 -48 94 -37 c 1,4,5
 130 47 130 47 183 312.5 c 128,-1,6
 236 578 236 578 238 584 c 1,7,8
 145 518 145 518 123 518 c 0,9,10
 110 518 110 518 104 524 c 128,-1,11
 98 530 98 530 98 547 c 1,12,13
 131 564 131 564 195 615 c 128,-1,14
 259 666 259 666 308 720 c 1,15,16
 317 712 317 712 317 689 c 0,17,18
 317 671 317 671 306.5 631.5 c 128,-1,19
 296 592 296 592 294 577 c 0,20,21
 233 163 233 163 142 -30 c 1,22,23
 163 -27 163 -27 182 -27 c 0,24,25
 224 -27 224 -27 248.5 -39 c 128,-1,26
 273 -51 273 -51 279 -83 c 1,27,28
 234 -78 234 -78 200 -78 c 0,29,30
 167 -78 167 -78 111.5 -82.5 c 128,-1,31
 56 -87 56 -87 30 -87 c 0,32,33
 10 -87 10 -87 -11.5 -76 c 128,-1,34
 -33 -65 -33 -65 -46 -46 c 1,0,1
EndSplineSet
EndChar

StartChar: two
Encoding: 50 50 21
Width: 559
GlyphClass: 2
Flags: W
LayerCount: 2
Fore
SplineSet
-19 0 m 0,0,1
 -19 48 -19 48 56 48 c 0,2,3
 91 48 91 48 161 34 c 1,4,5
 261 123 261 123 345 274.5 c 128,-1,6
 429 426 429 426 429 551 c 0,7,8
 429 623 429 623 400 658 c 128,-1,9
 371 693 371 693 323 693 c 0,10,11
 259 693 259 693 222.5 636 c 128,-1,12
 186 579 186 579 186 491 c 0,13,14
 186 456 186 456 198 423 c 1,15,-1
 193 423 l 1,16,17
 157 432 157 432 140 452 c 128,-1,18
 123 472 123 472 123 512 c 0,19,20
 123 595 123 595 184.5 657.5 c 128,-1,21
 246 720 246 720 339 720 c 0,22,23
 411 720 411 720 455 668 c 128,-1,24
 499 616 499 616 499 538 c 0,25,26
 499 445 499 445 452 341 c 0,27,28
 413 254 413 254 347 168 c 128,-1,29
 281 82 281 82 209 23 c 1,30,-1
 237 17 l 1,31,32
 371 -14 371 -14 424 -14 c 0,33,34
 458 -14 458 -14 500 11 c 1,35,36
 476 -87 476 -87 398 -87 c 0,37,38
 343 -87 343 -87 206 -29 c 0,39,40
 200 -27 200 -27 185.5 -20.5 c 128,-1,41
 171 -14 171 -14 163 -11 c 1,42,43
 96 -54 96 -54 49 -54 c 0,44,45
 19 -54 19 -54 0 -39 c 128,-1,46
 -19 -24 -19 -24 -19 0 c 0,0,1
12 -2 m 0,47,48
 12 -13 12 -13 23 -20 c 128,-1,49
 34 -27 34 -27 48 -27 c 0,50,51
 77 -27 77 -27 123 4 c 1,52,53
 72 22 72 22 47 22 c 0,54,55
 29 22 29 22 20.5 14.5 c 128,-1,56
 12 7 12 7 12 -2 c 0,47,48
EndSplineSet
EndChar

StartChar: three
Encoding: 51 51 22
Width: 510
GlyphClass: 2
Flags: W
LayerCount: 2
Fore
SplineSet
6 55 m 0,0,1
 6 97 6 97 28 130 c 128,-1,2
 50 163 50 163 87 163 c 0,3,4
 100 163 100 163 105 162 c 1,5,6
 91 150 91 150 82 123 c 128,-1,7
 73 96 73 96 73 69 c 0,8,9
 73 19 73 19 102.5 -18 c 128,-1,10
 132 -55 132 -55 179 -55 c 0,11,12
 241 -55 241 -55 291 8.5 c 128,-1,13
 341 72 341 72 341 168 c 0,14,15
 341 234 341 234 314.5 285 c 128,-1,16
 288 336 288 336 230 351 c 1,17,18
 301 383 301 383 346.5 456 c 128,-1,19
 392 529 392 529 392 596 c 0,20,21
 392 646 392 646 366 669.5 c 128,-1,22
 340 693 340 693 302 693 c 0,23,24
 257 693 257 693 222.5 663.5 c 128,-1,25
 188 634 188 634 188 585 c 0,26,27
 188 551 188 551 204 518 c 1,28,29
 199 507 199 507 186.5 498.5 c 128,-1,30
 174 490 174 490 164 490 c 0,31,32
 147 490 147 490 137 515 c 128,-1,33
 127 540 127 540 127 569 c 0,34,35
 127 638 127 638 184 679 c 128,-1,36
 241 720 241 720 314 720 c 0,37,38
 378 720 378 720 423 686.5 c 128,-1,39
 468 653 468 653 468 591 c 0,40,41
 468 522 468 522 416 451 c 128,-1,42
 364 380 364 380 293 361 c 1,43,44
 371 341 371 341 407 285.5 c 128,-1,45
 443 230 443 230 443 168 c 0,46,47
 443 70 443 70 363 -8.5 c 128,-1,48
 283 -87 283 -87 170 -87 c 0,49,50
 86 -87 86 -87 46 -43.5 c 128,-1,51
 6 0 6 0 6 55 c 0,0,1
EndSplineSet
EndChar

StartChar: four
Encoding: 52 52 23
Width: 478
GlyphClass: 2
Flags: W
LayerCount: 2
Fore
SplineSet
-8 221 m 1,0,1
 -8 248 -8 248 10 263 c 1,2,3
 48 308 48 308 139.5 394 c 128,-1,4
 231 480 231 480 311 564 c 128,-1,5
 391 648 391 648 432 720 c 1,6,7
 443 716 443 716 443 694 c 0,8,9
 443 671 443 671 424 639 c 1,10,11
 396 521 396 521 352 288 c 1,12,-1
 394 288 l 2,13,14
 432 288 432 288 454 294 c 1,15,16
 436 268 436 268 409.5 251.5 c 128,-1,17
 383 235 383 235 364 235 c 2,18,-1
 342 235 l 1,19,20
 334 195 334 195 331 175 c 0,21,22
 321 122 321 122 309 31.5 c 128,-1,23
 297 -59 297 -59 297 -87 c 1,24,25
 220 -80 220 -80 220 -40 c 1,26,27
 224 -3 224 -3 248 130 c 0,28,29
 249 138 249 138 270 236 c 1,30,31
 254 236 254 236 226 236.5 c 128,-1,32
 198 237 198 237 187 237 c 0,33,34
 69 237 69 237 -8 221 c 1,0,1
80 288 m 1,35,36
 116 293 116 293 181 293 c 0,37,38
 222 293 222 293 282 291 c 1,39,40
 322 468 322 468 345 545 c 1,41,42
 313 512 313 512 227.5 433.5 c 128,-1,43
 142 355 142 355 107 317 c 0,44,45
 101 311 101 311 92.5 301.5 c 128,-1,46
 84 292 84 292 80 288 c 1,35,36
EndSplineSet
EndChar

StartChar: five
Encoding: 53 53 24
Width: 483
GlyphClass: 2
Flags: W
LayerCount: 2
Fore
SplineSet
-3 54 m 0,0,1
 -3 97 -3 97 19 130 c 128,-1,2
 41 163 41 163 78 163 c 0,3,4
 91 163 91 163 96 162 c 1,5,6
 64 135 64 135 64 65 c 0,7,8
 64 14 64 14 89 -20.5 c 128,-1,9
 114 -55 114 -55 166 -55 c 0,10,11
 241 -55 241 -55 287.5 16 c 128,-1,12
 334 87 334 87 334 174 c 0,13,14
 334 242 334 242 301 286 c 128,-1,15
 268 330 268 330 200 330 c 0,16,17
 163 330 163 330 108 319 c 1,18,19
 114 360 114 360 135 440 c 1,20,-1
 182 607 l 1,21,-1
 212 713 l 1,22,23
 264 700 264 700 318 700 c 0,24,25
 377 700 377 700 473 720 c 1,26,27
 477 705 477 705 477 693 c 0,28,29
 477 653 477 653 441 635.5 c 128,-1,30
 405 618 405 618 354 618 c 0,31,32
 326 618 326 618 290 624.5 c 128,-1,33
 254 631 254 631 245 631 c 128,-1,34
 236 631 236 631 232 627.5 c 128,-1,35
 228 624 228 624 222 611 c 0,36,37
 210 583 210 583 192 521 c 128,-1,38
 174 459 174 459 160 404 c 128,-1,39
 146 349 146 349 146 348 c 1,40,41
 193 358 193 358 233 358 c 0,42,43
 330 358 330 358 380.5 306 c 128,-1,44
 431 254 431 254 431 169 c 0,45,46
 431 60 431 60 356 -13.5 c 128,-1,47
 281 -87 281 -87 166 -87 c 0,48,49
 78 -87 78 -87 37.5 -44 c 128,-1,50
 -3 -1 -3 -1 -3 54 c 0,0,1
EndSplineSet
EndChar

StartChar: six
Encoding: 54 54 25
Width: 561
GlyphClass: 2
Flags: W
LayerCount: 2
Fore
SplineSet
49 160 m 0,0,1
 49 217 49 217 61.5 280.5 c 128,-1,2
 74 344 74 344 97 406.5 c 128,-1,3
 120 469 120 469 154.5 525.5 c 128,-1,4
 189 582 189 582 230.5 625.5 c 128,-1,5
 272 669 272 669 325 694.5 c 128,-1,6
 378 720 378 720 434 720 c 0,7,8
 477 720 477 720 502.5 705.5 c 128,-1,9
 528 691 528 691 528 662 c 0,10,11
 528 628 528 628 482 614 c 1,12,13
 482 619 482 619 483 627 c 128,-1,14
 484 635 484 635 484 642 c 0,15,16
 484 697 484 697 429 697 c 0,17,18
 369 697 369 697 312.5 636 c 128,-1,19
 256 575 256 575 219.5 490.5 c 128,-1,20
 183 406 183 406 160 309 c 1,21,22
 230 374 230 374 329 374 c 0,23,24
 409 374 409 374 460.5 325 c 128,-1,25
 512 276 512 276 512 180 c 0,26,27
 512 66 512 66 439 -10.5 c 128,-1,28
 366 -87 366 -87 253 -87 c 0,29,30
 147 -87 147 -87 98 -19 c 128,-1,31
 49 49 49 49 49 160 c 0,0,1
138 140 m 0,32,33
 138 108 138 108 143 77.5 c 128,-1,34
 148 47 148 47 160 15.5 c 128,-1,35
 172 -16 172 -16 197.5 -35.5 c 128,-1,36
 223 -55 223 -55 258 -55 c 0,37,38
 331 -55 331 -55 378 20 c 128,-1,39
 425 95 425 95 425 186 c 0,40,41
 425 262 425 262 389.5 301 c 128,-1,42
 354 340 354 340 300 340 c 0,43,44
 215 340 215 340 176.5 283.5 c 128,-1,45
 138 227 138 227 138 140 c 0,32,33
EndSplineSet
EndChar

StartChar: seven
Encoding: 55 55 26
Width: 403
GlyphClass: 2
Flags: W
LayerCount: 2
Fore
SplineSet
59 289 m 1,0,1
 60 317 60 317 83.5 332.5 c 128,-1,2
 107 348 107 348 133.5 351 c 128,-1,3
 160 354 160 354 200 354 c 2,4,-1
 224 354 l 1,5,6
 255 413 255 413 316 515 c 2,7,-1
 389 635 l 1,8,9
 372 635 372 635 312 632 c 128,-1,10
 252 629 252 629 228 629 c 0,11,12
 126 629 126 629 126 676 c 0,13,14
 126 694 126 694 139 718 c 1,15,16
 148 717 148 717 176.5 711.5 c 128,-1,17
 205 706 205 706 219 704 c 128,-1,18
 233 702 233 702 261.5 700 c 128,-1,19
 290 698 290 698 322 698 c 0,20,21
 431 698 431 698 490 718 c 1,22,23
 459 668 459 668 436 643 c 1,24,25
 355 524 355 524 276 351 c 1,26,27
 368 346 368 346 375 346 c 0,28,29
 395 346 395 346 407 349 c 1,30,31
 372 298 372 298 328 298 c 0,32,33
 285 298 285 298 252 299 c 1,34,-1
 234 256 l 2,35,36
 220 223 220 223 214 206 c 2,37,-1
 196 157 l 2,38,39
 185 126 185 126 178.5 105 c 128,-1,40
 172 84 172 84 167.5 58 c 128,-1,41
 163 32 163 32 163 11 c 0,42,43
 163 -18 163 -18 175 -27 c 1,44,45
 161 -57 161 -57 137 -72 c 128,-1,46
 113 -87 113 -87 95 -87 c 0,47,48
 81 -87 81 -87 71 -75 c 128,-1,49
 61 -63 61 -63 61 -42 c 0,50,51
 61 29 61 29 195 299 c 1,52,53
 109 297 109 297 59 289 c 1,0,1
EndSplineSet
EndChar

StartChar: eight
Encoding: 56 56 27
Width: 527
GlyphClass: 2
Flags: W
LayerCount: 2
Fore
SplineSet
29 77 m 0,0,1
 29 101 29 101 34.5 122.5 c 128,-1,2
 40 144 40 144 55 166 c 2,3,-1
 80 201 l 2,4,5
 90 215 90 215 117 238 c 128,-1,6
 144 261 144 261 156 270 c 2,7,-1
 202 304 l 1,8,-1
 245 336 l 1,9,10
 191 395 191 395 162 444 c 128,-1,11
 133 493 133 493 133 554 c 0,12,13
 133 636 133 636 188.5 677.5 c 128,-1,14
 244 719 244 719 318 719 c 0,15,16
 387 719 387 719 428 681.5 c 128,-1,17
 469 644 469 644 469 575 c 0,18,19
 469 508 469 508 431.5 455.5 c 128,-1,20
 394 403 394 403 326 349 c 1,21,22
 368 303 368 303 388.5 278.5 c 128,-1,23
 409 254 409 254 430.5 209.5 c 128,-1,24
 452 165 452 165 452 122 c 0,25,26
 452 29 452 29 377 -29 c 128,-1,27
 302 -87 302 -87 204 -87 c 0,28,29
 113 -87 113 -87 71 -36.5 c 128,-1,30
 29 14 29 14 29 77 c 0,0,1
90 80 m 0,31,32
 90 23 90 23 127.5 -12.5 c 128,-1,33
 165 -48 165 -48 214 -48 c 0,34,35
 273 -48 273 -48 321.5 -0.5 c 128,-1,36
 370 47 370 47 370 118 c 0,37,38
 370 169 370 169 344.5 211.5 c 128,-1,39
 319 254 319 254 271 307 c 1,40,41
 225 274 225 274 202 255 c 128,-1,42
 179 236 179 236 148 205.5 c 128,-1,43
 117 175 117 175 103.5 144.5 c 128,-1,44
 90 114 90 114 90 80 c 0,31,32
211 567 m 0,45,46
 211 516 211 516 234 472 c 128,-1,47
 257 428 257 428 300 379 c 1,48,49
 411 472 411 472 411 576 c 0,50,51
 411 632 411 632 384.5 662 c 128,-1,52
 358 692 358 692 319 692 c 0,53,54
 278 692 278 692 244.5 661 c 128,-1,55
 211 630 211 630 211 567 c 0,45,46
EndSplineSet
EndChar

StartChar: nine
Encoding: 57 57 28
Width: 566
GlyphClass: 2
Flags: W
LayerCount: 2
Fore
SplineSet
86 462 m 0,0,1
 86 573 86 573 156 646.5 c 128,-1,2
 226 720 226 720 336 720 c 128,-1,3
 446 720 446 720 497.5 647.5 c 128,-1,4
 549 575 549 575 549 458 c 0,5,6
 549 372 549 372 523 277.5 c 128,-1,7
 497 183 497 183 451.5 101 c 128,-1,8
 406 19 406 19 335 -34 c 128,-1,9
 264 -87 264 -87 183 -87 c 0,10,11
 87 -87 87 -87 87 -27 c 0,12,13
 87 5 87 5 131 19 c 1,14,15
 131 14 131 14 130.5 7 c 128,-1,16
 130 0 130 0 130 -6 c 0,17,18
 130 -64 130 -64 187 -64 c 0,19,20
 233 -64 233 -64 275.5 -29.5 c 128,-1,21
 318 5 318 5 349.5 62.5 c 128,-1,22
 381 120 381 120 404.5 186.5 c 128,-1,23
 428 253 428 253 442 324 c 1,24,25
 377 259 377 259 276 259 c 0,26,27
 194 259 194 259 140 310.5 c 128,-1,28
 86 362 86 362 86 462 c 0,0,1
173 456 m 0,29,30
 173 375 173 375 210.5 334 c 128,-1,31
 248 293 248 293 304 293 c 0,32,33
 381 293 381 293 419 340 c 128,-1,34
 457 387 457 387 457 469 c 0,35,36
 457 510 457 510 451.5 545.5 c 128,-1,37
 446 581 446 581 433 615 c 128,-1,38
 420 649 420 649 394 668.5 c 128,-1,39
 368 688 368 688 332 688 c 0,40,41
 262 688 262 688 217.5 616.5 c 128,-1,42
 173 545 173 545 173 456 c 0,29,30
EndSplineSet
EndChar

StartChar: colon
Encoding: 58 58 29
Width: 216
GlyphClass: 2
Flags: W
LayerCount: 2
Fore
SplineSet
10 17 m 0,0,1
 10 33 10 33 29 45.5 c 128,-1,2
 48 58 48 58 68 58 c 0,3,4
 94 58 94 58 94 34 c 0,5,6
 94 19 94 19 77.5 4.5 c 128,-1,7
 61 -10 61 -10 42 -10 c 0,8,9
 10 -10 10 -10 10 17 c 0,0,1
70 267 m 0,10,11
 70 283 70 283 89 295.5 c 128,-1,12
 108 308 108 308 128 308 c 0,13,14
 154 308 154 308 154 284 c 0,15,16
 154 269 154 269 137.5 254.5 c 128,-1,17
 121 240 121 240 102 240 c 0,18,19
 70 240 70 240 70 267 c 0,10,11
EndSplineSet
EndChar

StartChar: semicolon
Encoding: 59 59 30
Width: 213
GlyphClass: 2
Flags: W
LayerCount: 2
Fore
SplineSet
1 -51 m 0,0,1
 1 -18 1 -18 21 19 c 128,-1,2
 41 56 41 56 62 56 c 0,3,4
 72 56 72 56 79.5 47.5 c 128,-1,5
 87 39 87 39 87 28 c 1,6,7
 78 19 78 19 70 8.5 c 128,-1,8
 62 -2 62 -2 57 -10 c 128,-1,9
 52 -18 52 -18 45 -31 c 2,10,-1
 36 -49 l 1,11,-1
 27 -69 l 2,12,13
 20 -83 20 -83 18 -88 c 1,14,15
 1 -78 1 -78 1 -51 c 0,0,1
70 267 m 0,16,17
 70 283 70 283 89 295.5 c 128,-1,18
 108 308 108 308 128 308 c 0,19,20
 154 308 154 308 154 284 c 0,21,22
 154 269 154 269 137.5 254.5 c 128,-1,23
 121 240 121 240 102 240 c 0,24,25
 70 240 70 240 70 267 c 0,16,17
EndSplineSet
EndChar

StartChar: less
Encoding: 60 60 31
Width: 310
GlyphClass: 2
Flags: W
LayerCount: 2
Fore
SplineSet
21 158 m 1,0,1
 70 179 70 179 124.5 225 c 128,-1,2
 179 271 179 271 211 316 c 1,3,4
 216 308 216 308 216 294 c 0,5,6
 216 235 216 235 47 147 c 1,7,8
 75 127 75 127 90 117 c 128,-1,9
 105 107 105 107 135 92 c 128,-1,10
 165 77 165 77 209 60 c 1,11,12
 195 44 195 44 180 44 c 0,13,14
 144 44 144 44 86.5 86 c 128,-1,15
 29 128 29 128 21 158 c 1,0,1
EndSplineSet
EndChar

StartChar: equal
Encoding: 61 61 32
Width: 503
GlyphClass: 2
Flags: W
LayerCount: 2
Fore
SplineSet
52 106 m 1,0,1
 70 155 70 155 241 155 c 0,2,3
 322 155 322 155 409 146 c 1,4,5
 369 117 369 117 306 117 c 2,6,-1
 205 117 l 2,7,8
 119 117 119 117 52 106 c 1,0,1
52 206 m 1,9,10
 70 255 70 255 241 255 c 0,11,12
 322 255 322 255 409 246 c 1,13,14
 369 217 369 217 306 217 c 2,15,-1
 205 217 l 2,16,17
 119 217 119 217 52 206 c 1,9,10
EndSplineSet
EndChar

StartChar: greater
Encoding: 62 62 33
Width: 324
GlyphClass: 2
Flags: W
LayerCount: 2
Fore
SplineSet
61 294 m 0,0,1
 61 308 61 308 66 316 c 1,2,3
 98 271 98 271 152.5 225 c 128,-1,4
 207 179 207 179 256 158 c 1,5,6
 248 128 248 128 190.5 86 c 128,-1,7
 133 44 133 44 97 44 c 0,8,9
 82 44 82 44 68 60 c 1,10,11
 112 77 112 77 142 92 c 128,-1,12
 172 107 172 107 187 117 c 128,-1,13
 202 127 202 127 230 147 c 1,14,15
 61 235 61 235 61 294 c 0,0,1
EndSplineSet
EndChar

StartChar: question
Encoding: 63 63 34
Width: 437
GlyphClass: 2
Flags: W
LayerCount: 2
Fore
SplineSet
108 500 m 0,0,1
 108 588 108 588 168 654 c 128,-1,2
 228 720 228 720 318 720 c 0,3,4
 381 720 381 720 417 685.5 c 128,-1,5
 453 651 453 651 453 587 c 0,6,7
 453 546 453 546 437 510 c 128,-1,8
 421 474 421 474 396 445 c 2,9,-1
 346 386 l 1,10,11
 320 357 320 357 295 318 c 128,-1,12
 270 279 270 279 258 237 c 0,13,14
 252 217 252 217 246.5 179.5 c 128,-1,15
 241 142 241 142 233 124 c 1,16,17
 214 134 214 134 208 142.5 c 128,-1,18
 202 151 202 151 202 171 c 0,19,20
 202 215 202 215 221.5 256.5 c 128,-1,21
 241 298 241 298 270 333 c 1,22,-1
 326 404 l 2,23,24
 354 439 354 439 373.5 484.5 c 128,-1,25
 393 530 393 530 393 579 c 0,26,27
 393 633 393 633 371 662.5 c 128,-1,28
 349 692 349 692 314 692 c 0,29,30
 259 692 259 692 211 628.5 c 128,-1,31
 163 565 163 565 163 480 c 0,32,33
 163 456 163 456 170 423 c 1,34,35
 134 429 134 429 121 448 c 128,-1,36
 108 467 108 467 108 500 c 0,0,1
160 16 m 0,37,38
 160 33 160 33 178.5 45.5 c 128,-1,39
 197 58 197 58 218 58 c 0,40,41
 244 58 244 58 244 36 c 0,42,43
 244 19 244 19 228 4.5 c 128,-1,44
 212 -10 212 -10 192 -10 c 0,45,46
 179 -10 179 -10 169.5 -3 c 128,-1,47
 160 4 160 4 160 16 c 0,37,38
EndSplineSet
EndChar

StartChar: at
Encoding: 64 64 35
Width: 583
GlyphClass: 2
Flags: W
LayerCount: 2
Fore
SplineSet
3 88 m 0,0,1
 3 208 3 208 94 301.5 c 128,-1,2
 185 395 185 395 322 395 c 0,3,4
 425 395 425 395 479 341.5 c 128,-1,5
 533 288 533 288 533 214 c 0,6,7
 533 138 533 138 480.5 73.5 c 128,-1,8
 428 9 428 9 359 9 c 0,9,10
 295 9 295 9 295 68 c 0,11,12
 295 74 295 74 297 88 c 1,13,14
 228 -5 228 -5 166 -5 c 0,15,16
 140 -5 140 -5 123.5 12 c 128,-1,17
 107 29 107 29 107 61 c 0,18,19
 107 136 107 136 180.5 221.5 c 128,-1,20
 254 307 254 307 329 307 c 0,21,22
 360 307 360 307 381 290.5 c 128,-1,23
 402 274 402 274 402 247 c 0,24,25
 402 213 402 213 362 213 c 1,26,27
 366 224 366 224 366 240 c 0,28,29
 366 285 366 285 328 285 c 0,30,31
 274 285 274 285 218 203.5 c 128,-1,32
 162 122 162 122 162 60 c 0,33,34
 162 28 162 28 184 28 c 0,35,36
 202 28 202 28 224.5 45 c 128,-1,37
 247 62 247 62 274 95.5 c 128,-1,38
 301 129 301 129 315 148 c 2,39,-1
 352 202 l 1,40,41
 362 201 362 201 373 195.5 c 128,-1,42
 384 190 384 190 384 182 c 0,43,44
 384 175 384 175 361 134 c 128,-1,45
 338 93 338 93 338 69 c 0,46,47
 338 36 338 36 372 36 c 0,48,49
 419 36 419 36 460 90 c 128,-1,50
 501 144 501 144 501 208 c 128,-1,51
 501 272 501 272 456 318.5 c 128,-1,52
 411 365 411 365 322 365 c 0,53,54
 200 365 200 365 119.5 278 c 128,-1,55
 39 191 39 191 39 84 c 0,56,57
 39 8 39 8 84 -44 c 128,-1,58
 129 -96 129 -96 222 -96 c 0,59,60
 339 -96 339 -96 436 -11 c 1,61,-1
 442 -19 l 1,62,63
 352 -121 352 -121 216 -121 c 0,64,65
 110 -121 110 -121 56.5 -60.5 c 128,-1,66
 3 0 3 0 3 88 c 0,0,1
EndSplineSet
EndChar

StartChar: A
Encoding: 65 65 36
Width: 592
GlyphClass: 2
Flags: W
LayerCount: 2
Fore
SplineSet
-17 -35 m 0,0,1
 -17 40 -17 40 135 278 c 1,2,3
 74 283 74 283 27 283 c 2,4,-1
 -8 283 l 1,5,6
 11 335 11 335 96 335 c 0,7,8
 122 335 122 335 168 328 c 1,9,10
 245 444 245 444 324.5 546.5 c 128,-1,11
 404 649 404 649 450 692 c 0,12,13
 479 720 479 720 498 720 c 0,14,15
 519 720 519 720 551 688 c 1,16,17
 518 662 518 662 456.5 439.5 c 128,-1,18
 395 217 395 217 395 94 c 0,19,20
 395 14 395 14 432 14 c 0,21,22
 487 14 487 14 563 162 c 1,23,-1
 573 152 l 1,24,25
 542 70 542 70 495.5 20 c 128,-1,26
 449 -30 449 -30 400 -30 c 0,27,28
 322 -30 322 -30 322 104 c 0,29,30
 322 168 322 168 339 253 c 1,31,32
 275 263 275 263 191 273 c 1,33,34
 93 93 93 93 17 -87 c 1,35,36
 -17 -68 -17 -68 -17 -35 c 0,0,1
217 319 m 1,37,-1
 290 302 l 2,38,39
 337 291 337 291 346 288 c 1,40,41
 388 485 388 485 466 657 c 1,42,43
 375 601 375 601 217 319 c 1,37,-1
EndSplineSet
EndChar

StartChar: B
Encoding: 66 66 37
Width: 608
GlyphClass: 2
Flags: W
LayerCount: 2
Fore
SplineSet
19 -7 m 0,0,1
 19 -4 19 -4 24 -4 c 0,2,3
 26 -4 26 -4 36 -6.5 c 128,-1,4
 46 -9 46 -9 67 -11.5 c 128,-1,5
 88 -14 88 -14 118 -14 c 0,6,7
 286 -14 286 -14 401 57.5 c 128,-1,8
 516 129 516 129 516 223 c 0,9,10
 516 349 516 349 264 349 c 0,11,12
 250 349 250 349 225 348.5 c 128,-1,13
 200 348 200 348 189 348 c 1,14,-1
 99 26 l 1,15,16
 74 26 74 26 57 40 c 128,-1,17
 40 54 40 54 40 74 c 0,18,19
 40 83 40 83 54 131 c 0,20,21
 70 185 70 185 98 269 c 128,-1,22
 126 353 126 353 176 484 c 128,-1,23
 226 615 226 615 266 692 c 1,24,25
 229 685 229 685 197.5 671.5 c 128,-1,26
 166 658 166 658 149 648 c 128,-1,27
 132 638 132 638 128 638 c 0,28,29
 120 638 120 638 108 648 c 128,-1,30
 96 658 96 658 96 665 c 1,31,32
 140 683 140 683 166 692.5 c 128,-1,33
 192 702 192 702 238 711 c 128,-1,34
 284 720 284 720 333 720 c 0,35,36
 373 720 373 720 408 714 c 128,-1,37
 443 708 443 708 481 693 c 128,-1,38
 519 678 519 678 541.5 644 c 128,-1,39
 564 610 564 610 564 561 c 0,40,41
 564 404 564 404 335 366 c 1,42,43
 563 352 563 352 563 205 c 0,44,45
 563 136 563 136 517 78 c 128,-1,46
 471 20 471 20 402 -14.5 c 128,-1,47
 333 -49 333 -49 261 -68 c 128,-1,48
 189 -87 189 -87 130 -87 c 0,49,50
 19 -87 19 -87 19 -7 c 0,0,1
195 371 m 1,51,52
 254 373 254 373 305.5 384 c 128,-1,53
 357 395 357 395 403.5 417 c 128,-1,54
 450 439 450 439 477 478 c 128,-1,55
 504 517 504 517 504 569 c 0,56,57
 504 699 504 699 335 699 c 0,58,59
 322 699 322 699 316 698 c 1,60,61
 257 583 257 583 195 371 c 1,51,52
EndSplineSet
EndChar

StartChar: C
Encoding: 67 67 38
Width: 534
GlyphClass: 2
Flags: W
LayerCount: 2
Fore
SplineSet
22 157 m 0,0,1
 22 253 22 253 60 355.5 c 128,-1,2
 98 458 98 458 156 537.5 c 128,-1,3
 214 617 214 617 289 668 c 128,-1,4
 364 719 364 719 433 719 c 0,5,6
 525 719 525 719 525 633 c 0,7,8
 525 571 525 571 486.5 495.5 c 128,-1,9
 448 420 448 420 409 420 c 0,10,11
 389 420 389 420 378 443 c 1,12,13
 415 485 415 485 450 545 c 128,-1,14
 485 605 485 605 485 644 c 0,15,16
 485 689 485 689 436 689 c 0,17,18
 367 689 367 689 287.5 599.5 c 128,-1,19
 208 510 208 510 155 380 c 128,-1,20
 102 250 102 250 102 140 c 0,21,22
 102 58 102 58 137 2.5 c 128,-1,23
 172 -53 172 -53 243 -53 c 0,24,25
 320 -53 320 -53 397 10 c 128,-1,26
 474 73 474 73 515 162 c 1,27,-1
 529 152 l 1,28,29
 475 46 475 46 394.5 -20.5 c 128,-1,30
 314 -87 314 -87 219 -87 c 0,31,32
 120 -87 120 -87 71 -16 c 128,-1,33
 22 55 22 55 22 157 c 0,0,1
EndSplineSet
EndChar

StartChar: D
Encoding: 68 68 39
Width: 653
GlyphClass: 2
Flags: W
LayerCount: 2
Fore
SplineSet
56 -42 m 1,0,1
 82 83 82 83 139.5 268.5 c 128,-1,2
 197 454 197 454 229 538 c 0,3,4
 265 632 265 632 307 632 c 0,5,6
 321 632 321 632 335 622 c 1,7,8
 275 483 275 483 213.5 288 c 128,-1,9
 152 93 152 93 119 -57 c 1,10,11
 143 -61 143 -61 162 -61 c 0,12,13
 265 -61 265 -61 360 16.5 c 128,-1,14
 455 94 455 94 512 214 c 128,-1,15
 569 334 569 334 569 457 c 0,16,17
 569 574 569 574 514 633.5 c 128,-1,18
 459 693 459 693 364 693 c 0,19,20
 266 693 266 693 200.5 637 c 128,-1,21
 135 581 135 581 135 498 c 0,22,23
 135 476 135 476 140 461 c 1,24,25
 80 461 80 461 80 517 c 0,26,27
 80 590 80 590 175 655 c 128,-1,28
 270 720 270 720 394 720 c 0,29,30
 521 720 521 720 582 645 c 128,-1,31
 643 570 643 570 643 446 c 0,32,33
 643 341 643 341 600.5 241.5 c 128,-1,34
 558 142 558 142 490.5 70.5 c 128,-1,35
 423 -1 423 -1 336.5 -44 c 128,-1,36
 250 -87 250 -87 163 -87 c 0,37,38
 88 -87 88 -87 56 -42 c 1,0,1
EndSplineSet
EndChar

StartChar: F
Encoding: 70 70 41
Width: 482
GlyphClass: 2
Flags: W
LayerCount: 2
Fore
SplineSet
66 539 m 0,0,1
 66 616 66 616 145.5 665.5 c 128,-1,2
 225 715 225 715 341 715 c 0,3,4
 377 715 377 715 443 707.5 c 128,-1,5
 509 700 509 700 540 700 c 0,6,7
 580 700 580 700 614 710 c 1,8,9
 579 670 579 670 554 655 c 128,-1,10
 529 640 529 640 501 640 c 0,11,12
 484 640 484 640 434 647 c 2,13,-1
 359 657 l 1,14,15
 331 589 331 589 263 374 c 1,16,17
 295 372 295 372 354 365.5 c 128,-1,18
 413 359 413 359 438 358 c 1,19,20
 422 335 422 335 392.5 330 c 128,-1,21
 363 325 363 325 248 323 c 1,22,-1
 204 174 l 2,23,24
 154 6 154 6 152 -87 c 1,25,26
 110 -84 110 -84 97 -65 c 128,-1,27
 84 -46 84 -46 84 -8 c 0,28,29
 84 7 84 7 86.5 24.5 c 128,-1,30
 89 42 89 42 96 67 c 2,31,-1
 108 109 l 2,32,33
 113 127 113 127 125 161 c 2,34,-1
 142 210 l 2,35,36
 147 225 147 225 163 267 c 2,37,-1
 182 319 l 1,38,39
 157 317 157 317 105 310 c 2,40,-1
 71 305 l 1,41,42
 75 371 75 371 202 375 c 1,43,44
 267 554 267 554 318 660 c 1,45,46
 292 662 292 662 279 662 c 0,47,48
 186 662 186 662 152.5 633.5 c 128,-1,49
 119 605 119 605 119 540 c 0,50,51
 119 499 119 499 132 461 c 1,52,53
 66 472 66 472 66 539 c 0,0,1
EndSplineSet
Substitution2: "'salt' Stylistic Alternatives in Latin lookup 1 subtable" F.salt
EndChar

StartChar: G
Encoding: 71 71 42
Width: 554
GlyphClass: 2
Flags: W
LayerCount: 2
Fore
SplineSet
22 161 m 0,0,1
 22 286 22 286 84.5 417.5 c 128,-1,2
 147 549 147 549 244 634 c 128,-1,3
 341 719 341 719 433 719 c 0,4,5
 486 719 486 719 511.5 687 c 128,-1,6
 537 655 537 655 537 606 c 0,7,8
 537 552 537 552 510.5 506 c 128,-1,9
 484 460 484 460 449 460 c 0,10,11
 429 460 429 460 418 483 c 1,12,13
 442 500 442 500 469 549 c 128,-1,14
 496 598 496 598 496 636 c 0,15,16
 496 689 496 689 437 689 c 2,17,18
 437 689 437 689 436 689 c 0,19,20
 367 689 367 689 287.5 599 c 128,-1,21
 208 509 208 509 155 379 c 128,-1,22
 102 249 102 249 102 141 c 0,23,24
 102 52 102 52 139.5 -0.5 c 128,-1,25
 177 -53 177 -53 236 -53 c 0,26,27
 310 -53 310 -53 369 45 c 128,-1,28
 428 143 428 143 436 250 c 1,29,30
 378 263 378 263 333 263 c 0,31,32
 325 263 325 263 305 262.5 c 128,-1,33
 285 262 285 262 272 262 c 1,34,35
 284 314 284 314 340 314 c 0,36,37
 373 314 373 314 438.5 291 c 128,-1,38
 504 268 504 268 509 267 c 1,39,-1
 502 235 l 1,40,41
 441 76 441 76 441 -9 c 0,42,43
 441 -24 441 -24 443 -50.5 c 128,-1,44
 445 -77 445 -77 445 -87 c 1,45,46
 391 -66 391 -66 391 -16 c 0,47,48
 391 7 391 7 398 31 c 1,49,50
 313 -87 313 -87 210 -87 c 2,51,52
 210 -87 210 -87 209 -87 c 0,53,54
 128 -87 128 -87 75 -20.5 c 128,-1,55
 22 46 22 46 22 161 c 0,0,1
EndSplineSet
EndChar

StartChar: H
Encoding: 72 72 43
Width: 617
GlyphClass: 2
Flags: W
LayerCount: 2
Fore
SplineSet
55 -87 m 1,0,1
 79 49 79 49 165 314 c 1,2,-1
 99 307 l 1,3,4
 100 351 100 351 182 368 c 1,5,-1
 267 619 l 2,6,7
 281 660 281 660 281 677 c 0,8,9
 281 692 281 692 267 692 c 0,10,11
 222 692 222 692 182.5 625.5 c 128,-1,12
 143 559 143 559 143 504 c 0,13,14
 143 485 143 485 148 470 c 1,15,16
 88 470 88 470 88 527 c 0,17,18
 88 592 88 592 158.5 656 c 128,-1,19
 229 720 229 720 288 720 c 0,20,21
 334 720 334 720 334 672 c 0,22,23
 334 655 334 655 326 629 c 2,24,-1
 248 375 l 1,25,26
 284 377 284 377 306 377 c 0,27,28
 384 377 384 377 476 368 c 1,29,30
 550 611 550 611 577 668 c 0,31,32
 601 720 601 720 632 720 c 1,33,34
 590 609 590 609 527 364 c 1,35,36
 537 364 537 364 562.5 362 c 128,-1,37
 588 360 588 360 602 360 c 1,38,39
 572 328 572 328 520 328 c 0,40,41
 519 328 519 328 518 328 c 0,42,43
 497 242 497 242 487 191 c 0,44,45
 454 36 454 36 454 -48 c 0,46,47
 454 -49 454 -49 454 -51 c 0,48,49
 454 -69 454 -69 456 -87 c 1,50,51
 418 -83 418 -83 402.5 -65.5 c 128,-1,52
 387 -48 387 -48 387 -9 c 0,53,54
 387 49 387 49 411 142 c 0,55,56
 427 208 427 208 464 327 c 1,57,58
 297 326 297 326 231 320 c 1,59,60
 145 49 145 49 124 -23 c 0,61,62
 114 -55 114 -55 94 -71 c 128,-1,63
 74 -87 74 -87 55 -87 c 1,0,1
EndSplineSet
EndChar

StartChar: I
Encoding: 73 73 44
Width: 459
GlyphClass: 2
Flags: W
LayerCount: 2
Fore
SplineSet
-38 -88 m 1,0,1
 -35 -62 -35 -62 -22 -45 c 128,-1,2
 -9 -28 -9 -28 15.5 -20.5 c 128,-1,3
 40 -13 40 -13 64 -10.5 c 128,-1,4
 88 -8 88 -8 125 -8 c 1,5,6
 167 83 167 83 231 355 c 128,-1,7
 295 627 295 627 307 661 c 1,8,9
 174 658 174 658 82 641 c 1,10,11
 96 718 96 718 284 718 c 0,12,13
 285 718 285 718 286 718 c 0,14,15
 407 718 407 718 548 697 c 1,16,17
 513 662 513 662 453 662 c 0,18,19
 452 662 452 662 451 662 c 0,20,21
 373 662 373 662 342 661 c 1,22,23
 268 263 268 263 243 162 c 0,24,25
 208 24 208 24 159 -9 c 1,26,27
 188 -11 188 -11 264.5 -19 c 128,-1,28
 341 -27 341 -27 376 -28 c 1,29,30
 333 -71 333 -71 263 -71 c 2,31,-1
 202 -71 l 2,32,33
 153 -71 153 -71 135.5 -72 c 128,-1,34
 118 -73 118 -73 81.5 -74.5 c 128,-1,35
 45 -76 45 -76 17.5 -79.5 c 128,-1,36
 -10 -83 -10 -83 -38 -88 c 1,0,1
EndSplineSet
EndChar

StartChar: J
Encoding: 74 74 45
Width: 411
GlyphClass: 2
Flags: W
LayerCount: 2
Fore
SplineSet
-31 44 m 0,0,1
 -31 107 -31 107 -9.5 159.5 c 128,-1,2
 12 212 12 212 45 212 c 0,3,4
 57 212 57 212 73 204 c 1,5,6
 37 112 37 112 37 44 c 0,7,8
 37 -51 37 -51 99 -51 c 2,9,10
 99 -51 99 -51 100 -51 c 0,11,12
 127 -51 127 -51 147 -28 c 128,-1,13
 167 -5 167 -5 189 54 c 0,14,15
 224 151 224 151 269.5 343 c 128,-1,16
 315 535 315 535 340 667 c 1,17,18
 217 666 217 666 138 647 c 1,19,20
 149 718 149 718 301 718 c 0,21,22
 399 718 399 718 510 697 c 1,23,24
 493 668 493 668 433 668 c 0,25,26
 419 668 419 668 395.5 667.5 c 128,-1,27
 372 667 372 667 362 667 c 1,28,29
 383 650 383 650 383 620 c 0,30,31
 383 571 383 571 338 374 c 128,-1,32
 293 177 293 177 241 61 c 0,33,34
 204 -23 204 -23 165 -54.5 c 128,-1,35
 126 -86 126 -86 77 -86 c 0,36,37
 -31 -86 -31 -86 -31 44 c 0,0,1
EndSplineSet
EndChar

StartChar: K
Encoding: 75 75 46
Width: 590
GlyphClass: 2
Flags: W
LayerCount: 2
Fore
SplineSet
30 -69 m 1,0,-1
 48 -27 l 2,1,2
 57 -5 57 -5 70 30 c 2,3,-1
 94 95 l 1,4,-1
 125 187 l 1,5,-1
 163 297 l 1,6,-1
 213 443 l 1,7,-1
 273 619 l 2,8,9
 286 655 286 655 286 668 c 0,10,11
 286 692 286 692 262 692 c 0,12,13
 217 692 217 692 177.5 625.5 c 128,-1,14
 138 559 138 559 138 504 c 0,15,16
 138 485 138 485 143 470 c 1,17,18
 83 470 83 470 83 527 c 0,19,20
 83 592 83 592 153.5 656 c 128,-1,21
 224 720 224 720 283 720 c 0,22,23
 329 720 329 720 329 672 c 0,24,25
 329 655 329 655 321 629 c 2,26,-1
 237 357 l 1,27,28
 244 366 244 366 254.5 376.5 c 128,-1,29
 265 387 265 387 273 394 c 2,30,-1
 298 413 l 1,31,-1
 323 433 l 2,32,33
 398 493 398 493 475.5 572 c 128,-1,34
 553 651 553 651 596 720 c 1,35,36
 605 708 605 708 605 676 c 0,37,38
 605 567 605 567 241 322 c 1,39,-1
 289 241 l 2,40,41
 302 219 302 219 334 172.5 c 128,-1,42
 366 126 366 126 391.5 97.5 c 128,-1,43
 417 69 417 69 458 28 c 128,-1,44
 499 -13 499 -13 549 -54 c 1,45,46
 532 -87 532 -87 496 -87 c 2,47,48
 496 -87 496 -87 495 -87 c 0,49,50
 446 -87 446 -87 358.5 41.5 c 128,-1,51
 271 170 271 170 216 291 c 1,52,-1
 119 -23 l 2,53,54
 114 -39 114 -39 104.5 -49.5 c 128,-1,55
 95 -60 95 -60 80.5 -63.5 c 128,-1,56
 66 -67 66 -67 56.5 -68 c 128,-1,57
 47 -69 47 -69 30 -69 c 1,0,-1
EndSplineSet
EndChar

StartChar: L
Encoding: 76 76 47
Width: 570
GlyphClass: 2
Flags: W
LayerCount: 2
Fore
SplineSet
-74 34 m 0,0,1
 -74 78 -74 78 -1 78 c 0,2,3
 43 78 43 78 122 57 c 1,4,5
 139 86 139 86 157 132 c 128,-1,6
 175 178 175 178 185.5 208.5 c 128,-1,7
 196 239 196 239 218 309 c 2,8,-1
 247 400 l 1,9,10
 201 415 201 415 174.5 444 c 128,-1,11
 148 473 148 473 148 507 c 0,12,13
 148 536 148 536 165.5 561 c 128,-1,14
 183 586 183 586 210 586 c 1,15,16
 197 568 197 568 197 524 c 0,17,18
 197 452 197 452 254 421 c 1,19,20
 276 488 276 488 296 536 c 128,-1,21
 316 584 316 584 342.5 629 c 128,-1,22
 369 674 369 674 401 697 c 128,-1,23
 433 720 433 720 469 720 c 0,24,25
 506 720 506 720 536 696 c 128,-1,26
 566 672 566 672 566 618 c 0,27,28
 566 582 566 582 551 543 c 128,-1,29
 536 504 536 504 508 468.5 c 128,-1,30
 480 433 480 433 432.5 410.5 c 128,-1,31
 385 388 385 388 326 388 c 2,32,-1
 310 388 l 1,33,34
 225 132 225 132 166 44 c 1,35,36
 175 41 175 41 211 30 c 2,37,-1
 260 15 l 2,38,39
 272 11 272 11 303 3 c 128,-1,40
 334 -5 334 -5 351 -8.5 c 128,-1,41
 368 -12 368 -12 390.5 -15 c 128,-1,42
 413 -18 413 -18 431 -18 c 0,43,44
 471 -18 471 -18 502 -2 c 1,45,46
 472 -87 472 -87 397 -87 c 0,47,48
 371 -87 371 -87 334.5 -76.5 c 128,-1,49
 298 -66 298 -66 276.5 -57 c 128,-1,50
 255 -48 255 -48 202 -23.5 c 128,-1,51
 149 1 149 1 137 6 c 1,52,53
 84 -53 84 -53 26 -53 c 0,54,55
 -19 -53 -19 -53 -46.5 -24 c 128,-1,56
 -74 5 -74 5 -74 34 c 0,0,1
-27 -5 m 128,-1,58
 -6 -24 -6 -24 22 -24 c 0,59,60
 64 -24 64 -24 99 22 c 1,61,62
 25 52 25 52 -15 52 c 0,63,64
 -48 52 -48 52 -48 33 c 128,-1,57
 -48 14 -48 14 -27 -5 c 128,-1,58
316 407 m 1,65,66
 398 408 398 408 455 491 c 128,-1,67
 512 574 512 574 512 645 c 0,68,69
 512 695 512 695 476 695 c 0,70,71
 454 695 454 695 433 674 c 128,-1,72
 412 653 412 653 391 606.5 c 128,-1,73
 370 560 370 560 355 519 c 128,-1,74
 340 478 340 478 316 407 c 1,65,66
EndSplineSet
EndChar

StartChar: M
Encoding: 77 77 48
Width: 763
GlyphClass: 2
Flags: W
LayerCount: 2
Fore
SplineSet
-17 -87 m 1,0,-1
 300 616 l 2,1,2
 310 638 310 638 310 657 c 0,3,4
 310 683 310 683 276 683 c 0,5,6
 217 683 217 683 184.5 626.5 c 128,-1,7
 152 570 152 570 152 501 c 0,8,9
 152 488 152 488 154 470 c 1,10,11
 128 470 128 470 114.5 496 c 128,-1,12
 101 522 101 522 101 552 c 0,13,14
 101 616 101 616 164.5 668 c 128,-1,15
 228 720 228 720 296 720 c 0,16,17
 348 720 348 720 372.5 672.5 c 128,-1,18
 397 625 397 625 397 496 c 0,19,20
 397 425 397 425 387 282.5 c 128,-1,21
 377 140 377 140 376 102 c 1,22,23
 400 194 400 194 465 325 c 128,-1,24
 530 456 530 456 578 535 c 128,-1,25
 626 614 626 614 661 666 c 0,26,27
 672 682 672 682 677.5 689 c 128,-1,28
 683 696 683 696 691.5 701.5 c 128,-1,29
 700 707 700 707 711 707 c 0,30,31
 725 707 725 707 743 700 c 1,32,33
 718 640 718 640 698 560 c 0,34,35
 664 428 664 428 635.5 256.5 c 128,-1,36
 607 85 607 85 607 -5 c 0,37,38
 607 -21 607 -21 608.5 -32.5 c 128,-1,39
 610 -44 610 -44 611 -49.5 c 128,-1,40
 612 -55 612 -55 616 -67 c 128,-1,41
 620 -79 620 -79 622 -87 c 1,42,43
 572 -87 572 -87 556 -63 c 128,-1,44
 540 -39 540 -39 540 25 c 0,45,46
 540 100 540 100 556 198 c 128,-1,47
 572 296 572 296 589 367 c 1,48,-1
 640 564 l 1,49,50
 576 482 576 482 494 301.5 c 128,-1,51
 412 121 412 121 372 3 c 1,52,53
 361 -1 361 -1 357 -1 c 0,54,55
 332 -1 332 -1 322.5 28.5 c 128,-1,56
 313 58 313 58 313 121 c 0,57,58
 313 176 313 176 321 335 c 128,-1,59
 329 494 329 494 329 546 c 0,60,61
 329 574 329 574 327 602 c 1,62,-1
 261 448 l 1,63,-1
 206 314 l 1,64,-1
 160 203 l 1,65,-1
 120 110 l 1,66,-1
 86 37 l 1,67,68
 68 1 68 1 56.5 -19.5 c 128,-1,69
 45 -40 45 -40 31.5 -57 c 128,-1,70
 18 -74 18 -74 6.5 -80.5 c 128,-1,71
 -5 -87 -5 -87 -17 -87 c 1,0,-1
EndSplineSet
Substitution2: "'salt' Stylistic Alternatives in Latin lookup 1 subtable" M.salt
EndChar

StartChar: N
Encoding: 78 78 49
Width: 640
GlyphClass: 2
Flags: W
LayerCount: 2
Fore
SplineSet
46 -87 m 1,0,1
 60 -33 60 -33 86 52 c 2,2,-1
 160 294 l 1,3,-1
 258 619 l 2,4,5
 265 644 265 644 265 660 c 0,6,7
 265 683 265 683 250 683 c 0,8,9
 205 683 205 683 169.5 621.5 c 128,-1,10
 134 560 134 560 134 505 c 0,11,12
 134 485 134 485 139 470 c 1,13,14
 79 470 79 470 79 527 c 0,15,16
 79 593 79 593 148.5 656.5 c 128,-1,17
 218 720 218 720 279 720 c 0,18,19
 298 720 298 720 313.5 709 c 128,-1,20
 329 698 329 698 340.5 673.5 c 128,-1,21
 352 649 352 649 360 625.5 c 128,-1,22
 368 602 368 602 375 559.5 c 128,-1,23
 382 517 382 517 385.5 488.5 c 128,-1,24
 389 460 389 460 395 408 c 0,25,26
 416 221 416 221 439 72 c 1,27,28
 457 194 457 194 519 410 c 128,-1,29
 581 626 581 626 600 671 c 0,30,31
 607 687 607 687 625 703.5 c 128,-1,32
 643 720 643 720 663 720 c 1,33,34
 605 566 605 566 535 294 c 128,-1,35
 465 22 465 22 464 -87 c 1,36,37
 432 -87 432 -87 413 -68.5 c 128,-1,38
 394 -50 394 -50 386 -6 c 0,39,40
 359 136 359 136 295 589 c 1,41,42
 161 108 161 108 126 17 c 1,43,44
 93 -74 93 -74 61 -85 c 0,45,46
 54 -87 54 -87 46 -87 c 1,0,1
EndSplineSet
EndChar

StartChar: P
Encoding: 80 80 51
Width: 527
GlyphClass: 2
Flags: W
LayerCount: 2
Fore
SplineSet
18 -37 m 0,0,1
 18 -22 18 -22 32 18 c 2,2,-1
 112 264 l 2,3,4
 141 350 141 350 185 466 c 128,-1,5
 229 582 229 582 278 693 c 1,6,7
 244 686 244 686 212 672.5 c 128,-1,8
 180 659 180 659 161.5 648.5 c 128,-1,9
 143 638 143 638 139 638 c 0,10,11
 132 638 132 638 120 648 c 128,-1,12
 108 658 108 658 108 665 c 1,13,14
 236 720 236 720 329 720 c 0,15,16
 391 720 391 720 448 699.5 c 128,-1,17
 505 679 505 679 545.5 633.5 c 128,-1,18
 586 588 586 588 586 527 c 0,19,20
 586 468 586 468 552 423 c 128,-1,21
 518 378 518 378 471.5 355 c 128,-1,22
 425 332 425 332 366.5 317.5 c 128,-1,23
 308 303 308 303 270.5 299.5 c 128,-1,24
 233 296 233 296 205 296 c 2,25,-1
 195 296 l 1,26,-1
 87 -87 l 1,27,28
 60 -87 60 -87 39 -72.5 c 128,-1,29
 18 -58 18 -58 18 -37 c 0,0,1
199 312 m 1,30,31
 257 315 257 315 311.5 330.5 c 128,-1,32
 366 346 366 346 413.5 373 c 128,-1,33
 461 400 461 400 490 444.5 c 128,-1,34
 519 489 519 489 519 544 c 0,35,36
 519 620 519 620 467 659 c 128,-1,37
 415 698 415 698 338 699 c 1,38,39
 277 578 277 578 199 312 c 1,30,31
EndSplineSet
EndChar

StartChar: Q
Encoding: 81 81 52
Width: 693
GlyphClass: 2
Flags: W
LayerCount: 2
Fore
SplineSet
88 443 m 128,-1,1
 141 563 141 563 233.5 641.5 c 128,-1,2
 326 720 326 720 431 720 c 0,3,4
 526 720 526 720 580 655 c 128,-1,5
 634 590 634 590 634 477 c 0,6,7
 634 350 634 350 569.5 210.5 c 128,-1,8
 505 71 505 71 408 -4 c 1,9,10
 491 -50 491 -50 556 -50 c 0,11,12
 574 -50 574 -50 614 -38 c 1,13,14
 590 -119 590 -119 516 -119 c 0,15,16
 487 -119 487 -119 456.5 -105.5 c 128,-1,17
 426 -92 426 -92 406.5 -77.5 c 128,-1,18
 387 -63 387 -63 356 -37 c 1,19,20
 304 -63 304 -63 256 -63 c 0,21,22
 224 -63 224 -63 200.5 -52.5 c 128,-1,23
 177 -42 177 -42 166 -26.5 c 128,-1,24
 155 -11 155 -11 150.5 2 c 128,-1,25
 146 15 146 15 146 25 c 0,26,27
 146 45 146 45 164.5 61 c 128,-1,28
 183 77 183 77 219 77 c 0,29,30
 245 77 245 77 274.5 66.5 c 128,-1,31
 304 56 304 56 323 45.5 c 128,-1,32
 342 35 342 35 378 13 c 1,33,34
 461 88 461 88 512.5 239 c 128,-1,35
 564 390 564 390 564 509 c 0,36,37
 564 595 564 595 531.5 644 c 128,-1,38
 499 693 499 693 432 693 c 0,39,40
 363 693 363 693 300 639.5 c 128,-1,41
 237 586 237 586 195 504.5 c 128,-1,42
 153 423 153 423 128.5 327 c 128,-1,43
 104 231 104 231 104 144 c 0,44,45
 104 97 104 97 112 60 c 1,46,47
 35 60 35 60 35 197 c 0,48,0
 35 323 35 323 88 443 c 128,-1,1
172 24 m 0,49,50
 172 4 172 4 191.5 -17 c 128,-1,51
 211 -38 211 -38 256 -38 c 0,52,53
 295 -38 295 -38 334 -17 c 1,54,55
 257 51 257 51 209 51 c 0,56,57
 172 51 172 51 172 24 c 0,49,50
EndSplineSet
EndChar

StartChar: R
Encoding: 82 82 53
Width: 577
GlyphClass: 2
Flags: W
LayerCount: 2
Fore
SplineSet
16 -37 m 0,0,1
 16 -22 16 -22 30 18 c 0,2,3
 156 407 156 407 283 695 c 1,4,5
 246 689 246 689 211.5 674.5 c 128,-1,6
 177 660 177 660 157.5 649 c 128,-1,7
 138 638 138 638 134 638 c 0,8,9
 127 638 127 638 115 648 c 128,-1,10
 103 658 103 658 103 665 c 1,11,12
 230 720 230 720 328 720 c 0,13,14
 390 720 390 720 445 702 c 128,-1,15
 500 684 500 684 540.5 640 c 128,-1,16
 581 596 581 596 581 533 c 0,17,18
 581 477 581 477 548 434.5 c 128,-1,19
 515 392 515 392 470.5 370.5 c 128,-1,20
 426 349 426 349 368.5 335.5 c 128,-1,21
 311 322 311 322 274 319 c 128,-1,22
 237 316 237 316 208 316 c 1,23,-1
 247 249 l 1,24,-1
 287 178 l 2,25,26
 300 156 300 156 327.5 114.5 c 128,-1,27
 355 73 355 73 378.5 45.5 c 128,-1,28
 402 18 402 18 438 -18 c 128,-1,29
 474 -54 474 -54 515 -88 c 1,30,31
 509 -101 509 -101 493.5 -111 c 128,-1,32
 478 -121 478 -121 464 -121 c 0,33,34
 429 -121 429 -121 372 -49 c 128,-1,35
 315 23 315 23 266.5 111 c 128,-1,36
 218 199 218 199 185 277 c 1,37,-1
 82 -87 l 1,38,39
 56 -87 56 -87 36 -72.5 c 128,-1,40
 16 -58 16 -58 16 -37 c 0,0,1
201 332 m 1,41,42
 280 337 280 337 347.5 359.5 c 128,-1,43
 415 382 415 382 464.5 432.5 c 128,-1,44
 514 483 514 483 514 554 c 0,45,46
 514 630 514 630 462.5 664.5 c 128,-1,47
 411 699 411 699 335 699 c 1,48,49
 275 580 275 580 201 332 c 1,41,42
EndSplineSet
EndChar

StartChar: S
Encoding: 83 83 54
Width: 536
GlyphClass: 2
Flags: W
LayerCount: 2
Fore
SplineSet
-6 92 m 0,0,1
 -6 163 -6 163 33 194.5 c 128,-1,2
 72 226 72 226 122 226 c 1,3,4
 67 166 67 166 67 92 c 0,5,6
 67 32 67 32 106.5 -8 c 128,-1,7
 146 -48 146 -48 220 -48 c 128,-1,8
 294 -48 294 -48 350 -9 c 128,-1,9
 406 30 406 30 406 98 c 0,10,11
 406 145 406 145 374.5 182.5 c 128,-1,12
 343 220 343 220 298 247 c 2,13,-1
 209 300 l 2,14,15
 165 327 165 327 133.5 365.5 c 128,-1,16
 102 404 102 404 102 453 c 0,17,18
 102 511 102 511 136 571.5 c 128,-1,19
 170 632 170 632 237.5 676 c 128,-1,20
 305 720 305 720 387 720 c 0,21,22
 492 720 492 720 492 620 c 0,23,24
 492 570 492 570 468 508 c 128,-1,25
 444 446 444 446 415 400 c 1,26,27
 382 407 382 407 382 443 c 0,28,29
 382 471 382 471 411.5 547.5 c 128,-1,30
 441 624 441 624 441 653 c 0,31,32
 441 696 441 696 385 696 c 0,33,34
 297 696 297 696 231 621 c 128,-1,35
 165 546 165 546 165 476 c 0,36,37
 165 435 165 435 196 402.5 c 128,-1,38
 227 370 227 370 271 346 c 1,39,-1
 358 295 l 2,40,41
 402 269 402 269 433 225.5 c 128,-1,42
 464 182 464 182 464 126 c 0,43,44
 464 29 464 29 384 -29 c 128,-1,45
 304 -87 304 -87 203 -87 c 0,46,47
 115 -87 115 -87 54.5 -40.5 c 128,-1,48
 -6 6 -6 6 -6 92 c 0,0,1
EndSplineSet
EndChar

StartChar: T
Encoding: 84 84 55
Width: 490
GlyphClass: 2
Flags: W
LayerCount: 2
Fore
SplineSet
69 632 m 1,0,1
 76 720 76 720 313 720 c 0,2,3
 388 720 388 720 490.5 709 c 128,-1,4
 593 698 593 698 635 698 c 1,5,6
 582 651 582 651 464 651 c 0,7,8
 453 651 453 651 429 651.5 c 128,-1,9
 405 652 405 652 393 652 c 1,10,11
 311 447 311 447 236 175 c 0,12,13
 233 164 233 164 225.5 137.5 c 128,-1,14
 218 111 218 111 215 101 c 2,15,-1
 208 70 l 2,16,17
 203 49 203 49 200 39 c 1,18,-1
 195 13 l 2,19,20
 191 -4 191 -4 189.5 -15 c 128,-1,21
 188 -26 188 -26 187 -39.5 c 128,-1,22
 186 -53 186 -53 186 -65 c 0,23,24
 186 -80 186 -80 187 -87 c 1,25,26
 108 -87 108 -87 108 -16 c 0,27,28
 108 23 108 23 145 130 c 0,29,30
 256 452 256 452 349 652 c 1,31,32
 170 649 170 649 69 632 c 1,0,1
EndSplineSet
EndChar

StartChar: V
Encoding: 86 86 57
Width: 632
GlyphClass: 2
Flags: W
LayerCount: 2
Fore
SplineSet
25 542 m 0,0,1
 25 606 25 606 81 663 c 128,-1,2
 137 720 137 720 208 720 c 0,3,4
 269 720 269 720 300 672.5 c 128,-1,5
 331 625 331 625 331 542 c 128,-1,6
 331 459 331 459 298.5 343.5 c 128,-1,7
 266 228 266 228 234 128 c 128,-1,8
 202 28 202 28 202 -17 c 0,9,10
 202 -56 202 -56 230 -56 c 0,11,12
 285 -56 285 -56 369.5 47 c 128,-1,13
 454 150 454 150 518 295 c 128,-1,14
 582 440 582 440 582 544 c 0,15,16
 582 631 582 631 527 648 c 1,17,18
 554 694 554 694 585 694 c 0,19,20
 609 694 609 694 627.5 665 c 128,-1,21
 646 636 646 636 646 583 c 0,22,23
 646 476 646 476 572.5 316 c 128,-1,24
 499 156 499 156 394 34.5 c 128,-1,25
 289 -87 289 -87 210 -87 c 0,26,27
 179 -87 179 -87 151.5 -69 c 128,-1,28
 124 -51 124 -51 124 -7 c 0,29,30
 124 31 124 31 155.5 130 c 128,-1,31
 187 229 187 229 218.5 347.5 c 128,-1,32
 250 466 250 466 250 552 c 0,33,34
 250 580 250 580 249.5 595.5 c 128,-1,35
 249 611 249 611 246 632.5 c 128,-1,36
 243 654 243 654 237 665 c 128,-1,37
 231 676 231 676 219 684 c 128,-1,38
 207 692 207 692 190 692 c 0,39,40
 140 692 140 692 113.5 638 c 128,-1,41
 87 584 87 584 87 524 c 0,42,43
 87 491 87 491 96 470 c 1,44,45
 59 470 59 470 42 490 c 128,-1,46
 25 510 25 510 25 542 c 0,0,1
EndSplineSet
EndChar

StartChar: W
Encoding: 87 87 58
Width: 906
GlyphClass: 2
Flags: W
LayerCount: 2
Fore
SplineSet
25 542 m 0,0,1
 25 606 25 606 81 663 c 128,-1,2
 137 720 137 720 208 720 c 0,3,4
 269 720 269 720 300 672.5 c 128,-1,5
 331 625 331 625 331 542 c 128,-1,6
 331 459 331 459 298.5 343.5 c 128,-1,7
 266 228 266 228 234 128.5 c 128,-1,8
 202 29 202 29 202 -17 c 0,9,10
 202 -56 202 -56 232 -56 c 0,11,12
 279 -56 279 -56 347.5 29 c 128,-1,13
 416 114 416 114 466.5 221 c 128,-1,14
 517 328 517 328 526 395 c 1,15,16
 556 395 556 395 571 379.5 c 128,-1,17
 586 364 586 364 586 346 c 0,18,19
 586 329 586 329 568 286 c 2,20,-1
 530 196 l 1,21,22
 509 149 509 149 492 89.5 c 128,-1,23
 475 30 475 30 475 -14 c 0,24,25
 475 -35 475 -35 480.5 -45.5 c 128,-1,26
 486 -56 486 -56 503 -56 c 0,27,28
 558 -56 558 -56 642.5 47 c 128,-1,29
 727 150 727 150 791 295 c 128,-1,30
 855 440 855 440 855 544 c 0,31,32
 855 631 855 631 800 648 c 1,33,34
 827 694 827 694 858 694 c 0,35,36
 882 694 882 694 900.5 665 c 128,-1,37
 919 636 919 636 919 583 c 0,38,39
 919 476 919 476 845.5 316 c 128,-1,40
 772 156 772 156 667 34.5 c 128,-1,41
 562 -87 562 -87 483 -87 c 0,42,43
 450 -87 450 -87 423.5 -67.5 c 128,-1,44
 397 -48 397 -48 397 -12 c 0,45,46
 397 15 397 15 417 78 c 1,47,48
 300 -87 300 -87 210 -87 c 0,49,50
 179 -87 179 -87 151.5 -69 c 128,-1,51
 124 -51 124 -51 124 -7 c 0,52,53
 124 31 124 31 155.5 130 c 128,-1,54
 187 229 187 229 218.5 347.5 c 128,-1,55
 250 466 250 466 250 552 c 0,56,57
 250 580 250 580 249.5 595.5 c 128,-1,58
 249 611 249 611 246 632.5 c 128,-1,59
 243 654 243 654 237 665 c 128,-1,60
 231 676 231 676 219 684 c 128,-1,61
 207 692 207 692 190 692 c 0,62,63
 140 692 140 692 113.5 638 c 128,-1,64
 87 584 87 584 87 524 c 0,65,66
 87 491 87 491 96 470 c 1,67,68
 59 470 59 470 42 490 c 128,-1,69
 25 510 25 510 25 542 c 0,0,1
EndSplineSet
EndChar

StartChar: X
Encoding: 88 88 59
Width: 662
GlyphClass: 2
Flags: W
LayerCount: 2
Fore
SplineSet
25 -112 m 1,0,1
 28 -82 28 -82 38 -65 c 128,-1,2
 48 -48 48 -48 74 -21 c 0,3,4
 187 101 187 101 301 246 c 1,5,6
 293 370 293 370 291 468 c 0,7,8
 289 601 289 601 280 646.5 c 128,-1,9
 271 692 271 692 232 692 c 0,10,11
 186 692 186 692 157 635.5 c 128,-1,12
 128 579 128 579 128 519 c 0,13,14
 128 489 128 489 136 470 c 1,15,16
 67 470 67 470 67 539 c 0,17,18
 67 603 67 603 125 661.5 c 128,-1,19
 183 720 183 720 255 720 c 0,20,21
 335 720 335 720 359 625 c 0,22,23
 373 569 373 569 374 398 c 0,24,25
 375 364 375 364 375 344 c 1,26,27
 533 563 533 563 597 722 c 1,28,29
 605 716 605 716 612.5 701.5 c 128,-1,30
 620 687 620 687 620 674 c 0,31,32
 620 601 620 601 376 289 c 1,33,34
 386 -50 386 -50 470 -50 c 0,35,36
 521 -50 521 -50 640 162 c 1,37,-1
 652 152 l 1,38,39
 590 25 590 25 544.5 -31 c 128,-1,40
 499 -87 499 -87 443 -87 c 0,41,42
 404 -87 404 -87 376.5 -61.5 c 128,-1,43
 349 -36 349 -36 334.5 11.5 c 128,-1,44
 320 59 320 59 314 100.5 c 128,-1,45
 308 142 308 142 304 198 c 1,46,47
 217 91 217 91 138 3 c 128,-1,48
 59 -85 59 -85 25 -112 c 1,0,1
EndSplineSet
EndChar

StartChar: Z
Encoding: 90 90 61
Width: 631
GlyphClass: 2
Flags: W
LayerCount: 2
Fore
SplineSet
-25 26 m 0,0,1
 -25 78 -25 78 52 78 c 0,2,3
 100 78 100 78 188 52 c 1,4,5
 276 145 276 145 383 321 c 1,6,7
 323 320 323 320 253 310 c 2,8,-1
 219 305 l 1,9,10
 223 375 223 375 368 375 c 0,11,12
 383 375 383 375 413 373 c 1,13,14
 495 519 495 519 530 610 c 1,15,16
 507 616 507 616 452 637.5 c 128,-1,17
 397 659 397 659 344 675.5 c 128,-1,18
 291 692 291 692 252 692 c 0,19,20
 139 692 139 692 139 548 c 0,21,22
 139 526 139 526 143 513 c 1,23,24
 89 523 89 523 89 585 c 0,25,26
 89 651 89 651 140 685.5 c 128,-1,27
 191 720 191 720 282 720 c 0,28,29
 356 720 356 720 468 688 c 128,-1,30
 580 656 580 656 628 656 c 0,31,32
 650 656 650 656 660 658 c 1,33,34
 633 635 633 635 610 623 c 1,35,36
 562 508 562 508 480 367 c 1,37,38
 570 358 570 358 586 358 c 1,39,40
 570 335 570 335 548 330 c 128,-1,41
 526 325 526 325 454 323 c 1,42,43
 342 140 342 140 236 38 c 1,44,45
 414 -18 414 -18 481 -18 c 0,46,47
 521 -18 521 -18 552 -2 c 1,48,49
 522 -87 522 -87 447 -87 c 0,50,51
 430 -87 430 -87 408.5 -82.5 c 128,-1,52
 387 -78 387 -78 371.5 -73.5 c 128,-1,53
 356 -69 356 -69 326 -57 c 128,-1,54
 296 -45 296 -45 284 -40 c 2,55,-1
 238 -18 l 2,56,57
 203 -1 203 -1 195 2 c 1,58,59
 123 -54 123 -54 67 -54 c 0,60,61
 26 -54 26 -54 0.5 -29 c 128,-1,62
 -25 -4 -25 -4 -25 26 c 0,0,1
1 28 m 0,63,64
 1 9 1 9 18.5 -9 c 128,-1,65
 36 -27 36 -27 62 -27 c 0,66,67
 99 -27 99 -27 154 20 c 1,68,69
 77 52 77 52 39 52 c 2,70,71
 39 52 39 52 38 52 c 0,72,73
 1 52 1 52 1 28 c 0,63,64
EndSplineSet
EndChar

StartChar: bracketleft
Encoding: 91 91 62
Width: 393
GlyphClass: 2
Flags: W
LayerCount: 2
Fore
SplineSet
29 -67 m 1,0,1
 34 -58 34 -58 40.5 -32 c 128,-1,2
 47 -6 47 -6 69 114 c 2,3,-1
 141 498 l 2,4,5
 162 612 162 612 197.5 657.5 c 128,-1,6
 233 703 233 703 271 703 c 0,7,8
 278 703 278 703 303 701.5 c 128,-1,9
 328 700 328 700 343 700 c 0,10,11
 408 700 408 700 443 720 c 1,12,13
 440 670 440 670 413.5 655 c 128,-1,14
 387 640 387 640 338 640 c 0,15,16
 322 640 322 640 304.5 642.5 c 128,-1,17
 287 645 287 645 265 650 c 2,18,-1
 231 657 l 1,19,20
 198 561 198 561 147 282.5 c 128,-1,21
 96 4 96 4 86 -32 c 1,22,23
 199 -31 199 -31 239.5 -28 c 128,-1,24
 280 -25 280 -25 326 -11 c 1,25,26
 319 -87 319 -87 196 -87 c 0,27,28
 112 -87 112 -87 29 -67 c 1,0,1
EndSplineSet
EndChar

StartChar: backslash
Encoding: 92 92 63
Width: 560
GlyphClass: 2
Flags: W
LayerCount: 2
Fore
SplineSet
164 720 m 1,0,1
 186 720 186 720 202.5 706 c 128,-1,2
 219 692 219 692 225 675 c 0,3,4
 254 600 254 600 296 393 c 1,5,-1
 375 19 l 1,6,7
 412 -148 412 -148 435 -162 c 1,8,9
 392 -154 392 -154 362.5 -112 c 128,-1,10
 333 -70 333 -70 308 22 c 0,11,12
 289 92 289 92 232 392 c 128,-1,13
 175 692 175 692 164 720 c 1,0,1
EndSplineSet
EndChar

StartChar: bracketright
Encoding: 93 93 64
Width: 410
GlyphClass: 2
Flags: W
LayerCount: 2
Fore
SplineSet
-14 -88 m 1,0,1
 -9 -18 -9 -18 91 -18 c 0,2,3
 103 -18 103 -18 215 -26 c 1,4,5
 248 69 248 69 304.5 359 c 128,-1,6
 361 649 361 649 367 674 c 1,7,-1
 304 674 l 2,8,9
 179 674 179 674 105 653 c 1,10,11
 105 693 105 693 136.5 706.5 c 128,-1,12
 168 720 168 720 234 720 c 0,13,14
 306 720 306 720 401 699 c 1,15,16
 398 684 398 684 379 565 c 2,17,-1
 339 319 l 2,18,19
 318 193 318 193 306 132 c 0,20,21
 300 102 300 102 296.5 86 c 128,-1,22
 293 70 293 70 282 35.5 c 128,-1,23
 271 1 271 1 258.5 -18.5 c 128,-1,24
 246 -38 246 -38 225 -54.5 c 128,-1,25
 204 -71 204 -71 178 -71 c 0,26,27
 38 -71 38 -71 -14 -88 c 1,0,1
EndSplineSet
EndChar

StartChar: underscore
Encoding: 95 95 66
Width: 845
GlyphClass: 2
Flags: W
LayerCount: 2
Fore
SplineSet
-20 -66 m 1,0,1
 -15 -19 -15 -19 75.5 -1.5 c 128,-1,2
 166 16 166 16 332 16 c 0,3,4
 440 16 440 16 548 7 c 128,-1,5
 656 -2 656 -2 716 -2 c 1,6,7
 651 -47 651 -47 553 -47 c 0,8,9
 489 -47 489 -47 404.5 -47.5 c 128,-1,10
 320 -48 320 -48 291 -48 c 128,-1,11
 262 -48 262 -48 213 -48.5 c 128,-1,12
 164 -49 164 -49 147.5 -50 c 128,-1,13
 131 -51 131 -51 98 -53.5 c 128,-1,14
 65 -56 65 -56 42 -58.5 c 128,-1,15
 19 -61 19 -61 -20 -66 c 1,0,1
EndSplineSet
EndChar

StartChar: grave
Encoding: 96 96 67
Width: 125
GlyphClass: 2
Flags: W
LayerCount: 2
Fore
SplineSet
0 526 m 1,0,1
 3 557 3 557 22 557 c 0,2,3
 49 557 49 557 87.5 507 c 128,-1,4
 126 457 126 457 126 436 c 0,5,6
 126 417 126 417 112 410 c 1,7,8
 74 462 74 462 0 526 c 1,0,1
EndSplineSet
EndChar

StartChar: b
Encoding: 98 98 69
Width: 394
GlyphClass: 2
Flags: W
LayerCount: 2
Fore
SplineSet
-10 53 m 0,0,1
 -10 148 -10 148 50.5 309 c 128,-1,2
 111 470 111 470 186 592 c 128,-1,3
 261 714 261 714 301 714 c 0,4,5
 316 714 316 714 324.5 694.5 c 128,-1,6
 333 675 333 675 333 651 c 0,7,8
 333 604 333 604 301.5 528.5 c 128,-1,9
 270 453 270 453 215.5 378.5 c 128,-1,10
 161 304 161 304 105 270 c 1,11,12
 92 246 92 246 74.5 180 c 128,-1,13
 57 114 57 114 57 59 c 0,14,15
 57 -35 57 -35 112 -35 c 0,16,17
 141 -35 141 -35 172 -11.5 c 128,-1,18
 203 12 203 12 222 49 c 1,19,20
 187 67 187 67 168 102.5 c 128,-1,21
 149 138 149 138 149 178 c 0,22,23
 149 225 149 225 173.5 254.5 c 128,-1,24
 198 284 198 284 233 284 c 0,25,26
 262 284 262 284 279 260 c 128,-1,27
 296 236 296 236 296 192 c 0,28,29
 296 126 296 126 261 56 c 1,30,31
 273 53 273 53 287 53 c 0,32,33
 312 53 312 53 333 62.5 c 128,-1,34
 354 72 354 72 369.5 91 c 128,-1,35
 385 110 385 110 394.5 124.5 c 128,-1,36
 404 139 404 139 415 162 c 1,37,-1
 427 149 l 1,38,39
 380 35 380 35 284 35 c 0,40,41
 267 35 267 35 252 38 c 1,42,43
 186 -73 186 -73 93 -73 c 0,44,45
 42 -73 42 -73 16 -39.5 c 128,-1,46
 -10 -6 -10 -6 -10 53 c 0,0,1
116 309 m 1,47,48
 180 360 180 360 239.5 470.5 c 128,-1,49
 299 581 299 581 299 625 c 0,50,51
 299 633 299 633 295 633 c 0,52,53
 284 633 284 633 250.5 585 c 128,-1,54
 217 537 217 537 177 458.5 c 128,-1,55
 137 380 137 380 116 309 c 1,47,48
184 173 m 0,56,57
 184 101 184 101 232 69 c 1,58,59
 255 118 255 118 255 170 c 0,60,61
 255 204 255 204 245.5 224.5 c 128,-1,62
 236 245 236 245 222 245 c 0,63,64
 207 245 207 245 195.5 224 c 128,-1,65
 184 203 184 203 184 173 c 0,56,57
EndSplineSet
EndChar

StartChar: c
Encoding: 99 99 70
Width: 323
GlyphClass: 2
Flags: W
LayerCount: 2
Fore
SplineSet
-5 72 m 0,0,1
 -5 171 -5 171 65.5 254.5 c 128,-1,2
 136 338 136 338 214 338 c 0,3,4
 252 338 252 338 268.5 316.5 c 128,-1,5
 285 295 285 295 285 264 c 0,6,7
 285 234 285 234 271.5 212.5 c 128,-1,8
 258 191 258 191 235 191 c 0,9,10
 218 191 218 191 206 206 c 1,11,12
 221 213 221 213 232 237.5 c 128,-1,13
 243 262 243 262 243 285 c 0,14,15
 243 310 243 310 221 310 c 0,16,17
 169 310 169 310 113 225 c 128,-1,18
 57 140 57 140 57 65 c 0,19,20
 57 -18 57 -18 130 -18 c 0,21,22
 191 -18 191 -18 250.5 32 c 128,-1,23
 310 82 310 82 342 163 c 1,24,-1
 355 153 l 1,25,26
 321 62 321 62 250.5 3 c 128,-1,27
 180 -56 180 -56 107 -56 c 0,28,29
 57 -56 57 -56 26 -23 c 128,-1,30
 -5 10 -5 10 -5 72 c 0,0,1
EndSplineSet
EndChar

StartChar: d
Encoding: 100 100 71
Width: 473
GlyphClass: 2
Flags: W
LayerCount: 2
Fore
SplineSet
-16 54 m 0,0,1
 -16 109 -16 109 24.5 181 c 128,-1,2
 65 253 65 253 129.5 306.5 c 128,-1,3
 194 360 194 360 253 360 c 0,4,5
 297 360 297 360 297 329 c 0,6,7
 297 325 297 325 295 315 c 1,8,9
 284 330 284 330 257 330 c 0,10,11
 207 330 207 330 158 279.5 c 128,-1,12
 109 229 109 229 81.5 168 c 128,-1,13
 54 107 54 107 54 66 c 0,14,15
 54 44 54 44 63.5 31 c 128,-1,16
 73 18 73 18 90 18 c 0,17,18
 133 18 133 18 196.5 95.5 c 128,-1,19
 260 173 260 173 306 293 c 2,20,-1
 345 394 l 1,21,-1
 383 488 l 2,22,23
 407 547 407 547 424 580 c 2,24,-1
 459 650 l 1,25,26
 479 687 479 687 495.5 703.5 c 128,-1,27
 512 720 512 720 525 720 c 0,28,29
 533 720 533 720 539 713.5 c 128,-1,30
 545 707 545 707 545 697 c 0,31,32
 545 677 545 677 509 599 c 1,33,-1
 430 435 l 2,34,35
 387 348 387 348 351 242.5 c 128,-1,36
 315 137 315 137 315 70 c 0,37,38
 315 47 315 47 316 37.5 c 128,-1,39
 317 28 317 28 322 21 c 128,-1,40
 327 14 327 14 338 14 c 0,41,42
 371 14 371 14 416.5 55.5 c 128,-1,43
 462 97 462 97 492 162 c 1,44,-1
 504 153 l 1,45,46
 475 77 475 77 418.5 25.5 c 128,-1,47
 362 -26 362 -26 310 -26 c 0,48,49
 276 -26 276 -26 260 -4 c 128,-1,50
 244 18 244 18 244 49 c 0,51,52
 244 83 244 83 263 156 c 1,53,54
 212 72 212 72 157.5 21 c 128,-1,55
 103 -30 103 -30 59 -30 c 0,56,57
 30 -30 30 -30 7 -8.5 c 128,-1,58
 -16 13 -16 13 -16 54 c 0,0,1
EndSplineSet
EndChar

StartChar: f
Encoding: 102 102 73
Width: 312
GlyphClass: 2
Flags: W
LayerCount: 2
Fore
SplineSet
-68 -192 m 0,0,1
 -68 -115 -68 -115 -24 37 c 128,-1,2
 20 189 20 189 83 341 c 128,-1,3
 146 493 146 493 223.5 606.5 c 128,-1,4
 301 720 301 720 360 720 c 0,5,6
 394 720 394 720 394 676 c 0,7,8
 394 595 394 595 311.5 484 c 128,-1,9
 229 373 229 373 127 302 c 1,10,11
 120 286 120 286 108 252 c 1,12,13
 129 247 129 247 133 220 c 0,14,15
 138 186 138 186 141 168 c 128,-1,16
 144 150 144 150 151 126.5 c 128,-1,17
 158 103 158 103 166 92 c 128,-1,18
 174 81 174 81 188 72.5 c 128,-1,19
 202 64 202 64 220 64 c 0,20,21
 253 64 253 64 276.5 87 c 128,-1,22
 300 110 300 110 331 162 c 1,23,-1
 346 152 l 1,24,25
 322 96 322 96 285 67 c 128,-1,26
 248 38 248 38 215 38 c 0,27,28
 177 38 177 38 141 71 c 1,29,30
 140 -56 140 -56 91.5 -168 c 128,-1,31
 43 -280 43 -280 -13 -280 c 0,32,33
 -34 -280 -34 -280 -51 -260.5 c 128,-1,34
 -68 -241 -68 -241 -68 -192 c 0,0,1
-6 -184 m 0,35,36
 -6 -232 -6 -232 13 -232 c 0,37,38
 41 -232 41 -232 78 -125.5 c 128,-1,39
 115 -19 115 -19 115 60 c 0,40,41
 115 110 115 110 81 177 c 1,42,43
 -6 -79 -6 -79 -6 -184 c 0,35,36
143 343 m 1,44,45
 233 426 233 426 294 515.5 c 128,-1,46
 355 605 355 605 355 639 c 0,47,48
 355 653 355 653 341 653 c 0,49,50
 304 653 304 653 251 566.5 c 128,-1,51
 198 480 198 480 143 343 c 1,44,45
EndSplineSet
EndChar

StartChar: g
Encoding: 103 103 74
Width: 389
GlyphClass: 2
Flags: W
LayerCount: 2
Fore
SplineSet
-20 -222 m 0,0,1
 -20 -202 -20 -202 -12.5 -184 c 128,-1,2
 -5 -166 -5 -166 13 -149 c 128,-1,3
 31 -132 31 -132 44.5 -120 c 128,-1,4
 58 -108 58 -108 88 -92 c 2,5,-1
 130 -69 l 2,6,7
 142 -62 142 -62 175 -46 c 1,8,9
 203 26 203 26 226 119 c 1,10,11
 137 -9 137 -9 63 -9 c 0,12,13
 28 -9 28 -9 8 17.5 c 128,-1,14
 -12 44 -12 44 -12 88 c 0,15,16
 -12 154 -12 154 32 215.5 c 128,-1,17
 76 277 76 277 137 312 c 128,-1,18
 198 347 198 347 253 347 c 0,19,20
 307 347 307 347 307 315 c 0,21,22
 307 299 307 299 295 295 c 1,23,24
 284 310 284 310 255 310 c 0,25,26
 181 310 181 310 117.5 231 c 128,-1,27
 54 152 54 152 54 83 c 0,28,29
 54 34 54 34 89 34 c 0,30,31
 116 34 116 34 156.5 71 c 128,-1,32
 197 108 197 108 237 166 c 1,33,-1
 249 219 l 2,34,35
 260 270 260 270 300 270 c 0,36,37
 309 270 309 270 321 267 c 1,38,39
 321 240 321 240 299 158.5 c 128,-1,40
 277 77 277 77 244 -7 c 1,41,42
 296 18 296 18 340.5 62.5 c 128,-1,43
 385 107 385 107 407 162 c 1,44,-1
 420 152 l 1,45,46
 399 91 399 91 344.5 41 c 128,-1,47
 290 -9 290 -9 233 -36 c 1,48,49
 132 -280 132 -280 38 -280 c 0,50,51
 14 -280 14 -280 -3 -265.5 c 128,-1,52
 -20 -251 -20 -251 -20 -222 c 0,0,1
11 -213 m 0,53,54
 11 -229 11 -229 17.5 -238.5 c 128,-1,55
 24 -248 24 -248 35 -248 c 0,56,57
 58 -248 58 -248 92.5 -204.5 c 128,-1,58
 127 -161 127 -161 164 -73 c 1,59,60
 91 -110 91 -110 51 -142 c 128,-1,61
 11 -174 11 -174 11 -213 c 0,53,54
EndSplineSet
EndChar

StartChar: h
Encoding: 104 104 75
Width: 476
GlyphClass: 2
Flags: W
LayerCount: 2
Fore
SplineSet
6 66 m 0,0,1
 6 158 6 158 62 315 c 128,-1,2
 118 472 118 472 190.5 593 c 128,-1,3
 263 714 263 714 305 714 c 0,4,5
 321 714 321 714 329.5 694.5 c 128,-1,6
 338 675 338 675 338 651 c 0,7,8
 338 604 338 604 306 528 c 128,-1,9
 274 452 274 452 219 378 c 128,-1,10
 164 304 164 304 108 270 c 1,11,12
 71 183 71 183 71 73 c 0,13,14
 71 57 71 57 73 39 c 1,15,16
 162 298 162 298 276 298 c 0,17,18
 314 298 314 298 333 271.5 c 128,-1,19
 352 245 352 245 352 208 c 0,20,21
 352 175 352 175 330.5 119 c 128,-1,22
 309 63 309 63 309 40 c 0,23,24
 309 2 309 2 339 2 c 0,25,26
 373 2 373 2 419 49.5 c 128,-1,27
 465 97 465 97 495 162 c 1,28,-1
 508 150 l 1,29,30
 475 74 475 74 423.5 25 c 128,-1,31
 372 -24 372 -24 316 -24 c 0,32,33
 283 -24 283 -24 265 -6.5 c 128,-1,34
 247 11 247 11 247 39 c 0,35,36
 247 59 247 59 262.5 112 c 128,-1,37
 278 165 278 165 278 190 c 0,38,39
 278 238 278 238 240 238 c 0,40,41
 207 238 207 238 176.5 195 c 128,-1,42
 146 152 146 152 127.5 100 c 128,-1,43
 109 48 109 48 87.5 5 c 128,-1,44
 66 -38 66 -38 47 -38 c 0,45,46
 29 -38 29 -38 17.5 -7 c 128,-1,47
 6 24 6 24 6 66 c 0,0,1
121 309 m 1,48,49
 185 360 185 360 244.5 470.5 c 128,-1,50
 304 581 304 581 304 625 c 0,51,52
 304 633 304 633 300 633 c 0,53,54
 289 633 289 633 256.5 587.5 c 128,-1,55
 224 542 224 542 184 463 c 128,-1,56
 144 384 144 384 121 309 c 1,48,49
EndSplineSet
EndChar

StartChar: i
Encoding: 105 105 76
Width: 241
GlyphClass: 2
Flags: W
LayerCount: 2
Fore
SplineSet
-5 58 m 0,0,1
 -5 97 -5 97 16 163 c 128,-1,2
 37 229 37 229 72 284 c 128,-1,3
 107 339 107 339 139 339 c 0,4,5
 161 339 161 339 161 317 c 0,6,7
 161 305 161 305 135 262 c 128,-1,8
 109 219 109 219 83 164.5 c 128,-1,9
 57 110 57 110 57 69 c 0,10,11
 57 34 57 34 68.5 21.5 c 128,-1,12
 80 9 80 9 106 9 c 0,13,14
 184 9 184 9 260 162 c 1,15,-1
 269 152 l 1,16,17
 241 68 241 68 186.5 21 c 128,-1,18
 132 -26 132 -26 72 -26 c 0,19,20
 35 -26 35 -26 15 -2.5 c 128,-1,21
 -5 21 -5 21 -5 58 c 0,0,1
151 465 m 0,22,23
 151 485 151 485 175 501 c 128,-1,24
 199 517 199 517 224 517 c 0,25,26
 257 517 257 517 257 487 c 0,27,28
 257 467 257 467 236.5 449.5 c 128,-1,29
 216 432 216 432 192 432 c 0,30,31
 151 432 151 432 151 465 c 0,22,23
EndSplineSet
EndChar

StartChar: j
Encoding: 106 106 77
Width: 218
GlyphClass: 2
Flags: W
LayerCount: 2
Fore
SplineSet
-192 -229 m 0,0,1
 -192 -192 -192 -192 -156.5 -148 c 128,-1,2
 -121 -104 -121 -104 -66 -73 c 1,3,-1
 -2 -41 l 1,4,5
 41 66 41 66 65 205 c 1,6,-1
 37 157 l 1,7,-1
 18 126 l 1,8,-1
 9 141 l 1,9,10
 25 171 25 171 46.5 227.5 c 128,-1,11
 68 284 68 284 84.5 315.5 c 128,-1,12
 101 347 101 347 119 347 c 0,13,14
 143 347 143 347 143 317 c 0,15,16
 143 290 143 290 119.5 190 c 128,-1,17
 96 90 96 90 63 -8 c 1,18,19
 67 -6 67 -6 87 5.5 c 128,-1,20
 107 17 107 17 114 21 c 2,21,-1
 137 37 l 2,22,23
 154 48 154 48 163 59 c 1,24,-1
 187 84 l 2,25,26
 201 99 201 99 213 117 c 128,-1,27
 225 135 225 135 237 157 c 1,28,-1
 250 150 l 1,29,30
 236 116 236 116 218 89.5 c 128,-1,31
 200 63 200 63 175 42.5 c 128,-1,32
 150 22 150 22 136 12 c 128,-1,33
 122 2 122 2 90.5 -15.5 c 128,-1,34
 59 -33 59 -33 53 -36 c 1,35,36
 -36 -280 -36 -280 -140 -280 c 0,37,38
 -165 -280 -165 -280 -178.5 -266 c 128,-1,39
 -192 -252 -192 -252 -192 -229 c 0,0,1
-166 -222 m 0,40,41
 -166 -246 -166 -246 -149 -246 c 0,42,43
 -127 -246 -127 -246 -89 -200 c 128,-1,44
 -51 -154 -51 -154 -15 -73 c 1,45,46
 -88 -109 -88 -109 -127 -149 c 128,-1,47
 -166 -189 -166 -189 -166 -222 c 0,40,41
95 469 m 0,48,49
 95 490 95 490 118.5 506 c 128,-1,50
 142 522 142 522 168 522 c 0,51,52
 201 522 201 522 201 494 c 0,53,54
 201 472 201 472 180.5 454.5 c 128,-1,55
 160 437 160 437 135 437 c 0,56,57
 118 437 118 437 106.5 445.5 c 128,-1,58
 95 454 95 454 95 469 c 0,48,49
EndSplineSet
EndChar

StartChar: k
Encoding: 107 107 78
Width: 446
GlyphClass: 2
Flags: W
LayerCount: 2
Fore
SplineSet
4 63 m 0,0,1
 4 161 4 161 65 320 c 128,-1,2
 126 479 126 479 199 596.5 c 128,-1,3
 272 714 272 714 307 714 c 0,4,5
 320 714 320 714 329 695 c 128,-1,6
 338 676 338 676 338 649 c 0,7,8
 338 577 338 577 279 485 c 128,-1,9
 220 393 220 393 134 341 c 1,10,11
 68 179 68 179 68 55 c 1,12,13
 179 335 179 335 292 335 c 0,14,15
 329 335 329 335 355 309 c 128,-1,16
 381 283 381 283 381 246 c 0,17,18
 381 207 381 207 352.5 178.5 c 128,-1,19
 324 150 324 150 293.5 139.5 c 128,-1,20
 263 129 263 129 239 129 c 1,21,22
 242 110 242 110 248.5 84.5 c 128,-1,23
 255 59 255 59 274 29.5 c 128,-1,24
 293 0 293 0 317 0 c 0,25,26
 392 0 392 0 465 163 c 1,27,-1
 475 153 l 1,28,29
 453 77 453 77 400.5 19.5 c 128,-1,30
 348 -38 348 -38 297 -38 c 0,31,32
 262 -38 262 -38 237.5 -4.5 c 128,-1,33
 213 29 213 29 204 67.5 c 128,-1,34
 195 106 195 106 195 142 c 1,35,36
 214 142 214 142 242 151 c 128,-1,37
 270 160 270 160 296.5 183.5 c 128,-1,38
 323 207 323 207 323 238 c 0,39,40
 323 258 323 258 308 270.5 c 128,-1,41
 293 283 293 283 273 283 c 0,42,43
 232 283 232 283 193.5 238.5 c 128,-1,44
 155 194 155 194 133.5 144 c 128,-1,45
 112 94 112 94 93 41 c 128,-1,46
 74 -12 74 -12 73 -13 c 0,47,48
 62 -31 62 -31 40 -31 c 2,49,50
 40 -31 40 -31 39 -31 c 0,51,52
 27 -31 27 -31 19.5 -23.5 c 128,-1,53
 12 -16 12 -16 9 -0.5 c 128,-1,54
 6 15 6 15 5 28 c 128,-1,55
 4 41 4 41 4 63 c 0,0,1
151 381 m 1,56,57
 216 433 216 433 260 507.5 c 128,-1,58
 304 582 304 582 304 624 c 0,59,60
 304 633 304 633 301 633 c 0,61,62
 286 633 286 633 240 556.5 c 128,-1,63
 194 480 194 480 151 381 c 1,56,57
EndSplineSet
EndChar

StartChar: l
Encoding: 108 108 79
Width: 236
GlyphClass: 2
Flags: W
LayerCount: 2
Fore
SplineSet
3 73 m 0,0,1
 3 141 3 141 42 254.5 c 128,-1,2
 81 368 81 368 132.5 469.5 c 128,-1,3
 184 571 184 571 236.5 645.5 c 128,-1,4
 289 720 289 720 314 720 c 0,5,6
 328 720 328 720 337.5 695 c 128,-1,7
 347 670 347 670 347 646 c 0,8,9
 347 571 347 571 265 417.5 c 128,-1,10
 183 264 183 264 81 180 c 1,11,12
 68 122 68 122 68 79 c 0,13,14
 68 2 68 2 112 2 c 0,15,16
 149 2 149 2 187.5 49 c 128,-1,17
 226 96 226 96 256 162 c 1,18,-1
 271 154 l 1,19,20
 185 -30 185 -30 84 -30 c 2,21,22
 84 -30 84 -30 83 -30 c 0,23,24
 3 -30 3 -30 3 73 c 0,0,1
90 214 m 1,25,26
 172 297 172 297 244 432.5 c 128,-1,27
 316 568 316 568 316 623 c 0,28,29
 316 639 316 639 309 639 c 0,30,31
 295 639 295 639 253.5 574.5 c 128,-1,32
 212 510 212 510 164 407 c 128,-1,33
 116 304 116 304 90 214 c 1,25,26
EndSplineSet
EndChar

StartChar: m
Encoding: 109 109 80
Width: 646
GlyphClass: 2
Flags: W
LayerCount: 2
Fore
SplineSet
-35 -6 m 0,0,1
 -35 -2 -35 -2 -18 47 c 128,-1,2
 -1 96 -1 96 16.5 159 c 128,-1,3
 34 222 34 222 34 261 c 1,4,5
 53 282 53 282 80 282 c 128,-1,6
 107 282 107 282 107 256 c 0,7,8
 107 229 107 229 81 142 c 1,9,10
 130 220 130 220 186.5 276 c 128,-1,11
 243 332 243 332 292 332 c 0,12,13
 346 332 346 332 346 256 c 0,14,15
 346 191 346 191 315 115 c 1,16,17
 400 269 400 269 481 269 c 0,18,19
 538 269 538 269 538 205 c 0,20,21
 538 177 538 177 519.5 117.5 c 128,-1,22
 501 58 501 58 501 38 c 0,23,24
 501 4 501 4 531 4 c 0,25,26
 593 4 593 4 665 162 c 1,27,-1
 677 148 l 1,28,29
 649 74 649 74 604 21.5 c 128,-1,30
 559 -31 559 -31 504 -31 c 0,31,32
 471 -31 471 -31 454 -10.5 c 128,-1,33
 437 10 437 10 437 42 c 0,34,35
 437 68 437 68 452 117 c 128,-1,36
 467 166 467 166 467 184 c 0,37,38
 467 220 467 220 438 220 c 0,39,40
 415 220 415 220 388.5 187.5 c 128,-1,41
 362 155 362 155 307 71 c 0,42,43
 295 53 295 53 259 -22 c 1,44,45
 243 -22 243 -22 225.5 -16.5 c 128,-1,46
 208 -11 208 -11 208 -2 c 0,47,48
 208 0 208 0 239.5 93 c 128,-1,49
 271 186 271 186 271 228 c 0,50,51
 271 266 271 266 246 266 c 0,52,53
 203 266 203 266 129.5 170.5 c 128,-1,54
 56 75 56 75 19 -27 c 1,55,56
 4 -27 4 -27 -15.5 -20 c 128,-1,57
 -35 -13 -35 -13 -35 -6 c 0,0,1
EndSplineSet
EndChar

StartChar: n
Encoding: 110 110 81
Width: 466
GlyphClass: 2
Flags: W
LayerCount: 2
Fore
SplineSet
-38 7 m 1,0,1
 -38 10 -38 10 -20.5 54 c 128,-1,2
 -3 98 -3 98 15 156.5 c 128,-1,3
 33 215 33 215 33 253 c 1,4,5
 52 274 52 274 79 274 c 128,-1,6
 106 274 106 274 106 248 c 0,7,8
 106 214 106 214 74 116 c 1,9,10
 189 292 189 292 282 292 c 0,11,12
 318 292 318 292 337 265.5 c 128,-1,13
 356 239 356 239 356 202 c 0,14,15
 356 169 356 169 335.5 118 c 128,-1,16
 315 67 315 67 315 44 c 0,17,18
 315 6 315 6 345 6 c 0,19,20
 407 6 407 6 485 162 c 1,21,-1
 496 149 l 1,22,23
 424 -20 424 -20 323 -20 c 0,24,25
 289 -20 289 -20 271 -2.5 c 128,-1,26
 253 15 253 15 253 44 c 0,27,28
 253 64 253 64 267.5 111.5 c 128,-1,29
 282 159 282 159 282 183 c 0,30,31
 282 232 282 232 242 232 c 0,32,33
 218 232 218 232 190.5 213 c 128,-1,34
 163 194 163 194 142 172 c 128,-1,35
 121 150 121 150 92.5 108 c 128,-1,36
 64 66 64 66 52 46 c 2,37,-1
 15 -15 l 1,38,39
 -22 -15 -22 -15 -38 7 c 1,0,1
EndSplineSet
EndChar

StartChar: p
Encoding: 112 112 83
Width: 391
GlyphClass: 2
Flags: W
LayerCount: 2
Fore
SplineSet
-53 -119 m 0,0,1
 -20 -23 -20 -23 0 75.5 c 128,-1,2
 20 174 20 174 42 356 c 0,3,4
 43 366 43 366 46.5 369.5 c 128,-1,5
 50 373 50 373 61 373 c 0,6,7
 85 373 85 373 97 359.5 c 128,-1,8
 109 346 109 346 109 327 c 0,9,10
 109 299 109 299 86 192 c 1,11,12
 117 252 117 252 161.5 295.5 c 128,-1,13
 206 339 206 339 259 339 c 0,14,15
 303 339 303 339 331.5 307.5 c 128,-1,16
 360 276 360 276 360 225 c 0,17,18
 360 139 360 139 290.5 56.5 c 128,-1,19
 221 -26 221 -26 124 -26 c 0,20,21
 99 -26 99 -26 82.5 -20.5 c 128,-1,22
 66 -15 66 -15 66 -8 c 0,23,24
 66 -3 66 -3 91 -3 c 0,25,26
 169 -3 169 -3 232 67 c 128,-1,27
 295 137 295 137 295 216 c 0,28,29
 295 250 295 250 280.5 271.5 c 128,-1,30
 266 293 266 293 238 293 c 0,31,32
 191 293 191 293 143.5 240 c 128,-1,33
 96 187 96 187 72 132 c 1,34,35
 -16 -241 -16 -241 -51 -275 c 0,36,37
 -56 -280 -56 -280 -63 -280 c 0,38,39
 -74 -280 -74 -280 -85 -263 c 0,40,41
 -95 -248 -95 -248 -94 -243 c 1,42,43
 -94 -235 -94 -235 -89.5 -220 c 128,-1,44
 -85 -205 -85 -205 -72.5 -172.5 c 128,-1,45
 -60 -140 -60 -140 -53 -119 c 0,0,1
EndSplineSet
EndChar

StartChar: q
Encoding: 113 113 84
Width: 401
GlyphClass: 2
Flags: W
LayerCount: 2
Fore
SplineSet
-15 56 m 0,0,1
 -15 114 -15 114 26.5 184.5 c 128,-1,2
 68 255 68 255 134.5 306 c 128,-1,3
 201 357 201 357 265 357 c 0,4,5
 299 357 299 357 321.5 343 c 128,-1,6
 344 329 344 329 344 308 c 0,7,8
 344 294 344 294 335 282.5 c 128,-1,9
 326 271 326 271 311 271 c 1,10,11
 311 295 311 295 297 310.5 c 128,-1,12
 283 326 283 326 254 326 c 0,13,14
 203 326 203 326 155 276 c 128,-1,15
 107 226 107 226 81 166.5 c 128,-1,16
 55 107 55 107 55 66 c 0,17,18
 55 44 55 44 64.5 31 c 128,-1,19
 74 18 74 18 90 18 c 0,20,21
 115 18 115 18 150.5 54.5 c 128,-1,22
 186 91 186 91 211 127.5 c 128,-1,23
 236 164 236 164 277 230 c 0,24,25
 296 261 296 261 321 261 c 0,26,27
 341 261 341 261 341 243 c 0,28,29
 341 231 341 231 304.5 164.5 c 128,-1,30
 268 98 268 98 253 29 c 1,31,32
 355 38 355 38 420 161 c 1,33,-1
 432 150 l 1,34,35
 401 80 401 80 352.5 45 c 128,-1,36
 304 10 304 10 251 5 c 1,37,38
 268 -49 268 -49 268 -108 c 0,39,40
 268 -179 268 -179 246.5 -229.5 c 128,-1,41
 225 -280 225 -280 194 -280 c 0,42,43
 159 -280 159 -280 159 -209 c 0,44,45
 159 -153 159 -153 175.5 -64 c 128,-1,46
 192 25 192 25 218 98 c 1,47,48
 129 -30 129 -30 60 -30 c 0,49,50
 31 -30 31 -30 8 -8.5 c 128,-1,51
 -15 13 -15 13 -15 56 c 0,0,1
213 -197 m 0,52,53
 213 -225 213 -225 221 -225 c 0,54,55
 232 -225 232 -225 239 -185.5 c 128,-1,56
 246 -146 246 -146 246 -99 c 0,57,58
 246 -58 246 -58 239 -24 c 1,59,60
 213 -133 213 -133 213 -197 c 0,52,53
EndSplineSet
EndChar

StartChar: r
Encoding: 114 114 85
Width: 348
GlyphClass: 2
Flags: W
LayerCount: 2
Fore
SplineSet
1 127 m 1,0,1
 49 220 49 220 82 317 c 1,2,3
 72 327 72 327 72 341 c 0,4,5
 72 368 72 368 87.5 388.5 c 128,-1,6
 103 409 103 409 114 409 c 0,7,8
 128 409 128 409 128 385 c 0,9,10
 128 381 128 381 122.5 365.5 c 128,-1,11
 117 350 117 350 117 348 c 0,12,13
 117 336 117 336 133 322.5 c 128,-1,14
 149 309 149 309 168 297 c 128,-1,15
 187 285 187 285 203 261.5 c 128,-1,16
 219 238 219 238 219 209 c 0,17,18
 219 176 219 176 194 117.5 c 128,-1,19
 169 59 169 59 169 40 c 0,20,21
 169 10 169 10 199 10 c 0,22,23
 243 10 243 10 295.5 60 c 128,-1,24
 348 110 348 110 369 159 c 1,25,-1
 382 149 l 1,26,27
 351 80 351 80 292 27 c 128,-1,28
 233 -26 233 -26 173 -26 c 0,29,30
 139 -26 139 -26 119.5 -8 c 128,-1,31
 100 10 100 10 100 39 c 0,32,33
 100 69 100 69 127.5 134.5 c 128,-1,34
 155 200 155 200 155 226 c 0,35,36
 155 236 155 236 152 245.5 c 128,-1,37
 149 255 149 255 146.5 260.5 c 128,-1,38
 144 266 144 266 136 273 c 2,39,-1
 125 283 l 2,40,41
 122 286 122 286 111.5 293 c 128,-1,42
 101 300 101 300 99 302 c 1,43,44
 52 182 52 182 10 110 c 1,45,-1
 1 127 l 1,0,1
EndSplineSet
Substitution2: "'init' Initial Forms in Latin lookup 3 subtable" r.init
EndChar

StartChar: t
Encoding: 116 116 87
Width: 285
GlyphClass: 2
Flags: W
LayerCount: 2
Fore
SplineSet
-4 53 m 0,0,1
 -4 139 -4 139 54 294 c 1,2,3
 30 298 30 298 18 302 c 1,4,-1
 18 320 l 1,5,6
 54 316 54 316 62 316 c 1,7,8
 106 430 106 430 156.5 513.5 c 128,-1,9
 207 597 207 597 236 597 c 0,10,11
 244 597 244 597 250.5 591 c 128,-1,12
 257 585 257 585 257 575 c 0,13,14
 257 560 257 560 237.5 523 c 128,-1,15
 218 486 218 486 182.5 424 c 128,-1,16
 147 362 147 362 124 313 c 1,17,-1
 161 313 l 2,18,19
 244 313 244 313 304 319 c 1,20,-1
 304 301 l 1,21,22
 198 289 198 289 133 289 c 0,23,24
 130 289 130 289 128 289 c 2,25,-1
 113 289 l 1,26,27
 58 164 58 164 58 72 c 0,28,29
 58 27 58 27 71 9 c 128,-1,30
 84 -9 84 -9 114 -9 c 0,31,32
 165 -9 165 -9 215 36.5 c 128,-1,33
 265 82 265 82 304 162 c 1,34,-1
 317 152 l 1,35,36
 280 65 280 65 217 9.5 c 128,-1,37
 154 -46 154 -46 85 -46 c 0,38,39
 -4 -46 -4 -46 -4 53 c 0,0,1
EndSplineSet
EndChar

StartChar: v
Encoding: 118 118 89
Width: 407
GlyphClass: 2
Flags: W
LayerCount: 2
Fore
SplineSet
10 71 m 0,0,1
 10 90 10 90 16 202 c 0,2,3
 17 223 17 223 19 231 c 128,-1,4
 21 239 21 239 27.5 244 c 128,-1,5
 34 249 34 249 48 249 c 0,6,7
 65 249 65 249 69.5 242.5 c 128,-1,8
 74 236 74 236 74 217 c 0,9,10
 74 196 74 196 69.5 139.5 c 128,-1,11
 65 83 65 83 65 56 c 0,12,13
 65 0 65 0 88 0 c 0,14,15
 121 0 121 0 168 67.5 c 128,-1,16
 215 135 215 135 253 219 c 1,17,18
 257 332 257 332 299 332 c 0,19,20
 316 332 316 332 325.5 319.5 c 128,-1,21
 335 307 335 307 335 294 c 0,22,23
 335 285 335 285 326.5 269.5 c 128,-1,24
 318 254 318 254 309 226.5 c 128,-1,25
 300 199 300 199 300 160 c 0,26,27
 300 84 300 84 347 84 c 0,28,29
 390 84 390 84 426 158 c 1,30,-1
 439 148 l 1,31,32
 403 64 403 64 340 64 c 0,33,34
 269 64 269 64 256 161 c 1,35,36
 215 79 215 79 162.5 20 c 128,-1,37
 110 -39 110 -39 65 -39 c 0,38,39
 10 -39 10 -39 10 71 c 0,0,1
EndSplineSet
EndChar

StartChar: w
Encoding: 119 119 90
Width: 617
GlyphClass: 2
Flags: W
LayerCount: 2
Fore
SplineSet
0 71 m 0,0,1
 0 128 0 128 33 213 c 128,-1,2
 66 298 66 298 88 298 c 0,3,4
 96 298 96 298 110.5 292 c 128,-1,5
 125 286 125 286 125 278 c 1,6,7
 104 246 104 246 81 183.5 c 128,-1,8
 58 121 58 121 58 77 c 0,9,10
 58 10 58 10 93 10 c 0,11,12
 146 10 146 10 243 201 c 1,13,14
 255 261 255 261 261.5 276 c 128,-1,15
 268 291 268 291 283 291 c 0,16,17
 312 291 312 291 312 269 c 0,18,19
 312 266 312 266 310 258 c 0,20,21
 282 167 282 167 282 49 c 0,22,23
 282 0 282 0 304 0 c 0,24,25
 332 0 332 0 377 62.5 c 128,-1,26
 422 125 422 125 459 205 c 1,27,28
 459 332 459 332 509 332 c 0,29,30
 526 332 526 332 535.5 319.5 c 128,-1,31
 545 307 545 307 545 294 c 0,32,33
 545 285 545 285 536.5 269.5 c 128,-1,34
 528 254 528 254 519 226.5 c 128,-1,35
 510 199 510 199 510 160 c 0,36,37
 510 84 510 84 557 84 c 0,38,39
 601 84 601 84 636 158 c 1,40,-1
 649 148 l 1,41,42
 613 64 613 64 550 64 c 0,43,44
 486 64 486 64 466 148 c 1,45,46
 424 70 424 70 374.5 15.5 c 128,-1,47
 325 -39 325 -39 282 -39 c 0,48,49
 228 -39 228 -39 228 58 c 0,50,51
 228 94 228 94 235 148 c 1,52,53
 146 -30 146 -30 76 -30 c 2,54,55
 76 -30 76 -30 75 -30 c 0,56,57
 43 -30 43 -30 21.5 -0.5 c 128,-1,58
 0 29 0 29 0 71 c 0,0,1
EndSplineSet
EndChar

StartChar: x
Encoding: 120 120 91
Width: 418
GlyphClass: 2
Flags: W
LayerCount: 2
Fore
SplineSet
10 145 m 1,0,-1
 30 188 l 2,1,2
 43 217 43 217 52.5 234.5 c 128,-1,3
 62 252 62 252 76.5 272 c 128,-1,4
 91 292 91 292 110 301.5 c 128,-1,5
 129 311 129 311 154 311 c 0,6,7
 219 311 219 311 237 216 c 1,8,9
 348 332 348 332 373 332 c 0,10,11
 379 332 379 332 388.5 329 c 128,-1,12
 398 326 398 326 398 321 c 1,13,14
 367 321 367 321 243 177 c 1,15,16
 244 164 244 164 246 142.5 c 128,-1,17
 248 121 248 121 249 108 c 128,-1,18
 250 95 250 95 252 77.5 c 128,-1,19
 254 60 254 60 257.5 49.5 c 128,-1,20
 261 39 261 39 266 29 c 128,-1,21
 271 19 271 19 279 14.5 c 128,-1,22
 287 10 287 10 297 10 c 0,23,24
 331 10 331 10 372.5 59 c 128,-1,25
 414 108 414 108 438 161 c 1,26,-1
 448 151 l 1,27,28
 425 83 425 83 373.5 28.5 c 128,-1,29
 322 -26 322 -26 272 -26 c 0,30,31
 232 -26 232 -26 213.5 10.5 c 128,-1,32
 195 47 195 47 187 111 c 1,33,-1
 56 -52 l 2,34,35
 50 -59 50 -59 44 -59 c 0,36,37
 34 -59 34 -59 34 -44 c 0,38,39
 34 -9 34 -9 182 156 c 1,40,41
 179 187 179 187 176.5 201.5 c 128,-1,42
 174 216 174 216 169 236 c 128,-1,43
 164 256 164 256 156.5 264 c 128,-1,44
 149 272 149 272 138 272 c 0,45,46
 124 272 124 272 112 266 c 128,-1,47
 100 260 100 260 86.5 241.5 c 128,-1,48
 73 223 73 223 66 212.5 c 128,-1,49
 59 202 59 202 42 171 c 2,50,-1
 19 129 l 1,51,-1
 10 145 l 1,0,-1
EndSplineSet
EndChar

StartChar: z
Encoding: 122 122 93
Width: 317
GlyphClass: 2
Flags: W
LayerCount: 2
Fore
SplineSet
-71 -229 m 0,0,1
 -71 -204 -71 -204 -58 -181.5 c 128,-1,2
 -45 -159 -45 -159 -17 -136.5 c 128,-1,3
 11 -114 11 -114 37 -97 c 2,4,-1
 105 -55 l 2,5,6
 148 -29 148 -29 174 -12 c 1,7,8
 174 61 174 61 105 115 c 1,9,10
 154 129 154 129 184 174 c 128,-1,11
 214 219 214 219 214 262 c 0,12,13
 214 286 214 286 204 300.5 c 128,-1,14
 194 315 194 315 175 315 c 128,-1,15
 156 315 156 315 137.5 304.5 c 128,-1,16
 119 294 119 294 106 280.5 c 128,-1,17
 93 267 93 267 76.5 239 c 128,-1,18
 60 211 60 211 50.5 192 c 128,-1,19
 41 173 41 173 23 134 c 1,20,-1
 11 144 l 1,21,22
 50 249 50 249 88.5 301 c 128,-1,23
 127 353 127 353 189 353 c 0,24,25
 224 353 224 353 248 330.5 c 128,-1,26
 272 308 272 308 272 271 c 0,27,28
 272 220 272 220 238 178 c 128,-1,29
 204 136 204 136 154 111 c 1,30,31
 206 71 206 71 224 21 c 1,32,33
 310 86 310 86 335 162 c 1,34,-1
 346 150 l 1,35,36
 321 71 321 71 230 2 c 1,37,38
 234 -11 234 -11 234 -31 c 0,39,40
 234 -123 234 -123 160 -201.5 c 128,-1,41
 86 -280 86 -280 -5 -280 c 0,42,43
 -71 -280 -71 -280 -71 -229 c 0,0,1
-43 -218 m 0,44,45
 -43 -251 -43 -251 -12 -251 c 0,46,47
 35 -251 35 -251 99.5 -189.5 c 128,-1,48
 164 -128 164 -128 173 -35 c 1,49,-1
 111 -73 l 1,50,-1
 50 -111 l 2,51,52
 29 -124 29 -124 4 -143.5 c 128,-1,53
 -21 -163 -21 -163 -32 -181 c 128,-1,54
 -43 -199 -43 -199 -43 -218 c 0,44,45
EndSplineSet
EndChar

StartChar: braceleft
Encoding: 123 123 94
Width: 260
GlyphClass: 2
Flags: W
LayerCount: 2
Fore
SplineSet
37 -21 m 0,0,1
 37 12 37 12 74 102 c 128,-1,2
 111 192 111 192 111 233 c 0,3,4
 111 302 111 302 75 331 c 1,5,6
 115 335 115 335 134.5 376.5 c 128,-1,7
 154 418 154 418 158 474 c 2,8,-1
 167 587 l 2,9,10
 171 643 171 643 192 681.5 c 128,-1,11
 213 720 213 720 255 720 c 0,12,13
 305 720 305 720 310 667 c 1,14,15
 284 681 284 681 277 681 c 0,16,17
 253 681 253 681 239.5 645.5 c 128,-1,18
 226 610 226 610 220 558 c 2,19,-1
 208 455 l 2,20,21
 202 403 202 403 185 365.5 c 128,-1,22
 168 328 168 328 141 325 c 1,23,24
 167 298 167 298 167 256 c 0,25,26
 167 203 167 203 148 148.5 c 128,-1,27
 129 94 129 94 110 48 c 128,-1,28
 91 2 91 2 91 -30 c 128,-1,29
 91 -62 91 -62 124 -62 c 0,30,31
 139 -62 139 -62 149 -54 c 1,32,33
 146 -87 146 -87 102 -87 c 0,34,35
 37 -87 37 -87 37 -21 c 0,0,1
EndSplineSet
EndChar

StartChar: bar
Encoding: 124 124 95
Width: 259
GlyphClass: 2
Flags: W
LayerCount: 2
Fore
SplineSet
55 -132 m 1,0,1
 87 -45 87 -45 118 309 c 128,-1,2
 149 663 149 663 159 697 c 1,3,4
 187 685 187 685 187 640 c 0,5,6
 187 554 187 554 175.5 349.5 c 128,-1,7
 164 145 164 145 154 52 c 0,8,9
 135 -132 135 -132 55 -132 c 1,0,1
EndSplineSet
EndChar

StartChar: braceright
Encoding: 125 125 96
Width: 256
GlyphClass: 2
Flags: W
LayerCount: 2
Fore
SplineSet
-21 -34 m 1,0,1
 -3 -46 -3 -46 13 -46 c 0,2,3
 40 -46 40 -46 53.5 -0.5 c 128,-1,4
 67 45 67 45 78 129 c 0,5,6
 85 186 85 186 91 221 c 128,-1,7
 97 256 97 256 114 295 c 128,-1,8
 131 334 131 334 156 347 c 1,9,10
 131 375 131 375 131 419 c 0,11,12
 131 466 131 466 166.5 557 c 128,-1,13
 202 648 202 648 202 672 c 0,14,15
 202 687 202 687 195 687 c 0,16,17
 176 687 176 687 154 670 c 1,18,19
 158 691 158 691 180 705.5 c 128,-1,20
 202 720 202 720 222 720 c 0,21,22
 240 720 240 720 251 710 c 128,-1,23
 262 700 262 700 262 686 c 0,24,25
 262 669 262 669 225 577 c 128,-1,26
 188 485 188 485 188 434 c 0,27,28
 188 363 188 363 223 339 c 1,29,30
 181 329 181 329 160 281 c 128,-1,31
 139 233 139 233 134.5 172.5 c 128,-1,32
 130 112 130 112 124.5 52.5 c 128,-1,33
 119 -7 119 -7 98.5 -47 c 128,-1,34
 78 -87 78 -87 36 -87 c 0,35,36
 -16 -87 -16 -87 -21 -34 c 1,0,1
EndSplineSet
EndChar

StartChar: asciitilde
Encoding: 126 126 97
Width: 435
GlyphClass: 2
Flags: W
LayerCount: 2
Fore
SplineSet
40 160 m 1,0,1
 75 206 75 206 123 206 c 0,2,3
 149 206 149 206 213.5 184 c 128,-1,4
 278 162 278 162 317 162 c 0,5,6
 332 162 332 162 347 165 c 1,7,8
 315 129 315 129 269 129 c 0,9,10
 241 129 241 129 179.5 148.5 c 128,-1,11
 118 168 118 168 86 168 c 0,12,13
 60 168 60 168 40 160 c 1,0,1
EndSplineSet
EndChar

StartChar: exclamdown
Encoding: 161 161 98
Width: 264
GlyphClass: 2
Flags: W
LayerCount: 2
Fore
SplineSet
-79 -227 m 0,0,1
 -79 -187 -79 -187 38.5 46.5 c 128,-1,2
 156 280 156 280 215 367 c 1,3,4
 215 320 215 320 160 177 c 2,5,-1
 121 76 l 1,6,-1
 83 -18 l 2,7,8
 59 -77 59 -77 42 -111 c 2,9,-1
 6 -180 l 1,10,11
 -14 -216 -14 -216 -30 -233 c 128,-1,12
 -46 -250 -46 -250 -59 -250 c 0,13,14
 -67 -250 -67 -250 -73 -243.5 c 128,-1,15
 -79 -237 -79 -237 -79 -227 c 0,0,1
192 436 m 0,16,17
 192 451 192 451 208.5 465.5 c 128,-1,18
 225 480 225 480 244 480 c 0,19,20
 276 480 276 480 276 453 c 0,21,22
 276 437 276 437 257 424.5 c 128,-1,23
 238 412 238 412 218 412 c 0,24,25
 192 412 192 412 192 436 c 0,16,17
EndSplineSet
EndChar

StartChar: cent
Encoding: 162 162 99
Width: 403
GlyphClass: 2
Flags: W
LayerCount: 2
Fore
SplineSet
52 242 m 0,0,1
 52 327 52 327 114.5 404.5 c 128,-1,2
 177 482 177 482 252 502 c 1,3,4
 274 605 274 605 284 675 c 0,5,6
 289 712 289 712 329 720 c 1,7,-1
 289 508 l 1,8,9
 328 508 328 508 345 486.5 c 128,-1,10
 362 465 362 465 362 434 c 0,11,12
 362 404 362 404 348.5 382.5 c 128,-1,13
 335 361 335 361 312 361 c 0,14,15
 295 361 295 361 283 376 c 1,16,17
 298 383 298 383 309 407.5 c 128,-1,18
 320 432 320 432 320 455 c 0,19,20
 320 480 320 480 298 480 c 0,21,22
 288 480 288 480 283 479 c 1,23,24
 244 269 244 269 220 155 c 1,25,26
 288 167 288 167 341 214 c 1,27,-1
 358 198 l 1,28,29
 297 140 297 140 213 120 c 1,30,-1
 190 22 l 2,31,32
 181 -15 181 -15 167.5 -54 c 128,-1,33
 154 -93 154 -93 141 -114 c 128,-1,34
 128 -135 128 -135 109.5 -148.5 c 128,-1,35
 91 -162 91 -162 68 -162 c 1,36,37
 102 -124 102 -124 163 114 c 1,38,39
 113 114 113 114 82.5 147 c 128,-1,40
 52 180 52 180 52 242 c 0,0,1
114 235 m 0,41,42
 114 160 114 160 173 152 c 1,43,44
 206 281 206 281 245 465 c 1,45,46
 192 436 192 436 153 366 c 128,-1,47
 114 296 114 296 114 235 c 0,41,42
EndSplineSet
EndChar

StartChar: sterling
Encoding: 163 163 100
Width: 650
GlyphClass: 2
Flags: W
LayerCount: 2
Fore
SplineSet
-21 34 m 0,0,1
 -21 78 -21 78 52 78 c 0,2,3
 96 78 96 78 175 57 c 1,4,5
 202 103 202 103 225 170 c 1,6,7
 147 161 147 161 143 160 c 2,8,-1
 109 155 l 1,9,10
 113 221 113 221 244 225 c 1,11,-1
 259 271 l 1,12,13
 243 268 243 268 211 265 c 128,-1,14
 179 262 179 262 163 260 c 2,15,-1
 129 255 l 1,16,17
 133 325 133 325 276 325 c 1,18,-1
 300 400 l 1,19,20
 254 415 254 415 227.5 444 c 128,-1,21
 201 473 201 473 201 507 c 0,22,23
 201 536 201 536 218.5 561 c 128,-1,24
 236 586 236 586 263 586 c 1,25,26
 250 568 250 568 250 524 c 0,27,28
 250 452 250 452 307 421 c 1,29,30
 329 488 329 488 349 536 c 128,-1,31
 369 584 369 584 395.5 629 c 128,-1,32
 422 674 422 674 454 697 c 128,-1,33
 486 720 486 720 522 720 c 0,34,35
 559 720 559 720 589 696 c 128,-1,36
 619 672 619 672 619 618 c 0,37,38
 619 582 619 582 604 543 c 128,-1,39
 589 504 589 504 561 468.5 c 128,-1,40
 533 433 533 433 485.5 410.5 c 128,-1,41
 438 388 438 388 379 388 c 2,42,-1
 363 388 l 1,43,44
 351 356 351 356 341 322 c 1,45,46
 365 320 365 320 418.5 314 c 128,-1,47
 472 308 472 308 496 308 c 1,48,49
 480 286 480 286 452.5 281 c 128,-1,50
 425 276 425 276 324 274 c 1,51,52
 312 240 312 240 305 223 c 1,53,54
 335 221 335 221 393 215 c 128,-1,55
 451 209 451 209 476 208 c 1,56,57
 460 185 460 185 430.5 180 c 128,-1,58
 401 175 401 175 285 173 c 1,59,60
 247 86 247 86 219 44 c 1,61,62
 228 41 228 41 264 30 c 2,63,-1
 313 15 l 2,64,65
 326 11 326 11 356.5 3 c 128,-1,66
 387 -5 387 -5 404 -8.5 c 128,-1,67
 421 -12 421 -12 443.5 -15 c 128,-1,68
 466 -18 466 -18 484 -18 c 0,69,70
 524 -18 524 -18 555 -2 c 1,71,72
 525 -87 525 -87 450 -87 c 0,73,74
 424 -87 424 -87 387.5 -76.5 c 128,-1,75
 351 -66 351 -66 329.5 -57 c 128,-1,76
 308 -48 308 -48 255 -23.5 c 128,-1,77
 202 1 202 1 190 6 c 1,78,79
 137 -53 137 -53 79 -53 c 0,80,81
 34 -53 34 -53 6.5 -24 c 128,-1,82
 -21 5 -21 5 -21 34 c 0,0,1
5 33 m 128,-1,84
 5 14 5 14 25.5 -5 c 128,-1,85
 46 -24 46 -24 75 -24 c 0,86,87
 117 -24 117 -24 152 22 c 1,88,89
 78 52 78 52 38 52 c 0,90,83
 5 52 5 52 5 33 c 128,-1,84
369 407 m 1,91,92
 451 408 451 408 508 491 c 128,-1,93
 565 574 565 574 565 645 c 0,94,95
 565 695 565 695 529 695 c 0,96,97
 507 695 507 695 486 674 c 128,-1,98
 465 653 465 653 444 606.5 c 128,-1,99
 423 560 423 560 408 519 c 2,100,-1
 369 407 l 1,91,92
EndSplineSet
EndChar

StartChar: currency
Encoding: 164 164 101
Width: 697
GlyphClass: 2
Flags: W
LayerCount: 2
Fore
SplineSet
83 43 m 1,0,1
 93 53 93 53 119.5 72 c 128,-1,2
 146 91 146 91 175 117.5 c 128,-1,3
 204 144 204 144 229 180 c 1,4,5
 220 207 220 207 220 247 c 0,6,7
 220 338 220 338 266 424 c 1,8,9
 193 503 193 503 148 544 c 0,10,11
 130 560 130 560 130 604 c 0,12,13
 130 623 130 623 136 638 c 1,14,15
 164 611 164 611 293 469 c 1,16,17
 351 546 351 546 423 546 c 128,-1,18
 495 546 495 546 526 478 c 1,19,20
 540 494 540 494 560 523 c 128,-1,21
 580 552 580 552 591 565 c 128,-1,22
 602 578 602 578 624.5 589.5 c 128,-1,23
 647 601 647 601 676 601 c 0,24,25
 682 601 682 601 694 599 c 1,26,27
 682 582 682 582 540 417 c 1,28,29
 540 414 540 414 540.5 409 c 128,-1,30
 541 404 541 404 541 401 c 0,31,32
 541 307 541 307 487 212 c 1,33,34
 601 105 601 105 601 42 c 0,35,36
 601 30 601 30 599 24 c 1,37,38
 591 39 591 39 571 59 c 2,39,-1
 517 112 l 1,40,-1
 459 169 l 1,41,42
 401 96 401 96 335 96 c 0,43,44
 281 96 281 96 252 136 c 1,45,46
 169 43 169 43 83 43 c 1,0,1
277 237 m 0,47,48
 277 200 277 200 298 174.5 c 128,-1,49
 319 149 319 149 343 149 c 0,50,51
 376 149 376 149 410.5 192.5 c 128,-1,52
 445 236 445 236 466.5 298 c 128,-1,53
 488 360 488 360 488 412 c 0,54,55
 488 447 488 447 468 471.5 c 128,-1,56
 448 496 448 496 423 496 c 0,57,58
 385 496 385 496 349.5 449 c 128,-1,59
 314 402 314 402 295.5 342.5 c 128,-1,60
 277 283 277 283 277 237 c 0,47,48
EndSplineSet
EndChar

StartChar: yen
Encoding: 165 165 102
Width: 810
GlyphClass: 2
Flags: W
LayerCount: 2
Fore
SplineSet
110 539 m 0,0,1
 110 604 110 604 168 662 c 128,-1,2
 226 720 226 720 301 720 c 0,3,4
 354 720 354 720 379.5 690 c 128,-1,5
 405 660 405 660 405 619 c 0,6,7
 405 586 405 586 371.5 465 c 128,-1,8
 338 344 338 344 338 287 c 0,9,10
 338 191 338 191 408 191 c 0,11,12
 471 191 471 191 525 263 c 128,-1,13
 579 335 579 335 620 440 c 1,14,15
 688 720 688 720 740 720 c 0,16,17
 766 720 766 720 796 688 c 1,18,19
 746 608 746 608 720 529 c 128,-1,20
 694 450 694 450 631 194 c 1,21,-1
 610 113 l 1,22,23
 668 110 668 110 712 106 c 1,24,25
 672 77 672 77 609 77 c 2,26,-1
 600 77 l 1,27,28
 590 45 590 45 578 14 c 1,29,30
 626 13 626 13 712 6 c 1,31,32
 672 -23 672 -23 609 -23 c 2,33,-1
 562 -23 l 1,34,35
 486 -187 486 -187 342 -187 c 0,36,37
 282 -187 282 -187 243 -162 c 128,-1,38
 204 -137 204 -137 204 -93 c 0,39,40
 204 -38 204 -38 264 -18 c 1,41,42
 256 -45 256 -45 256 -72 c 0,43,44
 256 -114 256 -114 278 -138 c 128,-1,45
 300 -162 300 -162 343 -162 c 0,46,47
 443 -162 443 -162 506 -23 c 1,48,49
 421 -23 421 -23 355 -34 c 1,50,51
 372 11 372 11 521 15 c 1,52,53
 528 32 528 32 541 77 c 1,54,-1
 536 77 l 2,55,56
 426 77 426 77 355 66 c 1,57,58
 373 115 373 115 544 115 c 2,59,-1
 550 115 l 1,60,-1
 552 121 l 1,61,-1
 570 211 l 2,62,63
 584 281 584 281 594 326 c 1,64,65
 503 151 503 151 377 151 c 0,66,67
 268 151 268 151 268 270 c 0,68,69
 268 324 268 324 302 447 c 128,-1,70
 336 570 336 570 336 614 c 0,71,72
 336 692 336 692 279 692 c 0,73,74
 229 692 229 692 200 635 c 128,-1,75
 171 578 171 578 171 519 c 0,76,77
 171 489 171 489 179 470 c 1,78,79
 110 470 110 470 110 539 c 0,0,1
EndSplineSet
EndChar

StartChar: brokenbar
Encoding: 166 166 103
Width: 260
GlyphClass: 2
Flags: W
LayerCount: 2
Fore
SplineSet
55 -132 m 1,0,1
 82 -60 82 -60 108 197 c 1,2,3
 128 217 128 217 154 217 c 0,4,5
 166 217 166 217 166 194 c 1,6,7
 154 17 154 17 133 -57.5 c 128,-1,8
 112 -132 112 -132 55 -132 c 1,0,1
117 296 m 1,9,10
 120 334 120 334 126 399 c 2,11,-1
 135 502 l 2,12,13
 138 539 138 539 142.5 583.5 c 128,-1,14
 147 628 147 628 151 655.5 c 128,-1,15
 155 683 155 683 159 697 c 1,16,17
 187 685 187 685 187 640 c 0,18,19
 187 621 187 621 182 531 c 128,-1,20
 177 441 177 441 177 382 c 0,21,22
 177 368 177 368 169.5 348 c 128,-1,23
 162 328 162 328 145 316 c 2,24,-1
 117 296 l 1,9,10
EndSplineSet
EndChar

StartChar: section
Encoding: 167 167 104
Width: 416
GlyphClass: 2
Flags: W
LayerCount: 2
Fore
SplineSet
7 28 m 0,0,1
 7 73 7 73 31.5 93 c 128,-1,2
 56 113 56 113 88 113 c 1,3,4
 53 76 53 76 53 28 c 0,5,6
 53 -10 53 -10 78 -36 c 128,-1,7
 103 -62 103 -62 151 -62 c 0,8,9
 198 -62 198 -62 234 -37 c 128,-1,10
 270 -12 270 -12 270 31 c 0,11,12
 270 61 270 61 249.5 86.5 c 128,-1,13
 229 112 229 112 200 131 c 2,14,-1
 142 171 l 2,15,16
 113 192 113 192 92.5 222.5 c 128,-1,17
 72 253 72 253 72 290 c 0,18,19
 72 347 72 347 114.5 388.5 c 128,-1,20
 157 430 157 430 232 430 c 0,21,22
 248 430 248 430 256 429 c 1,23,24
 230 444 230 444 217 452.5 c 128,-1,25
 204 461 204 461 186 476.5 c 128,-1,26
 168 492 168 492 160 509.5 c 128,-1,27
 152 527 152 527 152 549 c 0,28,29
 152 607 152 607 204 663 c 128,-1,30
 256 719 256 719 330 719 c 0,31,32
 401 719 401 719 401 656 c 128,-1,33
 401 593 401 593 352 515 c 1,34,35
 331 519 331 519 331 542 c 0,36,37
 331 560 331 560 349.5 609 c 128,-1,38
 368 658 368 658 368 677 c 0,39,40
 368 704 368 704 333 704 c 0,41,42
 276 704 276 704 234 656 c 128,-1,43
 192 608 192 608 192 562 c 0,44,45
 192 536 192 536 210.5 516 c 128,-1,46
 229 496 229 496 255.5 480.5 c 128,-1,47
 282 465 282 465 308 446.5 c 128,-1,48
 334 428 334 428 352.5 396 c 128,-1,49
 371 364 371 364 371 320 c 0,50,51
 371 256 371 256 334.5 223.5 c 128,-1,52
 298 191 298 191 234 191 c 0,53,54
 218 191 218 191 210.5 192.5 c 128,-1,55
 203 194 203 194 190.5 200 c 128,-1,56
 178 206 178 206 166 210 c 1,57,58
 173 202 173 202 214.5 179 c 128,-1,59
 256 156 256 156 285 124.5 c 128,-1,60
 314 93 314 93 314 50 c 0,61,62
 314 -10 314 -10 259 -48.5 c 128,-1,63
 204 -87 204 -87 140 -87 c 0,64,65
 84 -87 84 -87 45.5 -57 c 128,-1,66
 7 -27 7 -27 7 28 c 0,0,1
128 310 m 0,67,68
 128 231 128 231 219 231 c 0,69,70
 314 231 314 231 314 316 c 0,71,72
 314 355 314 355 292 378 c 128,-1,73
 270 401 270 401 227 401 c 0,74,75
 185 401 185 401 156.5 378.5 c 128,-1,76
 128 356 128 356 128 310 c 0,67,68
EndSplineSet
EndChar

StartChar: dieresis
Encoding: 168 168 105
Width: 239
GlyphClass: 2
Flags: W
LayerCount: 2
Fore
SplineSet
0 466 m 0,0,1
 0 484 0 484 21.5 498.5 c 128,-1,2
 43 513 43 513 66 513 c 0,3,4
 96 513 96 513 96 485 c 0,5,6
 96 468 96 468 77.5 452 c 128,-1,7
 59 436 59 436 37 436 c 0,8,9
 0 436 0 436 0 466 c 0,0,1
144 445 m 0,10,11
 144 463 144 463 165.5 477.5 c 128,-1,12
 187 492 187 492 210 492 c 0,13,14
 240 492 240 492 240 464 c 0,15,16
 240 447 240 447 221.5 431 c 128,-1,17
 203 415 203 415 181 415 c 0,18,19
 144 415 144 415 144 445 c 0,10,11
EndSplineSet
EndChar

StartChar: copyright
Encoding: 169 169 106
Width: 592
GlyphClass: 2
Flags: W
LayerCount: 2
Fore
SplineSet
79 358 m 0,0,1
 79 482 79 482 156 551 c 128,-1,2
 233 620 233 620 327 620 c 128,-1,3
 421 620 421 620 496 551.5 c 128,-1,4
 571 483 571 483 571 362 c 0,5,6
 571 238 571 238 494 169 c 128,-1,7
 417 100 417 100 323 100 c 128,-1,8
 229 100 229 100 154 168.5 c 128,-1,9
 79 237 79 237 79 358 c 0,0,1
107 358 m 0,10,11
 107 257 107 257 167 192.5 c 128,-1,12
 227 128 227 128 323 128 c 128,-1,13
 419 128 419 128 481 193 c 128,-1,14
 543 258 543 258 543 362 c 0,15,16
 543 463 543 463 483 527.5 c 128,-1,17
 423 592 423 592 327 592 c 128,-1,18
 231 592 231 592 169 527 c 128,-1,19
 107 462 107 462 107 358 c 0,10,11
245 299 m 2,20,-1
 245 431 l 2,21,22
 245 478 245 478 267.5 500 c 128,-1,23
 290 522 290 522 326 522 c 0,24,25
 367 522 367 522 387.5 498 c 128,-1,26
 408 474 408 474 408 451 c 0,27,28
 408 434 408 434 393 434 c 0,29,30
 380 434 380 434 378 446 c 0,31,32
 370 495 370 495 327 495 c 0,33,34
 275 495 275 495 275 431 c 2,35,-1
 275 299 l 2,36,37
 275 235 275 235 329 235 c 0,38,39
 354 235 354 235 366 252.5 c 128,-1,40
 378 270 378 270 378 284 c 0,41,42
 378 296 378 296 391 296 c 0,43,44
 408 296 408 296 408 282 c 0,45,46
 406 250 406 250 384.5 229.5 c 128,-1,47
 363 209 363 209 326 209 c 0,48,49
 245 209 245 209 245 299 c 2,20,-1
EndSplineSet
EndChar

StartChar: ordfeminine
Encoding: 170 170 107
Width: 383
GlyphClass: 2
Flags: W
LayerCount: 2
Fore
SplineSet
105 506 m 0,0,1
 105 571 105 571 169 645.5 c 128,-1,2
 233 720 233 720 299 720 c 0,3,4
 326 720 326 720 344 705.5 c 128,-1,5
 362 691 362 691 362 668 c 0,6,7
 362 638 362 638 328 638 c 1,8,9
 332 654 332 654 332 662 c 0,10,11
 332 702 332 702 297 702 c 0,12,13
 250 702 250 702 201.5 630 c 128,-1,14
 153 558 153 558 153 503 c 0,15,16
 153 476 153 476 172 476 c 0,17,18
 217 476 217 476 319 629 c 1,19,20
 347 622 347 622 347 611 c 0,21,22
 347 605 347 605 326.5 569 c 128,-1,23
 306 533 306 533 306 514 c 0,24,25
 306 502 306 502 312 492.5 c 128,-1,26
 318 483 318 483 330 483 c 0,27,28
 350 483 350 483 381 512 c 128,-1,29
 412 541 412 541 442 594 c 1,30,-1
 449 587 l 1,31,32
 428 531 428 531 388 495 c 128,-1,33
 348 459 348 459 311 459 c 0,34,35
 286 459 286 459 273 473.5 c 128,-1,36
 260 488 260 488 260 508 c 0,37,38
 260 513 260 513 262 529 c 1,39,40
 201 447 201 447 157 447 c 0,41,42
 134 447 134 447 119.5 462 c 128,-1,43
 105 477 105 477 105 506 c 0,0,1
EndSplineSet
EndChar

StartChar: guillemotleft
Encoding: 171 171 108
Width: 435
GlyphClass: 2
Flags: W
LayerCount: 2
Fore
SplineSet
6 158 m 1,0,1
 55 179 55 179 109.5 225 c 128,-1,2
 164 271 164 271 196 316 c 1,3,4
 201 308 201 308 201 294 c 0,5,6
 201 235 201 235 32 147 c 1,7,-1
 75 117 l 2,8,9
 90 107 90 107 120 92 c 128,-1,10
 150 77 150 77 194 60 c 1,11,12
 180 44 180 44 165 44 c 0,13,14
 129 44 129 44 71.5 86 c 128,-1,15
 14 128 14 128 6 158 c 1,0,1
156 158 m 1,16,17
 205 179 205 179 259.5 225 c 128,-1,18
 314 271 314 271 346 316 c 1,19,20
 351 308 351 308 351 294 c 0,21,22
 351 235 351 235 182 147 c 1,23,24
 210 127 210 127 225 117 c 128,-1,25
 240 107 240 107 270 92 c 128,-1,26
 300 77 300 77 344 60 c 1,27,28
 330 44 330 44 315 44 c 0,29,30
 279 44 279 44 221.5 86 c 128,-1,31
 164 128 164 128 156 158 c 1,16,17
EndSplineSet
EndChar

StartChar: logicalnot
Encoding: 172 172 109
Width: 667
GlyphClass: 2
Flags: W
LayerCount: 2
Fore
SplineSet
44 184 m 1,0,1
 73 233 73 233 346 233 c 0,2,3
 432 233 432 233 501 230 c 1,4,5
 506 261 506 261 529 282 c 1,6,7
 529 279 529 279 531.5 260.5 c 128,-1,8
 534 242 534 242 535 228 c 1,9,10
 552 228 552 228 615 224 c 1,11,12
 585 210 585 210 537 201 c 1,13,14
 537 195 537 195 537.5 183 c 128,-1,15
 538 171 538 171 538 165 c 0,16,17
 538 45 538 45 489 33 c 1,18,19
 493 50 493 50 495 62.5 c 128,-1,20
 497 75 497 75 498 91.5 c 128,-1,21
 499 108 499 108 499.5 118 c 128,-1,22
 500 128 500 128 500 155 c 2,23,-1
 500 197 l 1,24,25
 482 195 482 195 450 195 c 0,26,27
 391 194 391 194 316 194 c 2,28,-1
 211 194 l 2,29,30
 182 194 182 194 138 191.5 c 128,-1,31
 94 189 94 189 44 184 c 1,0,1
EndSplineSet
EndChar

StartChar: uni00AD
Encoding: 173 173 110
Width: 484
GlyphClass: 2
Flags: W
LayerCount: 2
Fore
SplineSet
35 144 m 1,0,1
 53 193 53 193 224 193 c 0,2,3
 305 193 305 193 392 184 c 1,4,5
 368 168 368 168 327.5 161.5 c 128,-1,6
 287 155 287 155 188 155 c 0,7,8
 102 155 102 155 35 144 c 1,0,1
EndSplineSet
EndChar

StartChar: registered
Encoding: 174 174 111
Width: 592
GlyphClass: 2
Flags: W
LayerCount: 2
Fore
SplineSet
79 358 m 0,0,1
 79 482 79 482 156 551 c 128,-1,2
 233 620 233 620 327 620 c 128,-1,3
 421 620 421 620 496 551.5 c 128,-1,4
 571 483 571 483 571 362 c 0,5,6
 571 238 571 238 494 169 c 128,-1,7
 417 100 417 100 323 100 c 128,-1,8
 229 100 229 100 154 168.5 c 128,-1,9
 79 237 79 237 79 358 c 0,0,1
107 358 m 0,10,11
 107 257 107 257 167 192.5 c 128,-1,12
 227 128 227 128 323 128 c 128,-1,13
 419 128 419 128 481 193 c 128,-1,14
 543 258 543 258 543 362 c 0,15,16
 543 463 543 463 483 527.5 c 128,-1,17
 423 592 423 592 327 592 c 128,-1,18
 231 592 231 592 169 527 c 128,-1,19
 107 462 107 462 107 358 c 0,10,11
251 224 m 2,20,-1
 251 508 l 2,21,22
 251 513 251 513 255.5 517 c 128,-1,23
 260 521 260 521 266 521 c 2,24,-1
 329 521 l 2,25,26
 415 521 415 521 415 437 c 0,27,28
 415 368 415 368 355 355 c 1,29,-1
 413 231 l 2,30,31
 415 227 415 227 415 224 c 0,32,33
 415 210 415 210 401 210 c 0,34,35
 397 210 397 210 392.5 214 c 128,-1,36
 388 218 388 218 385.5 222 c 128,-1,37
 383 226 383 226 380 232 c 2,38,-1
 376 239 l 1,39,-1
 323 353 l 1,40,-1
 282 353 l 1,41,-1
 282 224 l 2,42,43
 282 210 282 210 267 210 c 0,44,45
 251 210 251 210 251 224 c 2,20,-1
282 379 m 1,46,-1
 329 379 l 2,47,48
 384 379 384 379 384 437 c 0,49,50
 384 494 384 494 329 494 c 2,51,-1
 282 494 l 1,52,-1
 282 379 l 1,46,-1
EndSplineSet
EndChar

StartChar: degree
Encoding: 176 176 112
Width: 265
GlyphClass: 2
Flags: W
LayerCount: 2
Fore
SplineSet
92 450 m 0,0,1
 92 488 92 488 129 525 c 128,-1,2
 166 562 166 562 214 562 c 0,3,4
 290 562 290 562 290 508 c 0,5,6
 290 470 290 470 251.5 433 c 128,-1,7
 213 396 213 396 164 396 c 0,8,9
 92 396 92 396 92 450 c 0,0,1
124 450 m 0,10,11
 124 413 124 413 169 413 c 0,12,13
 200 413 200 413 230 446 c 128,-1,14
 260 479 260 479 260 509 c 0,15,16
 260 545 260 545 214 545 c 0,17,18
 182 545 182 545 153 513 c 128,-1,19
 124 481 124 481 124 450 c 0,10,11
EndSplineSet
EndChar

StartChar: plusminus
Encoding: 177 177 113
Width: 449
GlyphClass: 2
Flags: W
LayerCount: 2
Fore
SplineSet
54 84 m 1,0,1
 70 123 70 123 224 123 c 0,2,3
 314 123 314 123 375 116 c 1,4,5
 337 93 337 93 222 93 c 0,6,7
 119 93 119 93 54 84 c 1,0,1
54 289 m 1,8,9
 68 325 68 325 197 328 c 1,10,-1
 197 368 l 2,11,12
 197 419 197 419 223 450 c 1,13,14
 230 402 230 402 231 328 c 1,15,16
 302 327 302 327 375 321 c 1,17,18
 339 297 339 297 282 297 c 2,19,-1
 231 297 l 1,20,21
 228 179 228 179 187 165 c 1,22,23
 197 219 197 219 197 297 c 1,24,25
 110 297 110 297 54 289 c 1,8,9
EndSplineSet
EndChar

StartChar: uni00B2
Encoding: 178 178 114
Width: 354
GlyphClass: 2
Flags: W
LayerCount: 2
Fore
SplineSet
72 349 m 0,0,1
 72 375 72 375 113 375 c 0,2,3
 129 375 129 375 164 368 c 1,4,5
 213 411 213 411 253.5 486 c 128,-1,6
 294 561 294 561 294 623 c 0,7,8
 294 691 294 691 245 691 c 0,9,10
 216 691 216 691 198.5 663 c 128,-1,11
 181 635 181 635 181 593 c 0,12,13
 181 577 181 577 188 557 c 1,14,-1
 180 557 l 1,15,16
 160 563 160 563 151 573 c 128,-1,17
 142 583 142 583 142 603 c 0,18,19
 142 645 142 645 174 676.5 c 128,-1,20
 206 708 206 708 253 708 c 0,21,22
 290 708 290 708 313.5 681.5 c 128,-1,23
 337 655 337 655 337 616 c 0,24,25
 337 553 337 553 295 481 c 128,-1,26
 253 409 253 409 196 362 c 1,27,-1
 204 360 l 2,28,29
 272 344 272 344 295 344 c 0,30,31
 311 344 311 344 339 362 c 1,32,33
 324 304 324 304 282 304 c 0,34,35
 253 304 253 304 185 333 c 2,36,-1
 166 341 l 1,37,38
 134 320 134 320 110 320 c 0,39,40
 93 320 93 320 82.5 328 c 128,-1,41
 72 336 72 336 72 349 c 0,0,1
95 348 m 128,-1,43
 95 338 95 338 109 338 c 0,44,45
 119 338 119 338 140 351 c 1,46,47
 122 358 122 358 109 358 c 0,48,42
 95 358 95 358 95 348 c 128,-1,43
EndSplineSet
EndChar

StartChar: uni00B3
Encoding: 179 179 115
Width: 294
GlyphClass: 2
Flags: W
LayerCount: 2
Fore
SplineSet
81 387 m 0,0,1
 81 408 81 408 93 425 c 128,-1,2
 105 442 105 442 126 442 c 0,3,4
 134 442 134 442 140 440 c 1,5,6
 123 426 123 426 123 393 c 0,7,8
 123 369 123 369 136 351.5 c 128,-1,9
 149 334 149 334 171 334 c 0,10,11
 200 334 200 334 224 365 c 128,-1,12
 248 396 248 396 248 442 c 0,13,14
 248 518 248 518 189 533 c 1,15,16
 226 549 226 549 249.5 585.5 c 128,-1,17
 273 622 273 622 273 654 c 0,18,19
 273 701 273 701 232 701 c 0,20,21
 211 701 211 701 195 687 c 128,-1,22
 179 673 179 673 179 649 c 0,23,24
 179 635 179 635 187 616 c 1,25,26
 179 600 179 600 163 600 c 0,27,28
 153 600 153 600 147.5 613 c 128,-1,29
 142 626 142 626 142 641 c 0,30,31
 142 676 142 676 171 697 c 128,-1,32
 200 718 200 718 238 718 c 0,33,34
 271 718 271 718 294.5 700.5 c 128,-1,35
 318 683 318 683 318 652 c 0,36,37
 318 619 318 619 294.5 584.5 c 128,-1,38
 271 550 271 550 236 538 c 1,39,40
 272 526 272 526 289 498.5 c 128,-1,41
 306 471 306 471 306 442 c 0,42,43
 306 393 306 393 265 353.5 c 128,-1,44
 224 314 224 314 166 314 c 0,45,46
 123 314 123 314 102 336.5 c 128,-1,47
 81 359 81 359 81 387 c 0,0,1
EndSplineSet
EndChar

StartChar: acute
Encoding: 180 180 116
Width: 125
GlyphClass: 2
Flags: W
LayerCount: 2
Fore
SplineSet
88 436 m 0,0,1
 88 457 88 457 126.5 507 c 128,-1,2
 165 557 165 557 192 557 c 0,3,4
 211 557 211 557 214 526 c 1,5,6
 140 462 140 462 102 410 c 1,7,8
 88 417 88 417 88 436 c 0,0,1
EndSplineSet
EndChar

StartChar: uni00B5
Encoding: 181 181 117
Width: 584
GlyphClass: 2
Flags: W
LayerCount: 2
Fore
SplineSet
-40 -242 m 1,0,1
 -29 -202 -29 -202 4 -116 c 128,-1,2
 37 -30 37 -30 60 73 c 128,-1,3
 83 176 83 176 105 356 c 0,4,5
 106 366 106 366 109.5 369.5 c 128,-1,6
 113 373 113 373 124 373 c 0,7,8
 148 373 148 373 160 359.5 c 128,-1,9
 172 346 172 346 172 327 c 1,10,11
 124 112 124 112 124 60 c 0,12,13
 124 10 124 10 153 10 c 0,14,15
 166 10 166 10 180.5 20 c 128,-1,16
 195 30 195 30 210 49.5 c 128,-1,17
 225 69 225 69 238.5 88.5 c 128,-1,18
 252 108 252 108 268 137 c 1,19,-1
 293 186 l 1,20,-1
 317 234 l 1,21,22
 330 263 330 263 335 271 c 1,23,24
 383 262 383 262 383 245 c 0,25,26
 383 242 383 242 366.5 204.5 c 128,-1,27
 350 167 350 167 333 118 c 128,-1,28
 316 69 316 69 316 40 c 0,29,30
 316 0 316 0 349 0 c 0,31,32
 383 0 383 0 432 44.5 c 128,-1,33
 481 89 481 89 516 162 c 1,34,-1
 529 153 l 1,35,36
 497 73 497 73 439.5 21.5 c 128,-1,37
 382 -30 382 -30 328 -30 c 0,38,39
 258 -30 258 -30 258 44 c 0,40,41
 258 64 258 64 265 94 c 1,42,43
 195 -30 195 -30 134 -30 c 0,44,45
 109 -30 109 -30 92 -13 c 1,46,47
 17 -280 17 -280 -9 -280 c 0,48,49
 -21 -280 -21 -280 -30.5 -264 c 128,-1,50
 -40 -248 -40 -248 -40 -242 c 1,0,1
EndSplineSet
EndChar

StartChar: paragraph
Encoding: 182 182 118
Width: 644
GlyphClass: 2
Flags: W
LayerCount: 2
Fore
SplineSet
61 336 m 0,0,1
 61 406 61 406 111.5 461.5 c 128,-1,2
 162 517 162 517 230.5 545 c 128,-1,3
 299 573 299 573 372 579 c 1,4,5
 370 653 370 653 363 708 c 1,6,7
 379 716 379 716 392 716 c 128,-1,8
 405 716 405 716 413 707 c 128,-1,9
 421 698 421 698 424 680.5 c 128,-1,10
 427 663 427 663 428 647.5 c 128,-1,11
 429 632 429 632 429 609.5 c 128,-1,12
 429 587 429 587 430 578 c 1,13,-1
 472 572 l 1,14,15
 470 661 470 661 466 708 c 1,16,17
 478 716 478 716 492 716 c 0,18,19
 520 716 520 716 528 558 c 1,20,21
 576 542 576 542 611 525 c 1,22,23
 608 518 608 518 592 508 c 128,-1,24
 576 498 576 498 570 498 c 0,25,26
 569 498 569 498 529 519 c 1,27,28
 530 502 530 502 530 468 c 0,29,30
 530 324 530 324 527 205.5 c 128,-1,31
 524 87 524 87 520.5 31 c 128,-1,32
 517 -25 517 -25 514 -37 c 1,33,34
 506 -60 506 -60 487 -73.5 c 128,-1,35
 468 -87 468 -87 446 -87 c 1,36,37
 449 -81 449 -81 455 21.5 c 128,-1,38
 461 124 461 124 466.5 276.5 c 128,-1,39
 472 429 472 429 472 541 c 2,40,-1
 472 545 l 1,41,42
 455 550 455 550 431 555 c 1,43,44
 434 480 434 480 434 334 c 0,45,46
 434 231 434 231 430.5 143.5 c 128,-1,47
 427 56 427 56 423.5 14 c 128,-1,48
 420 -28 420 -28 417 -37 c 0,49,50
 409 -58 409 -58 382.5 -72.5 c 128,-1,51
 356 -87 356 -87 329 -87 c 1,52,53
 332 -50 332 -50 339.5 33 c 128,-1,54
 347 116 347 116 350 156 c 1,55,56
 320 157 320 157 288.5 161.5 c 128,-1,57
 257 166 257 166 214 178.5 c 128,-1,58
 171 191 171 191 139 209.5 c 128,-1,59
 107 228 107 228 84 261 c 128,-1,60
 61 294 61 294 61 336 c 0,0,1
EndSplineSet
EndChar

StartChar: periodcentered
Encoding: 183 183 119
Width: 209
GlyphClass: 2
Flags: W
LayerCount: 2
Fore
SplineSet
38 151 m 0,0,1
 38 167 38 167 57 179.5 c 128,-1,2
 76 192 76 192 96 192 c 0,3,4
 122 192 122 192 122 168 c 0,5,6
 122 153 122 153 105.5 138.5 c 128,-1,7
 89 124 89 124 70 124 c 0,8,9
 38 124 38 124 38 151 c 0,0,1
EndSplineSet
EndChar

StartChar: cedilla
Encoding: 184 184 120
Width: 217
GlyphClass: 2
Flags: W
LayerCount: 2
Fore
SplineSet
20 -137 m 0,0,1
 20 -120 20 -120 42 -104 c 1,2,3
 52 -149 52 -149 84 -149 c 0,4,5
 112 -149 112 -149 139.5 -119 c 128,-1,6
 167 -89 167 -89 167 -62 c 0,7,8
 167 -37 167 -37 150 -37 c 0,9,10
 135 -37 135 -37 102 -57.5 c 128,-1,11
 69 -78 69 -78 65 -78 c 0,12,13
 59 -78 59 -78 55 -72 c 128,-1,14
 51 -66 51 -66 51 -60 c 0,15,16
 51 -57 51 -57 72 -28 c 128,-1,17
 93 1 93 1 104 11 c 1,18,-1
 139 38 l 1,19,-1
 86 -43 l 1,20,21
 120 -19 120 -19 153 -19 c 0,22,23
 198 -19 198 -19 198 -61 c 0,24,25
 198 -104 198 -104 162.5 -138.5 c 128,-1,26
 127 -173 127 -173 81 -173 c 0,27,28
 53 -173 53 -173 36.5 -162.5 c 128,-1,29
 20 -152 20 -152 20 -137 c 0,0,1
EndSplineSet
EndChar

StartChar: uni00B9
Encoding: 185 185 121
Width: 259
GlyphClass: 2
Flags: W
LayerCount: 2
Fore
SplineSet
66 338 m 1,0,-1
 78 338 l 2,1,2
 80 338 80 338 83 337.5 c 128,-1,3
 86 337 86 337 87 337 c 0,4,5
 109 337 109 337 137 342 c 1,6,7
 155 383 155 383 177.5 503 c 128,-1,8
 200 623 200 623 205 640 c 1,9,10
 165 614 165 614 154 614 c 0,11,12
 139 614 139 614 139 632 c 1,13,14
 153 639 153 639 186 665 c 128,-1,15
 219 691 219 691 244 717 c 1,16,-1
 250 717 l 1,17,18
 255 712 255 712 255 701 c 128,-1,19
 255 690 255 690 249 668 c 0,20,21
 245 651 245 651 231 583 c 2,22,-1
 212 488 l 1,23,-1
 199 426 l 2,24,25
 186 365 186 365 171 347 c 1,26,27
 176 348 176 348 184 348 c 0,28,29
 230 348 230 348 236 316 c 1,30,31
 210 318 210 318 193 318 c 0,32,33
 175 318 175 318 148.5 316 c 128,-1,34
 122 314 122 314 109 314 c 0,35,36
 82 314 82 314 66 338 c 1,0,-1
EndSplineSet
EndChar

StartChar: ordmasculine
Encoding: 186 186 122
Width: 279
GlyphClass: 2
Flags: W
LayerCount: 2
Fore
SplineSet
107 512 m 0,0,1
 107 573 107 573 162 646.5 c 128,-1,2
 217 720 217 720 277 720 c 0,3,4
 300 720 300 720 307 706 c 1,5,6
 321 706 321 706 328.5 697.5 c 128,-1,7
 336 689 336 689 336 679 c 0,8,9
 336 673 336 673 322 642.5 c 128,-1,10
 308 612 308 612 308 591 c 0,11,12
 308 575 308 575 328 575 c 0,13,14
 331 575 331 575 355 578 c 1,15,16
 344 558 344 558 314 558 c 0,17,18
 295 558 295 558 288 571 c 1,19,20
 265 517 265 517 232 484.5 c 128,-1,21
 199 452 199 452 163 452 c 0,22,23
 137 452 137 452 122 468.5 c 128,-1,24
 107 485 107 485 107 512 c 0,0,1
152 517 m 0,25,26
 152 482 152 482 179 482 c 0,27,28
 202 482 202 482 231 513 c 128,-1,29
 260 544 260 544 279 589 c 1,30,31
 275 605 275 605 275 629 c 0,32,33
 275 674 275 674 288 693 c 1,34,35
 234 693 234 693 193 629.5 c 128,-1,36
 152 566 152 566 152 517 c 0,25,26
EndSplineSet
EndChar

StartChar: guillemotright
Encoding: 187 187 123
Width: 454
GlyphClass: 2
Flags: W
LayerCount: 2
Fore
SplineSet
51 294 m 0,0,1
 51 308 51 308 56 316 c 1,2,3
 88 271 88 271 142.5 225 c 128,-1,4
 197 179 197 179 246 158 c 1,5,6
 238 128 238 128 180.5 86 c 128,-1,7
 123 44 123 44 87 44 c 0,8,9
 72 44 72 44 58 60 c 1,10,11
 102 77 102 77 132 92 c 128,-1,12
 162 107 162 107 177 117 c 2,13,-1
 220 147 l 1,14,15
 51 235 51 235 51 294 c 0,0,1
201 294 m 0,16,17
 201 308 201 308 206 316 c 1,18,19
 238 271 238 271 292.5 225 c 128,-1,20
 347 179 347 179 396 158 c 1,21,22
 388 128 388 128 330.5 86 c 128,-1,23
 273 44 273 44 237 44 c 0,24,25
 222 44 222 44 208 60 c 1,26,27
 252 77 252 77 282 92 c 128,-1,28
 312 107 312 107 327 117 c 2,29,-1
 370 147 l 1,30,31
 201 235 201 235 201 294 c 0,16,17
EndSplineSet
EndChar

StartChar: onequarter
Encoding: 188 188 124
Width: 642
GlyphClass: 2
Flags: W
LayerCount: 2
Fore
SplineSet
45 -87 m 1,0,1
 112 -20 112 -20 265.5 255 c 128,-1,2
 419 530 419 530 475 675 c 0,3,4
 480 690 480 690 508 705 c 128,-1,5
 536 720 536 720 559 720 c 1,6,7
 540 672 540 672 415 432.5 c 128,-1,8
 290 193 290 193 230 97 c 0,9,10
 173 6 173 6 129 -40.5 c 128,-1,11
 85 -87 85 -87 45 -87 c 1,0,1
66 338 m 1,12,-1
 78 338 l 2,13,14
 80 338 80 338 83 337.5 c 128,-1,15
 86 337 86 337 87 337 c 0,16,17
 109 337 109 337 137 342 c 1,18,19
 155 383 155 383 177.5 503 c 128,-1,20
 200 623 200 623 205 640 c 1,21,22
 165 614 165 614 154 614 c 0,23,24
 139 614 139 614 139 632 c 1,25,26
 153 639 153 639 186 665 c 128,-1,27
 219 691 219 691 244 717 c 1,28,-1
 250 717 l 1,29,30
 255 712 255 712 255 701 c 128,-1,31
 255 690 255 690 249 668 c 0,32,33
 245 651 245 651 231 583 c 2,34,-1
 212 488 l 1,35,-1
 199 426 l 2,36,37
 186 365 186 365 171 347 c 1,38,39
 176 348 176 348 184 348 c 0,40,41
 230 348 230 348 236 316 c 1,42,43
 210 318 210 318 193 318 c 0,44,45
 175 318 175 318 148.5 316 c 128,-1,46
 122 314 122 314 109 314 c 0,47,48
 82 314 82 314 66 338 c 1,12,-1
350 126 m 1,49,50
 350 141 350 141 360 151 c 0,51,52
 525 297 525 297 569 377 c 1,53,54
 582 375 582 375 582 363 c 0,55,56
 582 360 582 360 576.5 340.5 c 128,-1,57
 571 321 571 321 559.5 272.5 c 128,-1,58
 548 224 548 224 536 164 c 1,59,-1
 553 164 l 2,60,61
 564 164 564 164 589 169 c 1,62,63
 564 134 564 134 538 134 c 2,64,-1
 531 134 l 1,65,66
 510 29 510 29 510 -26 c 1,67,68
 462 -23 462 -23 462 0 c 0,69,70
 462 19 462 19 487 134 c 1,71,72
 483 134 483 134 477 134.5 c 128,-1,73
 471 135 471 135 468 135 c 2,74,-1
 451 135 l 2,75,76
 390 135 390 135 350 126 c 1,49,50
405 165 m 1,77,78
 429 167 429 167 448 167 c 0,79,80
 453 167 453 167 462.5 166.5 c 128,-1,81
 472 166 472 166 476 166 c 2,82,-1
 495 166 l 1,83,-1
 500 189 l 1,84,85
 512 249 512 249 522 279 c 1,86,-1
 478 236 l 1,87,88
 414 175 414 175 405 165 c 1,77,78
EndSplineSet
EndChar

StartChar: onehalf
Encoding: 189 189 125
Width: 698
GlyphClass: 2
Flags: W
LayerCount: 2
Fore
SplineSet
51 -87 m 1,0,1
 118 -20 118 -20 271.5 255 c 128,-1,2
 425 530 425 530 481 675 c 0,3,4
 486 690 486 690 514 705 c 128,-1,5
 542 720 542 720 565 720 c 1,6,7
 546 672 546 672 421 432.5 c 128,-1,8
 296 193 296 193 236 97 c 0,9,10
 179 6 179 6 135 -40.5 c 128,-1,11
 91 -87 91 -87 51 -87 c 1,0,1
72 338 m 1,12,-1
 84 338 l 2,13,14
 86 338 86 338 89 337.5 c 128,-1,15
 92 337 92 337 93 337 c 0,16,17
 115 337 115 337 143 342 c 1,18,19
 161 383 161 383 183.5 503 c 128,-1,20
 206 623 206 623 211 640 c 1,21,22
 171 614 171 614 160 614 c 0,23,24
 145 614 145 614 145 632 c 1,25,26
 159 639 159 639 192 665 c 128,-1,27
 225 691 225 691 250 717 c 1,28,-1
 256 717 l 1,29,30
 261 712 261 712 261 701 c 128,-1,31
 261 690 261 690 255 668 c 0,32,33
 251 651 251 651 237.5 583.5 c 128,-1,34
 224 516 224 516 218 488 c 2,35,-1
 205 426 l 2,36,37
 192 365 192 365 177 347 c 1,38,39
 182 348 182 348 190 348 c 0,40,41
 236 348 236 348 242 316 c 1,42,43
 216 318 216 318 199 318 c 0,44,45
 181 318 181 318 154.5 316 c 128,-1,46
 128 314 128 314 115 314 c 0,47,48
 89 314 89 314 72 338 c 1,12,-1
345 19 m 0,49,50
 345 45 345 45 386 45 c 0,51,52
 402 45 402 45 437 38 c 1,53,54
 486 81 486 81 526.5 156 c 128,-1,55
 567 231 567 231 567 293 c 0,56,57
 567 361 567 361 518 361 c 0,58,59
 489 361 489 361 471.5 333 c 128,-1,60
 454 305 454 305 454 263 c 0,61,62
 454 247 454 247 461 227 c 1,63,-1
 453 227 l 1,64,65
 433 233 433 233 424 243 c 128,-1,66
 415 253 415 253 415 273 c 0,67,68
 415 315 415 315 447 346.5 c 128,-1,69
 479 378 479 378 526 378 c 0,70,71
 563 378 563 378 586.5 351.5 c 128,-1,72
 610 325 610 325 610 286 c 0,73,74
 610 223 610 223 568 151 c 128,-1,75
 526 79 526 79 469 32 c 1,76,-1
 477 30 l 2,77,78
 545 14 545 14 568 14 c 0,79,80
 584 14 584 14 612 32 c 1,81,82
 598 -26 598 -26 555 -26 c 0,83,84
 526 -26 526 -26 458 3 c 2,85,-1
 439 11 l 1,86,87
 408 -10 408 -10 383 -10 c 0,88,89
 366 -10 366 -10 355.5 -2 c 128,-1,90
 345 6 345 6 345 19 c 0,49,50
368 18 m 128,-1,92
 368 8 368 8 382 8 c 0,93,94
 392 8 392 8 413 21 c 1,95,96
 395 28 395 28 382 28 c 0,97,91
 368 28 368 28 368 18 c 128,-1,92
EndSplineSet
EndChar

StartChar: threequarters
Encoding: 190 190 126
Width: 685
GlyphClass: 2
Flags: W
LayerCount: 2
Fore
SplineSet
83 387 m 0,0,1
 83 408 83 408 95 425 c 128,-1,2
 107 442 107 442 128 442 c 0,3,4
 136 442 136 442 142 440 c 1,5,6
 125 426 125 426 125 393 c 0,7,8
 125 369 125 369 138 351.5 c 128,-1,9
 151 334 151 334 173 334 c 0,10,11
 202 334 202 334 226 365 c 128,-1,12
 250 396 250 396 250 442 c 0,13,14
 250 518 250 518 191 533 c 1,15,16
 228 549 228 549 251.5 585.5 c 128,-1,17
 275 622 275 622 275 654 c 0,18,19
 275 701 275 701 234 701 c 0,20,21
 213 701 213 701 197 687 c 128,-1,22
 181 673 181 673 181 649 c 0,23,24
 181 635 181 635 189 616 c 1,25,26
 181 600 181 600 165 600 c 0,27,28
 155 600 155 600 149.5 613 c 128,-1,29
 144 626 144 626 144 641 c 0,30,31
 144 676 144 676 173 697 c 128,-1,32
 202 718 202 718 240 718 c 0,33,34
 273 718 273 718 296.5 700.5 c 128,-1,35
 320 683 320 683 320 652 c 0,36,37
 320 619 320 619 296.5 584.5 c 128,-1,38
 273 550 273 550 238 538 c 1,39,40
 274 526 274 526 291 498.5 c 128,-1,41
 308 471 308 471 308 442 c 0,42,43
 308 393 308 393 267 353.5 c 128,-1,44
 226 314 226 314 168 314 c 0,45,46
 125 314 125 314 104 336.5 c 128,-1,47
 83 359 83 359 83 387 c 0,0,1
88 -87 m 1,48,49
 155 -20 155 -20 308.5 255 c 128,-1,50
 462 530 462 530 518 675 c 0,51,52
 523 690 523 690 551 705 c 128,-1,53
 579 720 579 720 602 720 c 1,54,55
 583 672 583 672 458 432.5 c 128,-1,56
 333 193 333 193 273 97 c 0,57,58
 216 6 216 6 172 -40.5 c 128,-1,59
 128 -87 128 -87 88 -87 c 1,48,49
393 126 m 1,60,61
 393 141 393 141 403 151 c 0,62,63
 568 297 568 297 612 377 c 1,64,65
 625 375 625 375 625 363 c 0,66,67
 625 360 625 360 619.5 340.5 c 128,-1,68
 614 321 614 321 602.5 272.5 c 128,-1,69
 591 224 591 224 579 164 c 1,70,-1
 596 164 l 2,71,72
 607 164 607 164 632 169 c 1,73,74
 607 134 607 134 581 134 c 2,75,-1
 574 134 l 1,76,77
 553 29 553 29 553 -26 c 1,78,79
 505 -23 505 -23 505 0 c 0,80,81
 505 19 505 19 530 134 c 1,82,83
 526 134 526 134 520 134.5 c 128,-1,84
 514 135 514 135 511 135 c 2,85,-1
 494 135 l 2,86,87
 434 135 434 135 393 126 c 1,60,61
448 165 m 1,88,89
 472 167 472 167 491 167 c 0,90,91
 496 167 496 167 505.5 166.5 c 128,-1,92
 515 166 515 166 519 166 c 2,93,-1
 538 166 l 1,94,-1
 543 189 l 1,95,96
 555 249 555 249 565 279 c 1,97,-1
 521 236 l 1,98,99
 457 175 457 175 448 165 c 1,88,89
EndSplineSet
EndChar

StartChar: questiondown
Encoding: 191 191 127
Width: 415
GlyphClass: 2
Flags: W
LayerCount: 2
Fore
SplineSet
-50 -161 m 0,0,1
 -50 -124 -50 -124 -34 -91.5 c 128,-1,2
 -18 -59 -18 -59 6 -32 c 1,3,-1
 57 20 l 2,4,5
 83 46 83 46 108 81 c 128,-1,6
 133 116 133 116 145 154 c 0,7,8
 151 172 151 172 156.5 206 c 128,-1,9
 162 240 162 240 170 256 c 1,10,11
 189 247 189 247 195 239 c 128,-1,12
 201 231 201 231 201 214 c 0,13,14
 201 175 201 175 181.5 137 c 128,-1,15
 162 99 162 99 134 68 c 2,16,-1
 77 5 l 2,17,18
 48 -27 48 -27 29 -68 c 128,-1,19
 10 -109 10 -109 10 -153 c 0,20,21
 10 -202 10 -202 32 -228.5 c 128,-1,22
 54 -255 54 -255 89 -255 c 0,23,24
 144 -255 144 -255 192 -198 c 128,-1,25
 240 -141 240 -141 240 -64 c 0,26,27
 240 -43 240 -43 233 -13 c 1,28,29
 269 -18 269 -18 282 -35 c 128,-1,30
 295 -52 295 -52 295 -82 c 0,31,32
 295 -161 295 -161 235 -220.5 c 128,-1,33
 175 -280 175 -280 85 -280 c 0,34,35
 22 -280 22 -280 -14 -249 c 128,-1,36
 -50 -218 -50 -218 -50 -161 c 0,0,1
156 344 m 0,37,38
 156 361 156 361 172 375.5 c 128,-1,39
 188 390 188 390 208 390 c 0,40,41
 221 390 221 390 230.5 383 c 128,-1,42
 240 376 240 376 240 364 c 0,43,44
 240 347 240 347 221.5 334.5 c 128,-1,45
 203 322 203 322 182 322 c 0,46,47
 156 322 156 322 156 344 c 0,37,38
EndSplineSet
EndChar

StartChar: Adieresis
Encoding: 196 196 132
Width: 592
GlyphClass: 2
Flags: W
LayerCount: 2
Fore
SplineSet
-17 -35 m 0,0,1
 -17 40 -17 40 135 278 c 1,2,3
 74 283 74 283 27 283 c 2,4,-1
 -8 283 l 1,5,6
 11 335 11 335 96 335 c 0,7,8
 122 335 122 335 168 328 c 1,9,10
 245 444 245 444 324.5 546.5 c 128,-1,11
 404 649 404 649 450 692 c 0,12,13
 479 720 479 720 498 720 c 0,14,15
 519 720 519 720 551 688 c 1,16,17
 518 662 518 662 456.5 439.5 c 128,-1,18
 395 217 395 217 395 94 c 0,19,20
 395 14 395 14 432 14 c 0,21,22
 487 14 487 14 563 162 c 1,23,-1
 573 152 l 1,24,25
 542 70 542 70 495.5 20 c 128,-1,26
 449 -30 449 -30 400 -30 c 0,27,28
 322 -30 322 -30 322 104 c 0,29,30
 322 168 322 168 339 253 c 1,31,32
 275 263 275 263 191 273 c 1,33,34
 93 93 93 93 17 -87 c 1,35,36
 -17 -68 -17 -68 -17 -35 c 0,0,1
217 319 m 1,37,-1
 290 302 l 2,38,39
 337 291 337 291 346 288 c 1,40,41
 388 485 388 485 466 657 c 1,42,43
 375 601 375 601 217 319 c 1,37,-1
411 804 m 0,44,45
 411 822 411 822 432.5 836.5 c 128,-1,46
 454 851 454 851 477 851 c 0,47,48
 507 851 507 851 507 823 c 0,49,50
 507 806 507 806 488.5 790 c 128,-1,51
 470 774 470 774 448 774 c 0,52,53
 411 774 411 774 411 804 c 0,44,45
555 783 m 0,54,55
 555 801 555 801 576.5 815.5 c 128,-1,56
 598 830 598 830 621 830 c 0,57,58
 651 830 651 830 651 802 c 0,59,60
 651 785 651 785 632.5 769 c 128,-1,61
 614 753 614 753 592 753 c 0,62,63
 555 753 555 753 555 783 c 0,54,55
EndSplineSet
EndChar

StartChar: Aring
Encoding: 197 197 133
Width: 592
GlyphClass: 2
Flags: W
LayerCount: 2
Fore
SplineSet
-17 -35 m 0,0,1
 -17 40 -17 40 135 278 c 1,2,3
 74 283 74 283 27 283 c 2,4,-1
 -8 283 l 1,5,6
 11 335 11 335 96 335 c 0,7,8
 122 335 122 335 168 328 c 1,9,10
 245 444 245 444 324.5 546.5 c 128,-1,11
 404 649 404 649 450 692 c 0,12,13
 479 720 479 720 498 720 c 0,14,15
 519 720 519 720 551 688 c 1,16,17
 518 662 518 662 456.5 439.5 c 128,-1,18
 395 217 395 217 395 94 c 0,19,20
 395 14 395 14 432 14 c 0,21,22
 487 14 487 14 563 162 c 1,23,-1
 573 152 l 1,24,25
 542 70 542 70 495.5 20 c 128,-1,26
 449 -30 449 -30 400 -30 c 0,27,28
 322 -30 322 -30 322 104 c 0,29,30
 322 168 322 168 339 253 c 1,31,32
 275 263 275 263 191 273 c 1,33,34
 93 93 93 93 17 -87 c 1,35,36
 -17 -68 -17 -68 -17 -35 c 0,0,1
217 319 m 1,37,-1
 290 302 l 2,38,39
 337 291 337 291 346 288 c 1,40,41
 388 485 388 485 466 657 c 1,42,43
 375 601 375 601 217 319 c 1,37,-1
452 808 m 0,44,45
 452 846 452 846 489 883 c 128,-1,46
 526 920 526 920 574 920 c 0,47,48
 650 920 650 920 650 866 c 0,49,50
 650 828 650 828 611.5 791 c 128,-1,51
 573 754 573 754 524 754 c 0,52,53
 452 754 452 754 452 808 c 0,44,45
491 815 m 0,54,55
 491 800 491 800 502 787 c 128,-1,56
 513 774 513 774 533 774 c 0,57,58
 561 774 561 774 587 803.5 c 128,-1,59
 613 833 613 833 613 860 c 0,60,61
 613 875 613 875 601.5 886 c 128,-1,62
 590 897 590 897 569 897 c 0,63,64
 540 897 540 897 515.5 870 c 128,-1,65
 491 843 491 843 491 815 c 0,54,55
EndSplineSet
EndChar

StartChar: AE
Encoding: 198 198 134
Width: 747
GlyphClass: 2
Flags: W
LayerCount: 2
Fore
SplineSet
-17 -35 m 0,0,1
 -17 40 -17 40 135 278 c 1,2,3
 74 283 74 283 27 283 c 2,4,-1
 -8 283 l 1,5,6
 11 335 11 335 96 335 c 0,7,8
 122 335 122 335 168 328 c 1,9,10
 276 490 276 490 371 605 c 128,-1,11
 466 720 466 720 498 720 c 0,12,13
 646 720 646 720 807 697 c 1,14,15
 794 661 794 661 637 661 c 0,16,17
 596 661 596 661 534 663 c 1,18,19
 496 588 496 588 450 415 c 1,20,21
 491 414 491 414 529 410 c 128,-1,22
 567 406 567 406 610.5 399.5 c 128,-1,23
 654 393 654 393 658 392 c 1,24,25
 645 356 645 356 488 356 c 0,26,27
 449 356 449 356 435 357 c 1,28,29
 395 187 395 187 395 94 c 0,30,31
 395 70 395 70 398 53 c 1,32,33
 437 47 437 47 541.5 38 c 128,-1,34
 646 29 646 29 670 23 c 1,35,36
 657 -13 657 -13 500 -13 c 0,37,38
 389 -13 389 -13 351 -9 c 1,39,40
 322 20 322 20 322 104 c 0,41,42
 322 168 322 168 339 253 c 1,43,44
 275 263 275 263 191 273 c 1,45,46
 93 93 93 93 17 -87 c 1,47,48
 -17 -68 -17 -68 -17 -35 c 0,0,1
217 319 m 1,49,-1
 290 302 l 2,50,51
 337 291 337 291 346 288 c 1,52,53
 388 485 388 485 466 657 c 1,54,55
 375 601 375 601 217 319 c 1,49,-1
EndSplineSet
EndChar

StartChar: Ccedilla
Encoding: 199 199 135
Width: 562
GlyphClass: 2
Flags: W
LayerCount: 2
Fore
SplineSet
22 157 m 0,0,1
 22 253 22 253 60 355.5 c 128,-1,2
 98 458 98 458 156 537.5 c 128,-1,3
 214 617 214 617 289 668 c 128,-1,4
 364 719 364 719 433 719 c 0,5,6
 525 719 525 719 525 633 c 0,7,8
 525 571 525 571 486.5 495.5 c 128,-1,9
 448 420 448 420 409 420 c 0,10,11
 389 420 389 420 378 443 c 1,12,13
 415 485 415 485 450 545 c 128,-1,14
 485 605 485 605 485 644 c 0,15,16
 485 689 485 689 436 689 c 0,17,18
 367 689 367 689 287.5 599.5 c 128,-1,19
 208 510 208 510 155 380 c 128,-1,20
 102 250 102 250 102 140 c 0,21,22
 102 58 102 58 137 2.5 c 128,-1,23
 172 -53 172 -53 243 -53 c 0,24,25
 320 -53 320 -53 397 10 c 128,-1,26
 474 73 474 73 515 162 c 1,27,-1
 529 152 l 1,28,29
 488 73 488 73 435 17 c 1,30,-1
 396 -43 l 1,31,32
 430 -19 430 -19 463 -19 c 0,33,34
 508 -19 508 -19 508 -61 c 0,35,36
 508 -104 508 -104 472.5 -138.5 c 128,-1,37
 437 -173 437 -173 391 -173 c 0,38,39
 363 -173 363 -173 346.5 -162.5 c 128,-1,40
 330 -152 330 -152 330 -137 c 0,41,42
 330 -120 330 -120 352 -104 c 1,43,44
 362 -149 362 -149 394 -149 c 0,45,46
 422 -149 422 -149 449.5 -119 c 128,-1,47
 477 -89 477 -89 477 -62 c 0,48,49
 477 -37 477 -37 460 -37 c 0,50,51
 445 -37 445 -37 412 -57.5 c 128,-1,52
 379 -78 379 -78 375 -78 c 0,53,54
 369 -78 369 -78 365 -72 c 128,-1,55
 361 -66 361 -66 361 -60 c 0,56,57
 361 -57 361 -57 379 -32 c 1,58,59
 301 -87 301 -87 219 -87 c 0,60,61
 120 -87 120 -87 71 -16 c 128,-1,62
 22 55 22 55 22 157 c 0,0,1
EndSplineSet
EndChar

StartChar: Eacute
Encoding: 201 201 137
Width: 498
GlyphClass: 2
Flags: W
LayerCount: 2
Fore
SplineSet
-15 95 m 0,0,1
 -15 188 -15 188 61 266 c 128,-1,2
 137 344 137 344 244 354 c 1,3,4
 168 417 168 417 168 512 c 0,5,6
 168 594 168 594 227.5 656.5 c 128,-1,7
 287 719 287 719 374 719 c 0,8,9
 429 719 429 719 458.5 691 c 128,-1,10
 488 663 488 663 488 611 c 0,11,12
 488 557 488 557 461 508.5 c 128,-1,13
 434 460 434 460 408 460 c 0,14,15
 386 460 386 460 371 492 c 1,16,17
 455 565 455 565 455 631 c 0,18,19
 455 696 455 696 384 696 c 0,20,21
 317 696 317 696 279 638.5 c 128,-1,22
 241 581 241 581 241 495 c 0,23,24
 241 394 241 394 299 344 c 1,25,26
 203 328 203 328 140.5 252 c 128,-1,27
 78 176 78 176 78 92 c 0,28,29
 78 35 78 35 109.5 -9 c 128,-1,30
 141 -53 141 -53 206 -53 c 0,31,32
 283 -53 283 -53 360 10 c 128,-1,33
 437 73 437 73 478 162 c 1,34,-1
 492 152 l 1,35,36
 436 44 436 44 356 -21.5 c 128,-1,37
 276 -87 276 -87 180 -87 c 0,38,39
 92 -87 92 -87 38.5 -34.5 c 128,-1,40
 -15 18 -15 18 -15 95 c 0,0,1
415 774 m 0,41,42
 415 795 415 795 453.5 845 c 128,-1,43
 492 895 492 895 519 895 c 0,44,45
 538 895 538 895 541 864 c 1,46,47
 467 800 467 800 429 748 c 1,48,49
 415 755 415 755 415 774 c 0,41,42
EndSplineSet
EndChar

StartChar: Edieresis
Encoding: 203 203 139
Width: 498
GlyphClass: 2
Flags: W
LayerCount: 2
Fore
SplineSet
-15 95 m 0,0,1
 -15 188 -15 188 61 266 c 128,-1,2
 137 344 137 344 244 354 c 1,3,4
 168 417 168 417 168 512 c 0,5,6
 168 594 168 594 227.5 656.5 c 128,-1,7
 287 719 287 719 374 719 c 0,8,9
 429 719 429 719 458.5 691 c 128,-1,10
 488 663 488 663 488 611 c 0,11,12
 488 557 488 557 461 508.5 c 128,-1,13
 434 460 434 460 408 460 c 0,14,15
 386 460 386 460 371 492 c 1,16,17
 455 565 455 565 455 631 c 0,18,19
 455 696 455 696 384 696 c 0,20,21
 317 696 317 696 279 638.5 c 128,-1,22
 241 581 241 581 241 495 c 0,23,24
 241 394 241 394 299 344 c 1,25,26
 203 328 203 328 140.5 252 c 128,-1,27
 78 176 78 176 78 92 c 0,28,29
 78 35 78 35 109.5 -9 c 128,-1,30
 141 -53 141 -53 206 -53 c 0,31,32
 283 -53 283 -53 360 10 c 128,-1,33
 437 73 437 73 478 162 c 1,34,-1
 492 152 l 1,35,36
 436 44 436 44 356 -21.5 c 128,-1,37
 276 -87 276 -87 180 -87 c 0,38,39
 92 -87 92 -87 38.5 -34.5 c 128,-1,40
 -15 18 -15 18 -15 95 c 0,0,1
313 804 m 0,41,42
 313 822 313 822 334.5 836.5 c 128,-1,43
 356 851 356 851 379 851 c 0,44,45
 409 851 409 851 409 823 c 0,46,47
 409 806 409 806 390.5 790 c 128,-1,48
 372 774 372 774 350 774 c 0,49,50
 313 774 313 774 313 804 c 0,41,42
457 783 m 0,51,52
 457 801 457 801 478.5 815.5 c 128,-1,53
 500 830 500 830 523 830 c 0,54,55
 553 830 553 830 553 802 c 0,56,57
 553 785 553 785 534.5 769 c 128,-1,58
 516 753 516 753 494 753 c 0,59,60
 457 753 457 753 457 783 c 0,51,52
EndSplineSet
EndChar

StartChar: Igrave
Encoding: 204 204 140
Width: 459
GlyphClass: 2
Flags: W
LayerCount: 2
Fore
SplineSet
-38 -88 m 1,0,1
 -35 -62 -35 -62 -22 -45 c 128,-1,2
 -9 -28 -9 -28 15.5 -20.5 c 128,-1,3
 40 -13 40 -13 64 -10.5 c 128,-1,4
 88 -8 88 -8 125 -8 c 1,5,6
 167 83 167 83 231 355 c 128,-1,7
 295 627 295 627 307 661 c 1,8,9
 174 658 174 658 82 641 c 1,10,11
 96 718 96 718 286 718 c 0,12,13
 407 718 407 718 548 697 c 1,14,15
 513 662 513 662 451 662 c 0,16,17
 373 662 373 662 342 661 c 1,18,19
 268 263 268 263 243 162 c 0,20,21
 208 24 208 24 159 -9 c 1,22,23
 188 -11 188 -11 264.5 -19 c 128,-1,24
 341 -27 341 -27 376 -28 c 1,25,26
 333 -71 333 -71 263 -71 c 2,27,-1
 202 -71 l 2,28,29
 153 -71 153 -71 135.5 -72 c 128,-1,30
 118 -73 118 -73 81.5 -74.5 c 128,-1,31
 45 -76 45 -76 17.5 -79.5 c 128,-1,32
 -10 -83 -10 -83 -38 -88 c 1,0,1
234 864 m 1,33,34
 237 895 237 895 256 895 c 0,35,36
 283 895 283 895 321.5 845 c 128,-1,37
 360 795 360 795 360 774 c 0,38,39
 360 755 360 755 346 748 c 1,40,41
 308 800 308 800 234 864 c 1,33,34
EndSplineSet
EndChar

StartChar: Eth
Encoding: 208 208 144
Width: 654
GlyphClass: 2
Flags: W
LayerCount: 2
Fore
SplineSet
32 274 m 1,0,1
 47 314 47 314 157 321 c 1,2,3
 198 451 198 451 230 538 c 1,4,5
 266 632 266 632 308 632 c 0,6,7
 322 632 322 632 336 622 c 1,8,9
 281 495 281 495 225 323 c 1,10,11
 302 323 302 323 389 314 c 1,12,13
 349 285 349 285 286 285 c 2,14,-1
 213 285 l 1,15,16
 153 97 153 97 120 -57 c 1,17,18
 144 -61 144 -61 163 -61 c 0,19,20
 266 -61 266 -61 361 16.5 c 128,-1,21
 456 94 456 94 513 214 c 128,-1,22
 570 334 570 334 570 457 c 0,23,24
 570 574 570 574 515 633.5 c 128,-1,25
 460 693 460 693 365 693 c 0,26,27
 267 693 267 693 201.5 637 c 128,-1,28
 136 581 136 581 136 498 c 0,29,30
 136 476 136 476 141 461 c 1,31,32
 81 461 81 461 81 517 c 0,33,34
 81 590 81 590 176 655 c 128,-1,35
 271 720 271 720 395 720 c 0,36,37
 522 720 522 720 583 645 c 128,-1,38
 644 570 644 570 644 446 c 0,39,40
 644 341 644 341 601.5 241.5 c 128,-1,41
 559 142 559 142 491.5 70.5 c 128,-1,42
 424 -1 424 -1 337.5 -44 c 128,-1,43
 251 -87 251 -87 164 -87 c 0,44,45
 89 -87 89 -87 57 -42 c 1,46,47
 82 80 82 80 145 284 c 1,48,49
 98 284 98 284 32 274 c 1,0,1
EndSplineSet
EndChar

StartChar: Ograve
Encoding: 210 210 146
Width: 623
GlyphClass: 2
Flags: W
LayerCount: 2
Fore
SplineSet
21 161 m 0,0,1
 21 255 21 255 59 356.5 c 128,-1,2
 97 458 97 458 156 537 c 128,-1,3
 215 616 215 616 290 667.5 c 128,-1,4
 365 719 365 719 435 719 c 0,5,6
 472 719 472 719 495 707 c 1,7,-1
 484 707 l 2,8,9
 422 707 422 707 353.5 653.5 c 128,-1,10
 285 600 285 600 232 518.5 c 128,-1,11
 179 437 179 437 144 336.5 c 128,-1,12
 109 236 109 236 109 147 c 0,13,14
 109 60 109 60 142.5 3.5 c 128,-1,15
 176 -53 176 -53 243 -53 c 0,16,17
 332 -53 332 -53 408 38 c 128,-1,18
 484 129 484 129 524 256.5 c 128,-1,19
 564 384 564 384 564 505 c 0,20,21
 564 556 564 556 553 599.5 c 128,-1,22
 542 643 542 643 519 643 c 0,23,24
 485 643 485 643 441.5 568 c 128,-1,25
 398 493 398 493 384 429 c 1,26,27
 336 440 336 440 336 478 c 0,28,29
 336 531 336 531 401.5 600.5 c 128,-1,30
 467 670 467 670 517 670 c 0,31,32
 541 670 541 670 559 651.5 c 128,-1,33
 577 633 577 633 585.5 602 c 128,-1,34
 594 571 594 571 598 540.5 c 128,-1,35
 602 510 602 510 602 477 c 0,36,37
 602 347 602 347 564 236.5 c 128,-1,38
 526 126 526 126 467.5 57.5 c 128,-1,39
 409 -11 409 -11 342 -49 c 128,-1,40
 275 -87 275 -87 213 -87 c 0,41,42
 127 -87 127 -87 74 -19 c 128,-1,43
 21 49 21 49 21 161 c 0,0,1
437 864 m 1,44,45
 440 895 440 895 459 895 c 0,46,47
 486 895 486 895 524.5 845 c 128,-1,48
 563 795 563 795 563 774 c 0,49,50
 563 755 563 755 549 748 c 1,51,52
 511 800 511 800 437 864 c 1,44,45
EndSplineSet
EndChar

StartChar: multiply
Encoding: 215 215 151
Width: 377
GlyphClass: 2
Flags: W
LayerCount: 2
Fore
SplineSet
48 43 m 0,0,1
 48 83 48 83 125 167 c 1,2,3
 56 241 56 241 56 282 c 0,4,5
 56 292 56 292 60 300 c 1,6,7
 97 249 97 249 151 193 c 1,8,9
 216 258 216 258 276 305 c 1,10,11
 269 257 269 257 224 212 c 2,12,-1
 179 166 l 1,13,-1
 232 113 l 1,14,15
 276 67 276 67 284 20 c 1,16,17
 224 67 224 67 159 132 c 1,18,-1
 151 139 l 1,19,20
 94 82 94 82 52 25 c 1,21,22
 48 33 48 33 48 43 c 0,0,1
EndSplineSet
EndChar

StartChar: Oslash
Encoding: 216 216 152
Width: 623
GlyphClass: 2
Flags: W
LayerCount: 2
Fore
SplineSet
21 161 m 0,0,1
 21 255 21 255 59 356.5 c 128,-1,2
 97 458 97 458 156 537 c 128,-1,3
 215 616 215 616 290 667.5 c 128,-1,4
 365 719 365 719 435 719 c 0,5,6
 472 719 472 719 495 707 c 1,7,-1
 484 707 l 2,8,9
 422 707 422 707 353.5 653.5 c 128,-1,10
 285 600 285 600 232 518.5 c 128,-1,11
 179 437 179 437 144 336.5 c 128,-1,12
 109 236 109 236 109 147 c 0,13,14
 109 62 109 62 137 12 c 1,15,16
 269 176 269 176 550 608 c 1,17,18
 538 643 538 643 519 643 c 0,19,20
 485 643 485 643 441.5 568 c 128,-1,21
 398 493 398 493 384 429 c 1,22,23
 336 440 336 440 336 478 c 0,24,25
 336 531 336 531 401.5 600.5 c 128,-1,26
 467 670 467 670 517 670 c 0,27,28
 549 670 549 670 569 638 c 1,29,-1
 573 643 l 1,30,31
 580 654 580 654 603 662.5 c 128,-1,32
 626 671 626 671 648 671 c 0,33,34
 659 671 659 671 664 670 c 1,35,-1
 594 566 l 1,36,37
 602 526 602 526 602 477 c 0,38,39
 602 347 602 347 564 236.5 c 128,-1,40
 526 126 526 126 467.5 57.5 c 128,-1,41
 409 -11 409 -11 342 -49 c 128,-1,42
 275 -87 275 -87 213 -87 c 0,43,44
 170 -87 170 -87 132 -68 c 1,45,46
 86 -101 86 -101 46 -101 c 0,47,48
 40 -101 40 -101 30 -99 c 1,49,50
 52 -84 52 -84 92 -39 c 1,51,52
 21 27 21 27 21 161 c 0,0,1
174 -32 m 1,53,54
 205 -53 205 -53 243 -53 c 0,55,56
 332 -53 332 -53 408 38 c 128,-1,57
 484 129 484 129 524 256.5 c 128,-1,58
 564 384 564 384 564 505 c 2,59,-1
 564 521 l 1,60,-1
 239 46 l 1,61,62
 204 -3 204 -3 174 -32 c 1,53,54
EndSplineSet
EndChar

StartChar: Ucircumflex
Encoding: 219 219 155
Width: 706
GlyphClass: 2
Flags: W
LayerCount: 2
Fore
SplineSet
25 539 m 0,0,1
 25 604 25 604 83 662 c 128,-1,2
 141 720 141 720 216 720 c 0,3,4
 319 720 319 720 319 599 c 0,5,6
 319 524 319 524 257.5 329 c 128,-1,7
 196 134 196 134 196 65 c 0,8,9
 196 15 196 15 216.5 -16 c 128,-1,10
 237 -47 237 -47 280 -47 c 0,11,12
 319 -47 319 -47 354.5 -20.5 c 128,-1,13
 390 6 390 6 415.5 49 c 128,-1,14
 441 92 441 92 458.5 136 c 128,-1,15
 476 180 476 180 487 224 c 2,16,-1
 528 391 l 2,17,18
 544 453 544 453 570 542 c 128,-1,19
 596 631 596 631 619 675.5 c 128,-1,20
 642 720 642 720 661 720 c 0,21,22
 681 720 681 720 711 688 c 1,23,24
 681 667 681 667 604 418.5 c 128,-1,25
 527 170 527 170 527 42 c 0,26,27
 527 -25 527 -25 545 -50 c 128,-1,28
 563 -75 563 -75 607 -75 c 1,29,30
 572 -99 572 -99 541 -99 c 0,31,32
 505 -99 505 -99 482.5 -68 c 128,-1,33
 460 -37 460 -37 460 7 c 0,34,35
 460 38 460 38 469 98 c 1,36,37
 384 -87 384 -87 253 -87 c 0,38,39
 191 -87 191 -87 157 -49 c 128,-1,40
 123 -11 123 -11 123 49 c 0,41,42
 123 111 123 111 185.5 318.5 c 128,-1,43
 248 526 248 526 248 604 c 0,44,45
 248 692 248 692 192 692 c 0,46,47
 143 692 143 692 114.5 635 c 128,-1,48
 86 578 86 578 86 519 c 0,49,50
 86 489 86 489 94 470 c 1,51,52
 25 470 25 470 25 539 c 0,0,1
385 798 m 0,53,54
 385 825 385 825 430 855.5 c 128,-1,55
 475 886 475 886 499 886 c 128,-1,56
 523 886 523 886 556 846.5 c 128,-1,57
 589 807 589 807 589 775 c 0,58,59
 589 752 589 752 572 744 c 1,60,61
 551 787 551 787 498 836 c 1,62,63
 431 812 431 812 395 779 c 1,64,65
 385 785 385 785 385 798 c 0,53,54
EndSplineSet
EndChar

StartChar: Udieresis
Encoding: 220 220 156
Width: 706
GlyphClass: 2
Flags: W
LayerCount: 2
Fore
SplineSet
25 539 m 0,0,1
 25 604 25 604 83 662 c 128,-1,2
 141 720 141 720 216 720 c 0,3,4
 319 720 319 720 319 599 c 0,5,6
 319 524 319 524 257.5 329 c 128,-1,7
 196 134 196 134 196 65 c 0,8,9
 196 15 196 15 216.5 -16 c 128,-1,10
 237 -47 237 -47 280 -47 c 0,11,12
 319 -47 319 -47 354.5 -20.5 c 128,-1,13
 390 6 390 6 415.5 49 c 128,-1,14
 441 92 441 92 458.5 136 c 128,-1,15
 476 180 476 180 487 224 c 2,16,-1
 528 391 l 2,17,18
 544 453 544 453 570 542 c 128,-1,19
 596 631 596 631 619 675.5 c 128,-1,20
 642 720 642 720 661 720 c 0,21,22
 681 720 681 720 711 688 c 1,23,24
 681 667 681 667 604 418.5 c 128,-1,25
 527 170 527 170 527 42 c 0,26,27
 527 -25 527 -25 545 -50 c 128,-1,28
 563 -75 563 -75 607 -75 c 1,29,30
 572 -99 572 -99 541 -99 c 0,31,32
 505 -99 505 -99 482.5 -68 c 128,-1,33
 460 -37 460 -37 460 7 c 0,34,35
 460 38 460 38 469 98 c 1,36,37
 384 -87 384 -87 253 -87 c 0,38,39
 191 -87 191 -87 157 -49 c 128,-1,40
 123 -11 123 -11 123 49 c 0,41,42
 123 111 123 111 185.5 318.5 c 128,-1,43
 248 526 248 526 248 604 c 0,44,45
 248 692 248 692 192 692 c 0,46,47
 143 692 143 692 114.5 635 c 128,-1,48
 86 578 86 578 86 519 c 0,49,50
 86 489 86 489 94 470 c 1,51,52
 25 470 25 470 25 539 c 0,0,1
383 804 m 0,53,54
 383 822 383 822 404.5 836.5 c 128,-1,55
 426 851 426 851 449 851 c 0,56,57
 479 851 479 851 479 823 c 0,58,59
 479 806 479 806 460.5 790 c 128,-1,60
 442 774 442 774 420 774 c 0,61,62
 383 774 383 774 383 804 c 0,53,54
527 783 m 0,63,64
 527 801 527 801 548.5 815.5 c 128,-1,65
 570 830 570 830 593 830 c 0,66,67
 623 830 623 830 623 802 c 0,68,69
 623 785 623 785 604.5 769 c 128,-1,70
 586 753 586 753 564 753 c 0,71,72
 527 753 527 753 527 783 c 0,63,64
EndSplineSet
EndChar

StartChar: Yacute
Encoding: 221 221 157
Width: 666
GlyphClass: 2
Flags: W
LayerCount: 2
Fore
SplineSet
23 539 m 0,0,1
 23 604 23 604 81 662 c 128,-1,2
 139 720 139 720 214 720 c 0,3,4
 267 720 267 720 292.5 690 c 128,-1,5
 318 660 318 660 318 619 c 0,6,7
 318 586 318 586 284.5 465 c 128,-1,8
 251 344 251 344 251 287 c 0,9,10
 251 191 251 191 321 191 c 0,11,12
 384 191 384 191 438 263 c 128,-1,13
 492 335 492 335 533 440 c 1,14,15
 601 720 601 720 653 720 c 0,16,17
 679 720 679 720 709 688 c 1,18,19
 659 608 659 608 633 529 c 128,-1,20
 607 450 607 450 544 194 c 1,21,-1
 524 118 l 2,22,23
 517 90 517 90 502 44.5 c 128,-1,24
 487 -1 487 -1 473 -28.5 c 128,-1,25
 459 -56 459 -56 436.5 -90 c 128,-1,26
 414 -124 414 -124 389 -142.5 c 128,-1,27
 364 -161 364 -161 329.5 -174 c 128,-1,28
 295 -187 295 -187 255 -187 c 0,29,30
 195 -187 195 -187 156 -162 c 128,-1,31
 117 -137 117 -137 117 -93 c 0,32,33
 117 -38 117 -38 177 -18 c 1,34,35
 169 -45 169 -45 169 -72 c 0,36,37
 169 -114 169 -114 191 -138 c 128,-1,38
 213 -162 213 -162 256 -162 c 0,39,40
 402 -162 402 -162 465 121 c 1,41,-1
 483 211 l 1,42,-1
 507 326 l 1,43,44
 416 151 416 151 290 151 c 0,45,46
 181 151 181 151 181 270 c 0,47,48
 181 324 181 324 215 447 c 128,-1,49
 249 570 249 570 249 614 c 0,50,51
 249 692 249 692 192 692 c 0,52,53
 142 692 142 692 113 635 c 128,-1,54
 84 578 84 578 84 519 c 0,55,56
 84 489 84 489 92 470 c 1,57,58
 23 470 23 470 23 539 c 0,0,1
472 774 m 0,59,60
 472 795 472 795 510.5 845 c 128,-1,61
 549 895 549 895 576 895 c 0,62,63
 595 895 595 895 598 864 c 1,64,65
 524 800 524 800 486 748 c 1,66,67
 472 755 472 755 472 774 c 0,59,60
EndSplineSet
EndChar

StartChar: Thorn
Encoding: 222 222 158
Width: 508
GlyphClass: 2
Flags: W
LayerCount: 2
Fore
SplineSet
31 -37 m 0,0,1
 31 -24 31 -24 45 18 c 0,2,3
 155 364 155 364 232 555 c 1,4,5
 196 549 196 549 161 535 c 128,-1,6
 126 521 126 521 106 509.5 c 128,-1,7
 86 498 86 498 82 498 c 0,8,9
 75 498 75 498 63 508 c 128,-1,10
 51 518 51 518 51 525 c 1,11,12
 161 572 161 572 241 578 c 1,13,14
 245 587 245 587 253.5 610 c 128,-1,15
 262 633 262 633 268.5 648 c 128,-1,16
 275 663 275 663 284.5 680.5 c 128,-1,17
 294 698 294 698 305.5 707 c 128,-1,18
 317 716 317 716 330 716 c 128,-1,19
 343 716 343 716 356 708 c 1,20,21
 328 653 328 653 300 579 c 1,22,23
 392 571 392 571 460.5 520.5 c 128,-1,24
 529 470 529 470 529 387 c 0,25,26
 529 341 529 341 509 303.5 c 128,-1,27
 489 266 489 266 455.5 242 c 128,-1,28
 422 218 422 218 384 201 c 128,-1,29
 346 184 346 184 302.5 174.5 c 128,-1,30
 259 165 259 165 227.5 161 c 128,-1,31
 196 157 196 157 168 156 c 1,32,-1
 135 38 l 1,33,-1
 100 -87 l 1,34,35
 73 -87 73 -87 52 -72.5 c 128,-1,36
 31 -58 31 -58 31 -37 c 0,0,1
173 175 m 1,37,38
 228 181 228 181 277.5 198 c 128,-1,39
 327 215 327 215 369.5 242 c 128,-1,40
 412 269 412 269 437 311 c 128,-1,41
 462 353 462 353 462 404 c 0,42,43
 462 478 462 478 413.5 516.5 c 128,-1,44
 365 555 365 555 292 558 c 1,45,46
 244 427 244 427 173 175 c 1,37,38
EndSplineSet
EndChar

StartChar: germandbls
Encoding: 223 223 159
Width: 427
GlyphClass: 2
Flags: W
LayerCount: 2
Fore
SplineSet
-43 -115 m 1,0,1
 -29 -96 -29 -96 -13 0 c 2,2,-1
 21 213 l 1,3,4
 41 330 41 330 70 446.5 c 128,-1,5
 99 563 99 563 153 641.5 c 128,-1,6
 207 720 207 720 280 720 c 0,7,8
 326 720 326 720 355.5 690.5 c 128,-1,9
 385 661 385 661 385 610 c 0,10,11
 385 542 385 542 338.5 483 c 128,-1,12
 292 424 292 424 230 384 c 0,13,14
 218 376 218 376 218 371 c 128,-1,15
 218 366 218 366 231 360 c 0,16,17
 286 336 286 336 323.5 271 c 128,-1,18
 361 206 361 206 361 147 c 0,19,20
 361 66 361 66 301 -10.5 c 128,-1,21
 241 -87 241 -87 173 -87 c 0,22,23
 140 -87 140 -87 121.5 -48 c 128,-1,24
 103 -9 103 -9 103 44 c 0,25,26
 103 92 103 92 119.5 127.5 c 128,-1,27
 136 163 136 163 164 163 c 0,28,29
 175 163 175 163 180 162 c 1,30,31
 165 154 165 154 154.5 110 c 128,-1,32
 144 66 144 66 144 19 c 0,33,34
 144 -67 144 -67 174 -67 c 0,35,36
 213 -67 213 -67 251.5 7.5 c 128,-1,37
 290 82 290 82 290 161 c 0,38,39
 290 216 290 216 268.5 267.5 c 128,-1,40
 247 319 247 319 212 346 c 0,41,42
 192 361 192 361 192 372 c 0,43,44
 192 385 192 385 216 406 c 1,45,46
 251 439 251 439 272 463 c 128,-1,47
 293 487 293 487 312 527.5 c 128,-1,48
 331 568 331 568 331 611 c 0,49,50
 331 693 331 693 272 693 c 0,51,52
 217 693 217 693 178 614.5 c 128,-1,53
 139 536 139 536 117 421.5 c 128,-1,54
 95 307 95 307 75.5 191 c 128,-1,55
 56 75 56 75 27 -13.5 c 128,-1,56
 -2 -102 -2 -102 -43 -115 c 1,0,1
EndSplineSet
EndChar

StartChar: atilde
Encoding: 227 227 163
Width: 436
GlyphClass: 2
Flags: W
LayerCount: 2
Fore
SplineSet
-26 36 m 0,0,1
 -26 95 -26 95 15.5 167 c 128,-1,2
 57 239 57 239 123 291 c 128,-1,3
 189 343 189 343 251 343 c 0,4,5
 290 343 290 343 316 322 c 128,-1,6
 342 301 342 301 342 268 c 0,7,8
 342 225 342 225 293 225 c 1,9,10
 298 243 298 243 298 260 c 0,11,12
 298 316 298 316 249 316 c 0,13,14
 205 316 205 316 155.5 265.5 c 128,-1,15
 106 215 106 215 74.5 148.5 c 128,-1,16
 43 82 43 82 43 33 c 0,17,18
 43 -6 43 -6 70 -6 c 0,19,20
 88 -6 88 -6 112 11 c 128,-1,21
 136 28 136 28 156 49 c 128,-1,22
 176 70 176 70 203.5 105.5 c 128,-1,23
 231 141 231 141 244 160 c 2,24,-1
 280 212 l 1,25,26
 320 205 320 205 320 187 c 0,27,28
 320 179 320 179 291 127 c 128,-1,29
 262 75 262 75 262 48 c 0,30,31
 262 31 262 31 270.5 17.5 c 128,-1,32
 279 4 279 4 296 4 c 0,33,34
 325 4 325 4 369 45.5 c 128,-1,35
 413 87 413 87 456 162 c 1,36,-1
 466 152 l 1,37,38
 435 72 435 72 378.5 21 c 128,-1,39
 322 -30 322 -30 268 -30 c 0,40,41
 233 -30 233 -30 214.5 -9.5 c 128,-1,42
 196 11 196 11 196 40 c 0,43,44
 196 52 196 52 199 69 c 1,45,46
 154 9 154 9 118.5 -19 c 128,-1,47
 83 -47 83 -47 48 -47 c 0,48,49
 15 -47 15 -47 -5.5 -25.5 c 128,-1,50
 -26 -4 -26 -4 -26 36 c 0,0,1
140 428 m 1,51,52
 175 474 175 474 223 474 c 0,53,54
 249 474 249 474 313.5 452 c 128,-1,55
 378 430 378 430 417 430 c 0,56,57
 432 430 432 430 447 433 c 1,58,59
 415 397 415 397 369 397 c 0,60,61
 341 397 341 397 279.5 416.5 c 128,-1,62
 218 436 218 436 186 436 c 0,63,64
 160 436 160 436 140 428 c 1,51,52
EndSplineSet
EndChar

StartChar: adieresis
Encoding: 228 228 164
Width: 436
GlyphClass: 2
Flags: W
LayerCount: 2
Fore
SplineSet
-26 36 m 0,0,1
 -26 95 -26 95 15.5 167 c 128,-1,2
 57 239 57 239 123 291 c 128,-1,3
 189 343 189 343 251 343 c 0,4,5
 290 343 290 343 316 322 c 128,-1,6
 342 301 342 301 342 268 c 0,7,8
 342 225 342 225 293 225 c 1,9,10
 298 243 298 243 298 260 c 0,11,12
 298 316 298 316 249 316 c 0,13,14
 205 316 205 316 155.5 265.5 c 128,-1,15
 106 215 106 215 74.5 148.5 c 128,-1,16
 43 82 43 82 43 33 c 0,17,18
 43 -6 43 -6 70 -6 c 0,19,20
 88 -6 88 -6 112 11 c 128,-1,21
 136 28 136 28 156 49 c 128,-1,22
 176 70 176 70 203.5 105.5 c 128,-1,23
 231 141 231 141 244 160 c 2,24,-1
 280 212 l 1,25,26
 320 205 320 205 320 187 c 0,27,28
 320 179 320 179 291 127 c 128,-1,29
 262 75 262 75 262 48 c 0,30,31
 262 31 262 31 270.5 17.5 c 128,-1,32
 279 4 279 4 296 4 c 0,33,34
 325 4 325 4 369 45.5 c 128,-1,35
 413 87 413 87 456 162 c 1,36,-1
 466 152 l 1,37,38
 435 72 435 72 378.5 21 c 128,-1,39
 322 -30 322 -30 268 -30 c 0,40,41
 233 -30 233 -30 214.5 -9.5 c 128,-1,42
 196 11 196 11 196 40 c 0,43,44
 196 52 196 52 199 69 c 1,45,46
 154 9 154 9 118.5 -19 c 128,-1,47
 83 -47 83 -47 48 -47 c 0,48,49
 15 -47 15 -47 -5.5 -25.5 c 128,-1,50
 -26 -4 -26 -4 -26 36 c 0,0,1
154 466 m 0,51,52
 154 484 154 484 175.5 498.5 c 128,-1,53
 197 513 197 513 220 513 c 0,54,55
 250 513 250 513 250 485 c 0,56,57
 250 468 250 468 231.5 452 c 128,-1,58
 213 436 213 436 191 436 c 0,59,60
 154 436 154 436 154 466 c 0,51,52
298 445 m 0,61,62
 298 463 298 463 319.5 477.5 c 128,-1,63
 341 492 341 492 364 492 c 0,64,65
 394 492 394 492 394 464 c 0,66,67
 394 447 394 447 375.5 431 c 128,-1,68
 357 415 357 415 335 415 c 0,69,70
 298 415 298 415 298 445 c 0,61,62
EndSplineSet
EndChar

StartChar: aring
Encoding: 229 229 165
Width: 436
GlyphClass: 2
Flags: W
LayerCount: 2
Fore
SplineSet
-26 36 m 0,0,1
 -26 95 -26 95 15.5 167 c 128,-1,2
 57 239 57 239 123 291 c 128,-1,3
 189 343 189 343 251 343 c 0,4,5
 290 343 290 343 316 322 c 128,-1,6
 342 301 342 301 342 268 c 0,7,8
 342 225 342 225 293 225 c 1,9,10
 298 243 298 243 298 260 c 0,11,12
 298 316 298 316 249 316 c 0,13,14
 205 316 205 316 155.5 265.5 c 128,-1,15
 106 215 106 215 74.5 148.5 c 128,-1,16
 43 82 43 82 43 33 c 0,17,18
 43 -6 43 -6 70 -6 c 0,19,20
 88 -6 88 -6 112 11 c 128,-1,21
 136 28 136 28 156 49 c 128,-1,22
 176 70 176 70 203.5 105.5 c 128,-1,23
 231 141 231 141 244 160 c 2,24,-1
 280 212 l 1,25,26
 320 205 320 205 320 187 c 0,27,28
 320 179 320 179 291 127 c 128,-1,29
 262 75 262 75 262 48 c 0,30,31
 262 31 262 31 270.5 17.5 c 128,-1,32
 279 4 279 4 296 4 c 0,33,34
 325 4 325 4 369 45.5 c 128,-1,35
 413 87 413 87 456 162 c 1,36,-1
 466 152 l 1,37,38
 435 72 435 72 378.5 21 c 128,-1,39
 322 -30 322 -30 268 -30 c 0,40,41
 233 -30 233 -30 214.5 -9.5 c 128,-1,42
 196 11 196 11 196 40 c 0,43,44
 196 52 196 52 199 69 c 1,45,46
 154 9 154 9 118.5 -19 c 128,-1,47
 83 -47 83 -47 48 -47 c 0,48,49
 15 -47 15 -47 -5.5 -25.5 c 128,-1,50
 -26 -4 -26 -4 -26 36 c 0,0,1
216 451 m 0,51,52
 216 490 216 490 253 526.5 c 128,-1,53
 290 563 290 563 338 563 c 0,54,55
 414 563 414 563 414 509 c 0,56,57
 414 471 414 471 375.5 434 c 128,-1,58
 337 397 337 397 288 397 c 0,59,60
 216 397 216 397 216 451 c 0,51,52
255 458 m 0,61,62
 255 443 255 443 266 430 c 128,-1,63
 277 417 277 417 297 417 c 0,64,65
 325 417 325 417 351 446.5 c 128,-1,66
 377 476 377 476 377 503 c 0,67,68
 377 518 377 518 365.5 529 c 128,-1,69
 354 540 354 540 333 540 c 0,70,71
 304 540 304 540 279.5 513 c 128,-1,72
 255 486 255 486 255 458 c 0,61,62
EndSplineSet
EndChar

StartChar: ae
Encoding: 230 230 166
Width: 543
GlyphClass: 2
Flags: W
LayerCount: 2
Fore
SplineSet
-26 36 m 0,0,1
 -26 95 -26 95 15.5 167 c 128,-1,2
 57 239 57 239 123 291 c 128,-1,3
 189 343 189 343 251 343 c 0,4,5
 305 343 305 343 320 301 c 1,6,7
 387 360 387 360 451 360 c 0,8,9
 513 360 513 360 513 299 c 0,10,11
 513 226 513 226 435 170 c 128,-1,12
 357 114 357 114 265 105 c 1,13,14
 261 88 261 88 261 69 c 0,15,16
 261 -15 261 -15 340 -15 c 0,17,18
 401 -15 401 -15 463 36 c 128,-1,19
 525 87 525 87 564 162 c 1,20,-1
 576 153 l 1,21,22
 536 64 536 64 465 10 c 128,-1,23
 394 -44 394 -44 319 -44 c 0,24,25
 262 -44 262 -44 230.5 -13.5 c 128,-1,26
 199 17 199 17 197 66 c 1,27,28
 153 8 153 8 118 -19.5 c 128,-1,29
 83 -47 83 -47 48 -47 c 0,30,31
 15 -47 15 -47 -5.5 -25.5 c 128,-1,32
 -26 -4 -26 -4 -26 36 c 0,0,1
43 33 m 0,33,34
 43 -6 43 -6 70 -6 c 0,35,36
 116 -6 116 -6 199 99 c 1,37,38
 206 143 206 143 232 191 c 128,-1,39
 258 239 258 239 296 278 c 1,40,41
 287 316 287 316 249 316 c 0,42,43
 205 316 205 316 155.5 265.5 c 128,-1,44
 106 215 106 215 74.5 148.5 c 128,-1,45
 43 82 43 82 43 33 c 0,33,34
270 124 m 1,46,47
 340 149 340 149 404.5 199 c 128,-1,48
 469 249 469 249 469 306 c 0,49,50
 469 329 469 329 448 329 c 0,51,52
 401 329 401 329 346 263.5 c 128,-1,53
 291 198 291 198 270 124 c 1,46,47
EndSplineSet
EndChar

StartChar: ccedilla
Encoding: 231 231 167
Width: 323
GlyphClass: 2
Flags: W
LayerCount: 2
Fore
SplineSet
-5 72 m 0,0,1
 -5 171 -5 171 65.5 254.5 c 128,-1,2
 136 338 136 338 214 338 c 0,3,4
 252 338 252 338 268.5 316.5 c 128,-1,5
 285 295 285 295 285 264 c 0,6,7
 285 234 285 234 271.5 212.5 c 128,-1,8
 258 191 258 191 235 191 c 0,9,10
 218 191 218 191 206 206 c 1,11,12
 221 213 221 213 232 237.5 c 128,-1,13
 243 262 243 262 243 285 c 0,14,15
 243 310 243 310 221 310 c 0,16,17
 169 310 169 310 113 225 c 128,-1,18
 57 140 57 140 57 65 c 0,19,20
 57 -18 57 -18 130 -18 c 0,21,22
 191 -18 191 -18 250.5 32 c 128,-1,23
 310 82 310 82 342 163 c 1,24,-1
 355 153 l 1,25,26
 322 68 322 68 257 9 c 1,27,-1
 223 -43 l 1,28,29
 257 -19 257 -19 290 -19 c 0,30,31
 335 -19 335 -19 335 -61 c 0,32,33
 335 -104 335 -104 299.5 -138.5 c 128,-1,34
 264 -173 264 -173 218 -173 c 0,35,36
 190 -173 190 -173 173.5 -162.5 c 128,-1,37
 157 -152 157 -152 157 -137 c 0,38,39
 157 -120 157 -120 179 -104 c 1,40,41
 189 -149 189 -149 221 -149 c 0,42,43
 249 -149 249 -149 276.5 -119 c 128,-1,44
 304 -89 304 -89 304 -62 c 0,45,46
 304 -37 304 -37 287 -37 c 0,47,48
 272 -37 272 -37 239 -57.5 c 128,-1,49
 206 -78 206 -78 202 -78 c 0,50,51
 196 -78 196 -78 192 -72 c 128,-1,52
 188 -66 188 -66 188 -60 c 0,53,54
 188 -57 188 -57 211 -24 c 1,55,56
 157 -56 157 -56 107 -56 c 128,-1,57
 57 -56 57 -56 26 -23 c 128,-1,58
 -5 10 -5 10 -5 72 c 0,0,1
EndSplineSet
EndChar

StartChar: egrave
Encoding: 232 232 168
Width: 333
GlyphClass: 2
Flags: W
LayerCount: 2
Fore
SplineSet
-14 72 m 0,0,1
 -14 164 -14 164 70 262 c 128,-1,2
 154 360 154 360 240 360 c 0,3,4
 302 360 302 360 302 299 c 0,5,6
 302 226 302 226 224 170 c 128,-1,7
 146 114 146 114 54 105 c 1,8,9
 50 88 50 88 50 69 c 0,10,11
 50 -15 50 -15 129 -15 c 0,12,13
 190 -15 190 -15 252 36 c 128,-1,14
 314 87 314 87 353 162 c 1,15,-1
 365 153 l 1,16,17
 325 64 325 64 254 10 c 128,-1,18
 183 -44 183 -44 108 -44 c 0,19,20
 49 -44 49 -44 17.5 -11.5 c 128,-1,21
 -14 21 -14 21 -14 72 c 0,0,1
59 124 m 1,22,23
 129 149 129 149 193.5 199 c 128,-1,24
 258 249 258 249 258 306 c 0,25,26
 258 329 258 329 237 329 c 0,27,28
 190 329 190 329 135 263.5 c 128,-1,29
 80 198 80 198 59 124 c 1,22,23
172 534 m 1,30,31
 175 565 175 565 194 565 c 0,32,33
 221 565 221 565 259.5 515 c 128,-1,34
 298 465 298 465 298 444 c 0,35,36
 298 425 298 425 284 418 c 1,37,38
 246 470 246 470 172 534 c 1,30,31
EndSplineSet
EndChar

StartChar: ecircumflex
Encoding: 234 234 170
Width: 333
GlyphClass: 2
Flags: W
LayerCount: 2
Fore
SplineSet
-14 72 m 0,0,1
 -14 164 -14 164 70 262 c 128,-1,2
 154 360 154 360 240 360 c 0,3,4
 302 360 302 360 302 299 c 0,5,6
 302 226 302 226 224 170 c 128,-1,7
 146 114 146 114 54 105 c 1,8,9
 50 88 50 88 50 69 c 0,10,11
 50 -15 50 -15 129 -15 c 0,12,13
 190 -15 190 -15 252 36 c 128,-1,14
 314 87 314 87 353 162 c 1,15,-1
 365 153 l 1,16,17
 325 64 325 64 254 10 c 128,-1,18
 183 -44 183 -44 108 -44 c 0,19,20
 49 -44 49 -44 17.5 -11.5 c 128,-1,21
 -14 21 -14 21 -14 72 c 0,0,1
59 124 m 1,22,23
 129 149 129 149 193.5 199 c 128,-1,24
 258 249 258 249 258 306 c 0,25,26
 258 329 258 329 237 329 c 0,27,28
 190 329 190 329 135 263.5 c 128,-1,29
 80 198 80 198 59 124 c 1,22,23
182 460 m 0,30,31
 182 487 182 487 227 517.5 c 128,-1,32
 272 548 272 548 296 548 c 128,-1,33
 320 548 320 548 353 508.5 c 128,-1,34
 386 469 386 469 386 437 c 0,35,36
 386 414 386 414 369 406 c 1,37,38
 348 449 348 449 295 498 c 1,39,40
 228 474 228 474 192 441 c 1,41,42
 182 447 182 447 182 460 c 0,30,31
EndSplineSet
EndChar

StartChar: edieresis
Encoding: 235 235 171
Width: 333
GlyphClass: 2
Flags: W
LayerCount: 2
Fore
SplineSet
-14 72 m 0,0,1
 -14 164 -14 164 70 262 c 128,-1,2
 154 360 154 360 240 360 c 0,3,4
 302 360 302 360 302 299 c 0,5,6
 302 226 302 226 224 170 c 128,-1,7
 146 114 146 114 54 105 c 1,8,9
 50 88 50 88 50 69 c 0,10,11
 50 -15 50 -15 129 -15 c 0,12,13
 190 -15 190 -15 252 36 c 128,-1,14
 314 87 314 87 353 162 c 1,15,-1
 365 153 l 1,16,17
 325 64 325 64 254 10 c 128,-1,18
 183 -44 183 -44 108 -44 c 0,19,20
 49 -44 49 -44 17.5 -11.5 c 128,-1,21
 -14 21 -14 21 -14 72 c 0,0,1
59 124 m 1,22,23
 129 149 129 149 193.5 199 c 128,-1,24
 258 249 258 249 258 306 c 0,25,26
 258 329 258 329 237 329 c 0,27,28
 190 329 190 329 135 263.5 c 128,-1,29
 80 198 80 198 59 124 c 1,22,23
137 466 m 0,30,31
 137 484 137 484 158.5 498.5 c 128,-1,32
 180 513 180 513 203 513 c 0,33,34
 233 513 233 513 233 485 c 0,35,36
 233 468 233 468 214.5 452 c 128,-1,37
 196 436 196 436 174 436 c 0,38,39
 137 436 137 436 137 466 c 0,30,31
281 445 m 0,40,41
 281 463 281 463 302.5 477.5 c 128,-1,42
 324 492 324 492 347 492 c 0,43,44
 377 492 377 492 377 464 c 0,45,46
 377 447 377 447 358.5 431 c 128,-1,47
 340 415 340 415 318 415 c 0,48,49
 281 415 281 415 281 445 c 0,40,41
EndSplineSet
EndChar

StartChar: iacute
Encoding: 237 237 173
Width: 241
GlyphClass: 2
Flags: W
LayerCount: 2
Fore
SplineSet
-5 58 m 0,0,1
 -5 97 -5 97 16 163 c 128,-1,2
 37 229 37 229 72 284 c 128,-1,3
 107 339 107 339 139 339 c 0,4,5
 161 339 161 339 161 317 c 0,6,7
 161 305 161 305 135 262 c 128,-1,8
 109 219 109 219 83 164.5 c 128,-1,9
 57 110 57 110 57 69 c 0,10,11
 57 34 57 34 68.5 21.5 c 128,-1,12
 80 9 80 9 106 9 c 0,13,14
 184 9 184 9 260 162 c 1,15,-1
 269 152 l 1,16,17
 241 68 241 68 186.5 21 c 128,-1,18
 132 -26 132 -26 72 -26 c 0,19,20
 35 -26 35 -26 15 -2.5 c 128,-1,21
 -5 21 -5 21 -5 58 c 0,0,1
164 436 m 0,22,23
 164 457 164 457 202.5 507 c 128,-1,24
 241 557 241 557 268 557 c 0,25,26
 287 557 287 557 290 526 c 1,27,28
 216 462 216 462 178 410 c 1,29,30
 164 417 164 417 164 436 c 0,22,23
EndSplineSet
EndChar

StartChar: icircumflex
Encoding: 238 238 174
Width: 241
GlyphClass: 2
Flags: W
LayerCount: 2
Fore
SplineSet
-5 58 m 0,0,1
 -5 97 -5 97 16 163 c 128,-1,2
 37 229 37 229 72 284 c 128,-1,3
 107 339 107 339 139 339 c 0,4,5
 161 339 161 339 161 317 c 0,6,7
 161 305 161 305 135 262 c 128,-1,8
 109 219 109 219 83 164.5 c 128,-1,9
 57 110 57 110 57 69 c 0,10,11
 57 34 57 34 68.5 21.5 c 128,-1,12
 80 9 80 9 106 9 c 0,13,14
 184 9 184 9 260 162 c 1,15,-1
 269 152 l 1,16,17
 241 68 241 68 186.5 21 c 128,-1,18
 132 -26 132 -26 72 -26 c 0,19,20
 35 -26 35 -26 15 -2.5 c 128,-1,21
 -5 21 -5 21 -5 58 c 0,0,1
100 460 m 0,22,23
 100 487 100 487 145 517.5 c 128,-1,24
 190 548 190 548 214 548 c 128,-1,25
 238 548 238 548 271 508.5 c 128,-1,26
 304 469 304 469 304 437 c 0,27,28
 304 414 304 414 287 406 c 1,29,30
 266 449 266 449 213 498 c 1,31,32
 146 474 146 474 110 441 c 1,33,34
 100 447 100 447 100 460 c 0,22,23
EndSplineSet
EndChar

StartChar: idieresis
Encoding: 239 239 175
Width: 241
GlyphClass: 2
Flags: W
LayerCount: 2
Fore
SplineSet
-5 58 m 0,0,1
 -5 97 -5 97 16 163 c 128,-1,2
 37 229 37 229 72 284 c 128,-1,3
 107 339 107 339 139 339 c 0,4,5
 161 339 161 339 161 317 c 0,6,7
 161 305 161 305 135 262 c 128,-1,8
 109 219 109 219 83 164.5 c 128,-1,9
 57 110 57 110 57 69 c 0,10,11
 57 34 57 34 68.5 21.5 c 128,-1,12
 80 9 80 9 106 9 c 0,13,14
 184 9 184 9 260 162 c 1,15,-1
 269 152 l 1,16,17
 241 68 241 68 186.5 21 c 128,-1,18
 132 -26 132 -26 72 -26 c 0,19,20
 35 -26 35 -26 15 -2.5 c 128,-1,21
 -5 21 -5 21 -5 58 c 0,0,1
59 466 m 0,22,23
 59 484 59 484 80.5 498.5 c 128,-1,24
 102 513 102 513 125 513 c 0,25,26
 155 513 155 513 155 485 c 0,27,28
 155 468 155 468 136.5 452 c 128,-1,29
 118 436 118 436 96 436 c 0,30,31
 59 436 59 436 59 466 c 0,22,23
203 445 m 0,32,33
 203 463 203 463 224.5 477.5 c 128,-1,34
 246 492 246 492 269 492 c 0,35,36
 299 492 299 492 299 464 c 0,37,38
 299 447 299 447 280.5 431 c 128,-1,39
 262 415 262 415 240 415 c 0,40,41
 203 415 203 415 203 445 c 0,32,33
EndSplineSet
EndChar

StartChar: eth
Encoding: 240 240 176
Width: 473
GlyphClass: 2
Flags: W
LayerCount: 2
Fore
SplineSet
-16 54 m 0,0,1
 -16 109 -16 109 24.5 181 c 128,-1,2
 65 253 65 253 129.5 306.5 c 128,-1,3
 194 360 194 360 253 360 c 0,4,5
 297 360 297 360 297 329 c 0,6,7
 297 325 297 325 295 315 c 1,8,9
 284 330 284 330 257 330 c 0,10,11
 207 330 207 330 158 279.5 c 128,-1,12
 109 229 109 229 81.5 168 c 128,-1,13
 54 107 54 107 54 66 c 0,14,15
 54 44 54 44 63.5 31 c 128,-1,16
 73 18 73 18 90 18 c 0,17,18
 134 18 134 18 199.5 100 c 128,-1,19
 265 182 265 182 307 293 c 0,20,21
 352 410 352 410 352 489 c 0,22,23
 352 512 352 512 348 532 c 1,24,25
 279 522 279 522 233 509 c 1,26,27
 233 528 233 528 250 540 c 128,-1,28
 267 552 267 552 286.5 556.5 c 128,-1,29
 306 561 306 561 341 566 c 1,30,31
 320 642 320 642 254 700 c 1,32,33
 269 719 269 719 293 719 c 0,34,35
 335 719 335 719 366 677 c 128,-1,36
 397 635 397 635 412 574 c 1,37,38
 478 578 478 578 503 586 c 1,39,40
 488 562 488 562 472 554.5 c 128,-1,41
 456 547 456 547 418 542 c 1,42,43
 422 519 422 519 422 495 c 0,44,45
 422 424 422 424 366 266 c 128,-1,46
 310 108 310 108 310 57 c 0,47,48
 310 14 310 14 338 14 c 0,49,50
 371 14 371 14 416.5 55.5 c 128,-1,51
 462 97 462 97 492 162 c 1,52,-1
 504 153 l 1,53,54
 475 77 475 77 418.5 25.5 c 128,-1,55
 362 -26 362 -26 310 -26 c 0,56,57
 276 -26 276 -26 260 -4 c 128,-1,58
 244 18 244 18 244 49 c 0,59,60
 244 83 244 83 263 156 c 1,61,62
 212 72 212 72 157.5 21 c 128,-1,63
 103 -30 103 -30 59 -30 c 0,64,65
 30 -30 30 -30 7 -8.5 c 128,-1,66
 -16 13 -16 13 -16 54 c 0,0,1
EndSplineSet
EndChar

StartChar: ntilde
Encoding: 241 241 177
Width: 466
GlyphClass: 2
Flags: W
LayerCount: 2
Fore
SplineSet
-38 7 m 1,0,1
 -38 10 -38 10 -20.5 54 c 128,-1,2
 -3 98 -3 98 15 156.5 c 128,-1,3
 33 215 33 215 33 253 c 1,4,5
 52 274 52 274 79 274 c 128,-1,6
 106 274 106 274 106 248 c 0,7,8
 106 214 106 214 74 116 c 1,9,10
 189 292 189 292 282 292 c 0,11,12
 318 292 318 292 337 265.5 c 128,-1,13
 356 239 356 239 356 202 c 0,14,15
 356 169 356 169 335.5 118 c 128,-1,16
 315 67 315 67 315 44 c 0,17,18
 315 6 315 6 345 6 c 0,19,20
 407 6 407 6 485 162 c 1,21,-1
 496 149 l 1,22,23
 424 -20 424 -20 323 -20 c 0,24,25
 289 -20 289 -20 271 -2.5 c 128,-1,26
 253 15 253 15 253 44 c 0,27,28
 253 64 253 64 267.5 111.5 c 128,-1,29
 282 159 282 159 282 183 c 0,30,31
 282 232 282 232 242 232 c 0,32,33
 218 232 218 232 190.5 213 c 128,-1,34
 163 194 163 194 142 172 c 128,-1,35
 121 150 121 150 92.5 108 c 128,-1,36
 64 66 64 66 52 46 c 2,37,-1
 15 -15 l 1,38,39
 -22 -15 -22 -15 -38 7 c 1,0,1
98 421 m 1,40,41
 133 467 133 467 181 467 c 0,42,43
 207 467 207 467 271.5 445 c 128,-1,44
 336 423 336 423 375 423 c 0,45,46
 390 423 390 423 405 426 c 1,47,48
 373 390 373 390 327 390 c 0,49,50
 299 390 299 390 237.5 409.5 c 128,-1,51
 176 429 176 429 144 429 c 0,52,53
 118 429 118 429 98 421 c 1,40,41
EndSplineSet
EndChar

StartChar: ograve
Encoding: 242 242 178
Width: 365
GlyphClass: 2
Flags: W
LayerCount: 2
Fore
SplineSet
-10 59 m 0,0,1
 -10 123 -10 123 26.5 186.5 c 128,-1,2
 63 250 63 250 105 250 c 0,3,4
 114 250 114 250 126 245 c 1,5,6
 107 229 107 229 81 165.5 c 128,-1,7
 55 102 55 102 55 66 c 0,8,9
 55 9 55 9 91 9 c 0,10,11
 135 9 135 9 198 89 c 1,12,13
 170 112 170 112 154.5 149 c 128,-1,14
 139 186 139 186 139 226 c 0,15,16
 139 278 139 278 165.5 315 c 128,-1,17
 192 352 192 352 237 352 c 0,18,19
 306 352 306 352 306 275 c 0,20,21
 306 197 306 197 239 97 c 1,22,23
 257 87 257 87 277 87 c 0,24,25
 306 87 306 87 337 104.5 c 128,-1,26
 368 122 368 122 384 159 c 1,27,-1
 396 149 l 1,28,29
 377 105 377 105 342 84 c 128,-1,30
 307 63 307 63 270 63 c 0,31,32
 243 63 243 63 222 73 c 1,33,34
 142 -32 142 -32 69 -32 c 0,35,36
 28 -32 28 -32 9 -7 c 128,-1,37
 -10 18 -10 18 -10 59 c 0,0,1
182 223 m 0,38,39
 182 155 182 155 216 115 c 1,40,41
 274 201 274 201 274 269 c 0,42,43
 274 325 274 325 244 325 c 0,44,45
 222 325 222 325 202 294.5 c 128,-1,46
 182 264 182 264 182 223 c 0,38,39
187 526 m 1,47,48
 190 557 190 557 209 557 c 0,49,50
 236 557 236 557 274.5 507 c 128,-1,51
 313 457 313 457 313 436 c 0,52,53
 313 417 313 417 299 410 c 1,54,55
 261 462 261 462 187 526 c 1,47,48
EndSplineSet
EndChar

StartChar: ocircumflex
Encoding: 244 244 180
Width: 365
GlyphClass: 2
Flags: W
LayerCount: 2
Fore
SplineSet
-10 59 m 0,0,1
 -10 123 -10 123 26.5 186.5 c 128,-1,2
 63 250 63 250 105 250 c 0,3,4
 114 250 114 250 126 245 c 1,5,6
 107 229 107 229 81 165.5 c 128,-1,7
 55 102 55 102 55 66 c 0,8,9
 55 9 55 9 91 9 c 0,10,11
 135 9 135 9 198 89 c 1,12,13
 170 112 170 112 154.5 149 c 128,-1,14
 139 186 139 186 139 226 c 0,15,16
 139 278 139 278 165.5 315 c 128,-1,17
 192 352 192 352 237 352 c 0,18,19
 306 352 306 352 306 275 c 0,20,21
 306 197 306 197 239 97 c 1,22,23
 257 87 257 87 277 87 c 0,24,25
 306 87 306 87 337 104.5 c 128,-1,26
 368 122 368 122 384 159 c 1,27,-1
 396 149 l 1,28,29
 377 105 377 105 342 84 c 128,-1,30
 307 63 307 63 270 63 c 0,31,32
 243 63 243 63 222 73 c 1,33,34
 142 -32 142 -32 69 -32 c 0,35,36
 28 -32 28 -32 9 -7 c 128,-1,37
 -10 18 -10 18 -10 59 c 0,0,1
177 460 m 0,38,39
 177 487 177 487 222 517.5 c 128,-1,40
 267 548 267 548 291 548 c 128,-1,41
 315 548 315 548 348 508.5 c 128,-1,42
 381 469 381 469 381 437 c 0,43,44
 381 414 381 414 364 406 c 1,45,46
 343 449 343 449 290 498 c 1,47,48
 223 474 223 474 187 441 c 1,49,50
 177 447 177 447 177 460 c 0,38,39
182 223 m 0,51,52
 182 155 182 155 216 115 c 1,53,54
 274 201 274 201 274 269 c 0,55,56
 274 325 274 325 244 325 c 0,57,58
 222 325 222 325 202 294.5 c 128,-1,59
 182 264 182 264 182 223 c 0,51,52
EndSplineSet
EndChar

StartChar: odieresis
Encoding: 246 246 182
Width: 365
GlyphClass: 2
Flags: W
LayerCount: 2
Fore
SplineSet
-10 59 m 0,0,1
 -10 123 -10 123 26.5 186.5 c 128,-1,2
 63 250 63 250 105 250 c 0,3,4
 114 250 114 250 126 245 c 1,5,6
 107 229 107 229 81 165.5 c 128,-1,7
 55 102 55 102 55 66 c 0,8,9
 55 9 55 9 91 9 c 0,10,11
 135 9 135 9 198 89 c 1,12,13
 170 112 170 112 154.5 149 c 128,-1,14
 139 186 139 186 139 226 c 0,15,16
 139 278 139 278 165.5 315 c 128,-1,17
 192 352 192 352 237 352 c 0,18,19
 306 352 306 352 306 275 c 0,20,21
 306 197 306 197 239 97 c 1,22,23
 257 87 257 87 277 87 c 0,24,25
 306 87 306 87 337 104.5 c 128,-1,26
 368 122 368 122 384 159 c 1,27,-1
 396 149 l 1,28,29
 377 105 377 105 342 84 c 128,-1,30
 307 63 307 63 270 63 c 0,31,32
 243 63 243 63 222 73 c 1,33,34
 142 -32 142 -32 69 -32 c 0,35,36
 28 -32 28 -32 9 -7 c 128,-1,37
 -10 18 -10 18 -10 59 c 0,0,1
130 466 m 0,38,39
 130 484 130 484 151.5 498.5 c 128,-1,40
 173 513 173 513 196 513 c 0,41,42
 226 513 226 513 226 485 c 0,43,44
 226 468 226 468 207.5 452 c 128,-1,45
 189 436 189 436 167 436 c 0,46,47
 130 436 130 436 130 466 c 0,38,39
182 223 m 0,48,49
 182 155 182 155 216 115 c 1,50,51
 274 201 274 201 274 269 c 0,52,53
 274 325 274 325 244 325 c 0,54,55
 222 325 222 325 202 294.5 c 128,-1,56
 182 264 182 264 182 223 c 0,48,49
274 445 m 0,57,58
 274 463 274 463 295.5 477.5 c 128,-1,59
 317 492 317 492 340 492 c 0,60,61
 370 492 370 492 370 464 c 0,62,63
 370 447 370 447 351.5 431 c 128,-1,64
 333 415 333 415 311 415 c 0,65,66
 274 415 274 415 274 445 c 0,57,58
EndSplineSet
EndChar

StartChar: divide
Encoding: 247 247 183
Width: 460
GlyphClass: 2
Flags: W
LayerCount: 2
Fore
SplineSet
25 124 m 1,0,1
 43 173 43 173 214 173 c 0,2,3
 295 173 295 173 382 164 c 1,4,5
 359 148 359 148 322 141.5 c 128,-1,6
 285 135 285 135 206 135 c 0,7,8
 96 135 96 135 25 124 c 1,0,1
139 17 m 0,9,10
 139 33 139 33 158 45.5 c 128,-1,11
 177 58 177 58 197 58 c 0,12,13
 223 58 223 58 223 34 c 0,14,15
 223 19 223 19 206.5 4.5 c 128,-1,16
 190 -10 190 -10 171 -10 c 0,17,18
 139 -10 139 -10 139 17 c 0,9,10
199 267 m 0,19,20
 199 283 199 283 218 295.5 c 128,-1,21
 237 308 237 308 257 308 c 0,22,23
 283 308 283 308 283 284 c 0,24,25
 283 269 283 269 266.5 254.5 c 128,-1,26
 250 240 250 240 231 240 c 0,27,28
 199 240 199 240 199 267 c 0,19,20
EndSplineSet
EndChar

StartChar: oslash
Encoding: 248 248 184
Width: 404
GlyphClass: 2
Flags: W
LayerCount: 2
Fore
SplineSet
-65 -63 m 1,0,1
 -38 -50 -38 -50 5 -3 c 1,2,3
 -12 20 -12 20 -12 55 c 0,4,5
 -12 109 -12 109 23 178 c 128,-1,6
 58 247 58 247 116 299.5 c 128,-1,7
 174 352 174 352 230 352 c 0,8,9
 248 352 248 352 260 345 c 1,10,-1
 276 372 l 2,11,12
 285 387 285 387 321 387 c 0,13,14
 323 387 323 387 327.5 386.5 c 128,-1,15
 332 386 332 386 334 386 c 1,16,17
 331 383 331 383 326 375 c 2,18,-1
 312 353 l 2,19,20
 304 339 304 339 296 327 c 1,21,22
 314 315 314 315 314 293 c 0,23,24
 314 284 314 284 294.5 240.5 c 128,-1,25
 275 197 275 197 275 167 c 0,26,27
 275 130 275 130 296 107 c 128,-1,28
 317 84 317 84 345 84 c 0,29,30
 387 84 387 84 424 160 c 1,31,-1
 437 150 l 1,32,33
 400 64 400 64 337 64 c 0,34,35
 308 64 308 64 283 82 c 128,-1,36
 258 100 258 100 243 134 c 1,37,38
 210 58 210 58 164.5 13 c 128,-1,39
 119 -32 119 -32 68 -32 c 0,40,41
 47 -32 47 -32 31 -24 c 1,42,43
 -19 -64 -19 -64 -52 -64 c 0,44,45
 -61 -64 -61 -64 -65 -63 c 1,0,1
52 51 m 1,46,47
 147 168 147 168 239 312 c 1,48,49
 188 309 188 309 143 261.5 c 128,-1,50
 98 214 98 214 75 158 c 128,-1,51
 52 102 52 102 52 62 c 2,52,-1
 52 51 l 1,46,47
74 14 m 1,53,54
 82 11 82 11 90 11 c 0,55,56
 124 11 124 11 165 55.5 c 128,-1,57
 206 100 206 100 233 165 c 1,58,59
 227 188 227 188 227 218 c 1,60,61
 123 62 123 62 79 19 c 2,62,-1
 74 14 l 1,53,54
EndSplineSet
EndChar

StartChar: ugrave
Encoding: 249 249 185
Width: 438
GlyphClass: 2
Flags: W
LayerCount: 2
Fore
SplineSet
0 71 m 0,0,1
 0 128 0 128 33 213 c 128,-1,2
 66 298 66 298 88 298 c 0,3,4
 107 298 107 298 125 278 c 1,5,6
 104 245 104 245 81 183.5 c 128,-1,7
 58 122 58 122 58 77 c 0,8,9
 58 10 58 10 94 10 c 0,10,11
 107 10 107 10 121.5 20 c 128,-1,12
 136 30 136 30 151 49.5 c 128,-1,13
 166 69 166 69 179.5 88.5 c 128,-1,14
 193 108 193 108 208 137 c 2,15,-1
 234 186 l 1,16,-1
 258 234 l 1,17,18
 271 263 271 263 276 271 c 1,19,20
 324 262 324 262 324 245 c 0,21,22
 324 242 324 242 307 204.5 c 128,-1,23
 290 167 290 167 273.5 118 c 128,-1,24
 257 69 257 69 257 40 c 0,25,26
 257 0 257 0 290 0 c 0,27,28
 324 0 324 0 373 44.5 c 128,-1,29
 422 89 422 89 457 162 c 1,30,-1
 470 153 l 1,31,32
 438 73 438 73 380.5 21.5 c 128,-1,33
 323 -30 323 -30 269 -30 c 0,34,35
 199 -30 199 -30 199 44 c 0,36,37
 199 64 199 64 206 94 c 1,38,39
 136 -30 136 -30 75 -30 c 0,40,41
 42 -30 42 -30 21 -0.5 c 128,-1,42
 0 29 0 29 0 71 c 0,0,1
164 526 m 1,43,44
 167 557 167 557 186 557 c 0,45,46
 213 557 213 557 251.5 507 c 128,-1,47
 290 457 290 457 290 436 c 0,48,49
 290 417 290 417 276 410 c 1,50,51
 238 462 238 462 164 526 c 1,43,44
EndSplineSet
EndChar

StartChar: udieresis
Encoding: 252 252 188
Width: 438
GlyphClass: 2
Flags: W
LayerCount: 2
Fore
SplineSet
0 71 m 0,0,1
 0 128 0 128 33 213 c 128,-1,2
 66 298 66 298 88 298 c 0,3,4
 107 298 107 298 125 278 c 1,5,6
 104 245 104 245 81 183.5 c 128,-1,7
 58 122 58 122 58 77 c 0,8,9
 58 10 58 10 94 10 c 0,10,11
 107 10 107 10 121.5 20 c 128,-1,12
 136 30 136 30 151 49.5 c 128,-1,13
 166 69 166 69 179.5 88.5 c 128,-1,14
 193 108 193 108 208 137 c 2,15,-1
 234 186 l 1,16,-1
 258 234 l 1,17,18
 271 263 271 263 276 271 c 1,19,20
 324 262 324 262 324 245 c 0,21,22
 324 242 324 242 307 204.5 c 128,-1,23
 290 167 290 167 273.5 118 c 128,-1,24
 257 69 257 69 257 40 c 0,25,26
 257 0 257 0 290 0 c 0,27,28
 324 0 324 0 373 44.5 c 128,-1,29
 422 89 422 89 457 162 c 1,30,-1
 470 153 l 1,31,32
 438 73 438 73 380.5 21.5 c 128,-1,33
 323 -30 323 -30 269 -30 c 0,34,35
 199 -30 199 -30 199 44 c 0,36,37
 199 64 199 64 206 94 c 1,38,39
 136 -30 136 -30 75 -30 c 0,40,41
 42 -30 42 -30 21 -0.5 c 128,-1,42
 0 29 0 29 0 71 c 0,0,1
126 466 m 0,43,44
 126 484 126 484 147.5 498.5 c 128,-1,45
 169 513 169 513 192 513 c 0,46,47
 222 513 222 513 222 485 c 0,48,49
 222 468 222 468 203.5 452 c 128,-1,50
 185 436 185 436 163 436 c 0,51,52
 126 436 126 436 126 466 c 0,43,44
270 445 m 0,53,54
 270 463 270 463 291.5 477.5 c 128,-1,55
 313 492 313 492 336 492 c 0,56,57
 366 492 366 492 366 464 c 0,58,59
 366 447 366 447 347.5 431 c 128,-1,60
 329 415 329 415 307 415 c 0,61,62
 270 415 270 415 270 445 c 0,53,54
EndSplineSet
EndChar

StartChar: yacute
Encoding: 253 253 189
Width: 389
GlyphClass: 2
Flags: W
LayerCount: 2
Fore
SplineSet
-20 -227 m 128,-1,1
 -20 -202 -20 -202 -8 -179.5 c 128,-1,2
 4 -157 4 -157 17.5 -142 c 128,-1,3
 31 -127 31 -127 63.5 -106.5 c 128,-1,4
 96 -86 96 -86 114 -77 c 2,5,-1
 174 -46 l 1,6,7
 204 31 204 31 230 137 c 1,8,9
 152 10 152 10 84 10 c 0,10,11
 52 10 52 10 28 31 c 128,-1,12
 4 52 4 52 4 91 c 0,13,14
 4 146 4 146 37 227.5 c 128,-1,15
 70 309 70 309 92 309 c 0,16,17
 101 309 101 309 118.5 301.5 c 128,-1,18
 136 294 136 294 136 286 c 1,19,20
 116 257 116 257 93 192.5 c 128,-1,21
 70 128 70 128 70 90 c 0,22,23
 70 50 70 50 106 50 c 0,24,25
 133 50 133 50 169.5 87 c 128,-1,26
 206 124 206 124 239 178 c 1,27,28
 244 195 244 195 249 224 c 1,29,30
 260 275 260 275 300 275 c 0,31,32
 309 275 309 275 321 272 c 1,33,34
 321 245 321 245 298.5 161 c 128,-1,35
 276 77 276 77 243 -8 c 1,36,37
 356 36 356 36 408 162 c 1,38,-1
 421 152 l 1,39,40
 384 35 384 35 232 -35 c 1,41,42
 132 -280 132 -280 43 -280 c 0,43,44
 16 -280 16 -280 -2 -266 c 128,-1,0
 -20 -252 -20 -252 -20 -227 c 128,-1,1
11 -218 m 0,45,46
 11 -228 11 -228 18 -238 c 128,-1,47
 25 -248 25 -248 38 -248 c 0,48,49
 49 -248 49 -248 67 -232 c 128,-1,50
 85 -216 85 -216 112 -173.5 c 128,-1,51
 139 -131 139 -131 164 -70 c 1,52,53
 124 -91 124 -91 103.5 -103.5 c 128,-1,54
 83 -116 83 -116 58 -135 c 128,-1,55
 33 -154 33 -154 22 -174 c 128,-1,56
 11 -194 11 -194 11 -218 c 0,45,46
244 396 m 0,57,58
 244 417 244 417 282.5 467 c 128,-1,59
 321 517 321 517 348 517 c 0,60,61
 367 517 367 517 370 486 c 1,62,63
 296 422 296 422 258 370 c 1,64,65
 244 377 244 377 244 396 c 0,57,58
EndSplineSet
EndChar

StartChar: thorn
Encoding: 254 254 190
Width: 391
GlyphClass: 2
Flags: W
LayerCount: 2
Fore
SplineSet
-94 -242 m 0,0,1
 -91 -230 -91 -230 -71 -159 c 2,2,-1
 -42 -61 l 2,3,4
 -34 -33 -34 -33 -16 41 c 128,-1,5
 2 115 2 115 13 173 c 128,-1,6
 24 231 24 231 38 320.5 c 128,-1,7
 52 410 52 410 64 506 c 0,8,9
 65 516 65 516 68.5 519.5 c 128,-1,10
 72 523 72 523 83 523 c 0,11,12
 107 523 107 523 119 509.5 c 128,-1,13
 131 496 131 496 131 477 c 0,14,15
 131 462 131 462 113.5 350.5 c 128,-1,16
 96 239 96 239 86 192 c 1,17,18
 117 252 117 252 161.5 295.5 c 128,-1,19
 206 339 206 339 259 339 c 0,20,21
 303 339 303 339 331.5 307.5 c 128,-1,22
 360 276 360 276 360 225 c 0,23,24
 360 139 360 139 290.5 56.5 c 128,-1,25
 221 -26 221 -26 124 -26 c 0,26,27
 99 -26 99 -26 82.5 -20.5 c 128,-1,28
 66 -15 66 -15 66 -8 c 0,29,30
 66 -3 66 -3 91 -3 c 0,31,32
 169 -3 169 -3 232 67 c 128,-1,33
 295 137 295 137 295 216 c 0,34,35
 295 250 295 250 280.5 271.5 c 128,-1,36
 266 293 266 293 238 293 c 0,37,38
 191 293 191 293 143.5 240 c 128,-1,39
 96 187 96 187 72 132 c 1,40,41
 -16 -241 -16 -241 -51 -275 c 0,42,43
 -56 -280 -56 -280 -63 -280 c 0,44,45
 -74 -280 -74 -280 -84.5 -263.5 c 128,-1,46
 -95 -247 -95 -247 -94 -242 c 0,0,1
EndSplineSet
EndChar

StartChar: ydieresis
Encoding: 255 255 191
Width: 389
GlyphClass: 2
Flags: W
LayerCount: 2
Fore
SplineSet
-20 -227 m 128,-1,1
 -20 -202 -20 -202 -8 -179.5 c 128,-1,2
 4 -157 4 -157 17.5 -142 c 128,-1,3
 31 -127 31 -127 63.5 -106.5 c 128,-1,4
 96 -86 96 -86 114 -77 c 2,5,-1
 174 -46 l 1,6,7
 204 31 204 31 230 137 c 1,8,9
 152 10 152 10 84 10 c 0,10,11
 52 10 52 10 28 31 c 128,-1,12
 4 52 4 52 4 91 c 0,13,14
 4 146 4 146 37 227.5 c 128,-1,15
 70 309 70 309 92 309 c 0,16,17
 101 309 101 309 118.5 301.5 c 128,-1,18
 136 294 136 294 136 286 c 1,19,20
 116 257 116 257 93 192.5 c 128,-1,21
 70 128 70 128 70 90 c 0,22,23
 70 50 70 50 106 50 c 0,24,25
 133 50 133 50 169.5 87 c 128,-1,26
 206 124 206 124 239 178 c 1,27,28
 244 195 244 195 249 224 c 1,29,30
 260 275 260 275 300 275 c 0,31,32
 309 275 309 275 321 272 c 1,33,34
 321 245 321 245 298.5 161 c 128,-1,35
 276 77 276 77 243 -8 c 1,36,37
 356 36 356 36 408 162 c 1,38,-1
 421 152 l 1,39,40
 384 35 384 35 232 -35 c 1,41,42
 132 -280 132 -280 43 -280 c 0,43,44
 16 -280 16 -280 -2 -266 c 128,-1,0
 -20 -252 -20 -252 -20 -227 c 128,-1,1
11 -218 m 0,45,46
 11 -228 11 -228 18 -238 c 128,-1,47
 25 -248 25 -248 38 -248 c 0,48,49
 49 -248 49 -248 67 -232 c 128,-1,50
 85 -216 85 -216 112 -173.5 c 128,-1,51
 139 -131 139 -131 164 -70 c 1,52,53
 124 -91 124 -91 103.5 -103.5 c 128,-1,54
 83 -116 83 -116 58 -135 c 128,-1,55
 33 -154 33 -154 22 -174 c 128,-1,56
 11 -194 11 -194 11 -218 c 0,45,46
126 466 m 0,57,58
 126 484 126 484 147.5 498.5 c 128,-1,59
 169 513 169 513 192 513 c 0,60,61
 222 513 222 513 222 485 c 0,62,63
 222 468 222 468 203.5 452 c 128,-1,64
 185 436 185 436 163 436 c 0,65,66
 126 436 126 436 126 466 c 0,57,58
270 445 m 0,67,68
 270 463 270 463 291.5 477.5 c 128,-1,69
 313 492 313 492 336 492 c 0,70,71
 366 492 366 492 366 464 c 0,72,73
 366 447 366 447 347.5 431 c 128,-1,74
 329 415 329 415 307 415 c 0,75,76
 270 415 270 415 270 445 c 0,67,68
EndSplineSet
EndChar

StartChar: OE
Encoding: 338 338 193
Width: 799
GlyphClass: 2
Flags: W
LayerCount: 2
Fore
SplineSet
21 161 m 0,0,1
 21 255 21 255 59 356.5 c 128,-1,2
 97 458 97 458 156 537 c 128,-1,3
 215 616 215 616 290 667.5 c 128,-1,4
 365 719 365 719 435 719 c 0,5,6
 472 719 472 719 495 707 c 1,7,-1
 484 707 l 2,8,9
 422 707 422 707 353.5 653.5 c 128,-1,10
 285 600 285 600 232 518.5 c 128,-1,11
 179 437 179 437 144 336.5 c 128,-1,12
 109 236 109 236 109 147 c 0,13,14
 109 60 109 60 142.5 3.5 c 128,-1,15
 176 -53 176 -53 243 -53 c 0,16,17
 320 -53 320 -53 388.5 37.5 c 128,-1,18
 457 128 457 128 495 256.5 c 128,-1,19
 533 385 533 385 533 505 c 0,20,21
 533 632 533 632 503 632 c 0,22,23
 466 632 466 632 384 429 c 1,24,25
 336 440 336 440 336 478 c 0,26,27
 336 531 336 531 402 600.5 c 128,-1,28
 468 670 468 670 519 670 c 1,29,30
 585 674 585 674 633 674 c 0,31,32
 776 674 776 674 827 657 c 1,33,34
 814 621 814 621 657 621 c 0,35,36
 640 621 640 621 615 622.5 c 128,-1,37
 590 624 590 624 577 624 c 1,38,39
 588 591 588 591 588 546 c 0,40,41
 588 448 588 448 575 365 c 1,42,43
 711 365 711 365 778 355 c 1,44,45
 760 306 760 306 639 306 c 0,46,47
 603 306 603 306 565 308 c 1,48,49
 531 153 531 153 499 76 c 128,-1,50
 467 -1 467 -1 401 -42 c 1,51,52
 453 -44 453 -44 568 -44 c 0,53,54
 580 -44 580 -44 625 -42 c 128,-1,55
 670 -40 670 -40 687 -40 c 0,56,57
 703 -40 703 -40 707 -41 c 1,58,59
 698 -64 698 -64 607.5 -76 c 128,-1,60
 517 -88 517 -88 409 -88 c 0,61,62
 382 -88 382 -88 323.5 -87.5 c 128,-1,63
 265 -87 265 -87 236 -87 c 0,64,65
 137 -87 137 -87 79 -24.5 c 128,-1,66
 21 38 21 38 21 161 c 0,0,1
EndSplineSet
EndChar

StartChar: oe
Encoding: 339 339 194
Width: 543
GlyphClass: 2
Flags: W
LayerCount: 2
Fore
SplineSet
-26 36 m 0,0,1
 -26 95 -26 95 15.5 167 c 128,-1,2
 57 239 57 239 123 291 c 128,-1,3
 189 343 189 343 251 343 c 0,4,5
 305 343 305 343 320 301 c 1,6,7
 387 360 387 360 451 360 c 0,8,9
 513 360 513 360 513 299 c 0,10,11
 513 226 513 226 435 170 c 128,-1,12
 357 114 357 114 265 105 c 1,13,14
 261 88 261 88 261 69 c 0,15,16
 261 -15 261 -15 340 -15 c 0,17,18
 401 -15 401 -15 463 36 c 128,-1,19
 525 87 525 87 564 162 c 1,20,-1
 576 153 l 1,21,22
 536 64 536 64 465 10 c 128,-1,23
 394 -44 394 -44 319 -44 c 0,24,25
 262 -44 262 -44 230.5 -13.5 c 128,-1,26
 199 17 199 17 197 66 c 1,27,28
 153 8 153 8 118 -19.5 c 128,-1,29
 83 -47 83 -47 48 -47 c 0,30,31
 15 -47 15 -47 -5.5 -25.5 c 128,-1,32
 -26 -4 -26 -4 -26 36 c 0,0,1
43 33 m 0,33,34
 43 -6 43 -6 70 -6 c 0,35,36
 116 -6 116 -6 199 99 c 1,37,-1
 202 114 l 1,38,39
 170 125 170 125 152.5 154.5 c 128,-1,40
 135 184 135 184 135 219 c 0,41,42
 135 234 135 234 138 247 c 1,43,44
 97 200 97 200 70 138.5 c 128,-1,45
 43 77 43 77 43 33 c 0,33,34
174 204 m 0,46,47
 174 164 174 164 209 140 c 1,48,49
 235 216 235 216 296 278 c 1,50,51
 287 316 287 316 249 316 c 0,52,53
 221 316 221 316 197.5 282 c 128,-1,54
 174 248 174 248 174 204 c 0,46,47
270 124 m 1,55,56
 340 149 340 149 404.5 199 c 128,-1,57
 469 249 469 249 469 306 c 0,58,59
 469 329 469 329 448 329 c 0,60,61
 401 329 401 329 346 263.5 c 128,-1,62
 291 198 291 198 270 124 c 1,55,56
EndSplineSet
EndChar

StartChar: scaron
Encoding: 353 353 196
Width: 345
GlyphClass: 2
Flags: W
LayerCount: 2
Fore
SplineSet
-20 80 m 0,0,1
 -20 107 -20 107 -11.5 125.5 c 128,-1,2
 -3 144 -3 144 7.5 150.5 c 128,-1,3
 18 157 18 157 29.5 162 c 128,-1,4
 41 167 41 167 44 170 c 0,5,6
 108 240 108 240 143 315 c 1,7,-1
 143 327 l 2,8,9
 143 361 143 361 154.5 378 c 128,-1,10
 166 395 166 395 182 395 c 128,-1,11
 198 395 198 395 198 382 c 0,12,13
 198 380 198 380 195 366 c 128,-1,14
 192 352 192 352 192 338 c 0,15,16
 192 308 192 308 218 227 c 128,-1,17
 244 146 244 146 244 97 c 0,18,19
 244 70 244 70 238 48 c 1,20,21
 312 61 312 61 364 161 c 1,22,-1
 373 151 l 1,23,24
 338 48 338 48 233 32 c 1,25,26
 202 -51 202 -51 105 -51 c 0,27,28
 40 -51 40 -51 10 -12 c 128,-1,29
 -20 27 -20 27 -20 80 c 0,0,1
25 81 m 0,30,31
 25 43 25 43 47.5 13.5 c 128,-1,32
 70 -16 70 -16 107 -16 c 0,33,34
 153 -16 153 -16 170 33 c 1,35,36
 130 41 130 41 97 64.5 c 128,-1,37
 64 88 64 88 47 116 c 1,38,39
 25 115 25 115 25 81 c 0,30,31
51 147 m 1,40,41
 88 68 88 68 175 49 c 1,42,43
 179 75 179 75 179 96 c 0,44,45
 179 124 179 124 174 155 c 128,-1,46
 169 186 169 186 160 223.5 c 128,-1,47
 151 261 151 261 148 277 c 1,48,49
 97 193 97 193 51 147 c 1,40,41
137 547 m 0,50,51
 137 570 137 570 154 578 c 1,52,53
 175 535 175 535 228 486 c 1,54,55
 295 510 295 510 331 543 c 1,56,57
 341 537 341 537 341 524 c 0,58,59
 341 497 341 497 296 466.5 c 128,-1,60
 251 436 251 436 227 436 c 128,-1,61
 203 436 203 436 170 475.5 c 128,-1,62
 137 515 137 515 137 547 c 0,50,51
EndSplineSet
EndChar

StartChar: florin
Encoding: 402 402 200
Width: 393
GlyphClass: 2
Flags: W
LayerCount: 2
Fore
SplineSet
-239 -126 m 0,0,1
 -239 -70 -239 -70 -179 -50 c 1,2,3
 -187 -77 -187 -77 -187 -103 c 0,4,5
 -187 -143 -187 -143 -164.5 -170 c 128,-1,6
 -142 -197 -142 -197 -115 -197 c 0,7,8
 -98 -197 -98 -197 -82 -189.5 c 128,-1,9
 -66 -182 -66 -182 -52 -163.5 c 128,-1,10
 -38 -145 -38 -145 -26.5 -127 c 128,-1,11
 -15 -109 -15 -109 -2.5 -76 c 128,-1,12
 10 -43 10 -43 18 -18.5 c 128,-1,13
 26 6 26 6 38 51 c 2,14,-1
 56 122 l 1,15,-1
 75 199 l 1,16,-1
 94 277 l 1,17,18
 48 273 48 273 32 270 c 1,19,20
 33 319 33 319 106 326 c 1,21,22
 128 413 128 413 149.5 476 c 128,-1,23
 171 539 171 539 201 598.5 c 128,-1,24
 231 658 231 658 270 689 c 128,-1,25
 309 720 309 720 356 720 c 0,26,27
 375 720 375 720 384.5 711 c 128,-1,28
 394 702 394 702 394 675 c 0,29,30
 394 599 394 599 332 499 c 128,-1,31
 270 399 270 399 183 329 c 1,32,33
 209 328 209 328 250 324.5 c 128,-1,34
 291 321 291 321 312 321 c 0,35,36
 330 321 330 321 340 324 c 1,37,38
 309 279 309 279 270 279 c 0,39,40
 262 279 262 279 226.5 279.5 c 128,-1,41
 191 280 191 280 160 280 c 2,42,-1
 142 280 l 1,43,-1
 105 131 l 2,44,45
 90 73 90 73 73.5 13.5 c 128,-1,46
 57 -46 57 -46 43 -80 c 128,-1,47
 29 -114 29 -114 12 -145.5 c 128,-1,48
 -5 -177 -5 -177 -23.5 -192.5 c 128,-1,49
 -42 -208 -42 -208 -64 -216.5 c 128,-1,50
 -86 -225 -86 -225 -114 -225 c 0,51,52
 -168 -225 -168 -225 -203.5 -197.5 c 128,-1,53
 -239 -170 -239 -170 -239 -126 c 0,0,1
163 347 m 1,54,55
 236 408 236 408 292 495 c 128,-1,56
 348 582 348 582 348 627 c 0,57,58
 348 653 348 653 327 653 c 0,59,60
 288 653 288 653 244.5 571 c 128,-1,61
 201 489 201 489 163 347 c 1,54,55
EndSplineSet
EndChar

StartChar: circumflex
Encoding: 710 710 201
Width: 203
GlyphClass: 2
Flags: W
LayerCount: 2
Fore
SplineSet
0 460 m 0,0,1
 0 487 0 487 45 517.5 c 128,-1,2
 90 548 90 548 114 548 c 128,-1,3
 138 548 138 548 171 508.5 c 128,-1,4
 204 469 204 469 204 437 c 0,5,6
 204 414 204 414 187 406 c 1,7,8
 166 449 166 449 113 498 c 1,9,10
 46 474 46 474 10 441 c 1,11,12
 0 447 0 447 0 460 c 0,0,1
EndSplineSet
EndChar

StartChar: caron
Encoding: 711 711 202
Width: 203
GlyphClass: 2
Flags: W
LayerCount: 2
Fore
SplineSet
0 517 m 0,0,1
 0 540 0 540 17 548 c 1,2,3
 38 505 38 505 91 456 c 1,4,5
 158 480 158 480 194 513 c 1,6,7
 204 507 204 507 204 494 c 0,8,9
 204 467 204 467 159 436.5 c 128,-1,10
 114 406 114 406 90 406 c 128,-1,11
 66 406 66 406 33 445.5 c 128,-1,12
 0 485 0 485 0 517 c 0,0,1
EndSplineSet
EndChar

StartChar: ring
Encoding: 730 730 203
Width: 425
GlyphClass: 2
Flags: W
LayerCount: 2
Fore
SplineSet
121 450 m 0,0,1
 121 488 121 488 157.5 525 c 128,-1,2
 194 562 194 562 243 562 c 0,3,4
 319 562 319 562 319 508 c 0,5,6
 319 470 319 470 280.5 433 c 128,-1,7
 242 396 242 396 193 396 c 0,8,9
 121 396 121 396 121 450 c 0,0,1
160 457 m 0,10,11
 160 442 160 442 171 429 c 128,-1,12
 182 416 182 416 202 416 c 0,13,14
 230 416 230 416 256 445.5 c 128,-1,15
 282 475 282 475 282 502 c 0,16,17
 282 517 282 517 270.5 528 c 128,-1,18
 259 539 259 539 238 539 c 0,19,20
 209 539 209 539 184.5 512 c 128,-1,21
 160 485 160 485 160 457 c 0,10,11
EndSplineSet
EndChar

StartChar: tilde
Encoding: 732 732 204
Width: 306
GlyphClass: 2
Flags: W
LayerCount: 2
Fore
SplineSet
0 421 m 1,0,1
 35 467 35 467 83 467 c 0,2,3
 109 467 109 467 173.5 445 c 128,-1,4
 238 423 238 423 277 423 c 0,5,6
 292 423 292 423 307 426 c 1,7,8
 275 390 275 390 229 390 c 0,9,10
 201 390 201 390 139.5 409.5 c 128,-1,11
 78 429 78 429 46 429 c 0,12,13
 20 429 20 429 0 421 c 1,0,1
EndSplineSet
EndChar

StartChar: endash
Encoding: 8211 8211 205
Width: 677
GlyphClass: 2
Flags: W
LayerCount: 2
Fore
SplineSet
25 114 m 1,0,1
 29 161 29 161 101.5 178.5 c 128,-1,2
 174 196 174 196 307 196 c 0,3,4
 393 196 393 196 479.5 187 c 128,-1,5
 566 178 566 178 614 178 c 1,6,7
 562 133 562 133 483 133 c 0,8,9
 432 133 432 133 364.5 132.5 c 128,-1,10
 297 132 297 132 273.5 132 c 128,-1,11
 250 132 250 132 211 131.5 c 128,-1,12
 172 131 172 131 159 130 c 128,-1,13
 146 129 146 129 119.5 126.5 c 128,-1,14
 93 124 93 124 74.5 121.5 c 128,-1,15
 56 119 56 119 25 114 c 1,0,1
EndSplineSet
EndChar

StartChar: emdash
Encoding: 8212 8212 206
Width: 838
GlyphClass: 2
Flags: W
LayerCount: 2
Fore
SplineSet
35 114 m 1,0,1
 40 161 40 161 130.5 178.5 c 128,-1,2
 221 196 221 196 387 196 c 0,3,4
 495 196 495 196 603 187 c 128,-1,5
 711 178 711 178 771 178 c 1,6,7
 706 133 706 133 608 133 c 0,8,9
 544 133 544 133 459.5 132.5 c 128,-1,10
 375 132 375 132 346 132 c 128,-1,11
 317 132 317 132 268 131.5 c 128,-1,12
 219 131 219 131 202.5 130 c 128,-1,13
 186 129 186 129 153 126.5 c 128,-1,14
 120 124 120 124 97 121 c 2,15,-1
 35 114 l 1,0,1
EndSplineSet
EndChar

StartChar: quoteleft
Encoding: 8216 8216 207
Width: 144
GlyphClass: 2
Flags: W
LayerCount: 2
Fore
SplineSet
126 692 m 0,0,1
 126 703 126 703 133.5 711.5 c 128,-1,2
 141 720 141 720 151 720 c 1,3,4
 155 703 155 703 179.5 667 c 128,-1,5
 204 631 204 631 212 613 c 0,6,7
 214 607 214 607 214 604 c 0,8,9
 214 587 214 587 195 576 c 1,10,11
 189 585 189 585 168 614 c 128,-1,12
 147 643 147 643 136.5 661.5 c 128,-1,13
 126 680 126 680 126 692 c 0,0,1
EndSplineSet
EndChar

StartChar: quoteright
Encoding: 8217 8217 208
Width: 125
GlyphClass: 2
Flags: W
LayerCount: 2
Fore
SplineSet
124 604 m 0,0,1
 124 607 124 607 126 613 c 0,2,3
 134 631 134 631 158.5 667 c 128,-1,4
 183 703 183 703 187 720 c 1,5,6
 197 720 197 720 204.5 711.5 c 128,-1,7
 212 703 212 703 212 692 c 0,8,9
 212 680 212 680 201.5 661.5 c 128,-1,10
 191 643 191 643 170 614 c 128,-1,11
 149 585 149 585 143 576 c 1,12,13
 124 587 124 587 124 604 c 0,0,1
EndSplineSet
EndChar

StartChar: quotesinglbase
Encoding: 8218 8218 209
Width: 196
GlyphClass: 2
Flags: W
LayerCount: 2
Fore
SplineSet
-10 -51 m 0,0,1
 -10 -18 -10 -18 10 19 c 128,-1,2
 30 56 30 56 51 56 c 0,3,4
 61 56 61 56 68.5 47.5 c 128,-1,5
 76 39 76 39 76 28 c 1,6,7
 67 19 67 19 59 8.5 c 128,-1,8
 51 -2 51 -2 46 -10 c 128,-1,9
 41 -18 41 -18 34.5 -30.5 c 128,-1,10
 28 -43 28 -43 25 -49 c 2,11,-1
 15 -69 l 2,12,13
 8 -83 8 -83 7 -88 c 1,14,15
 -10 -78 -10 -78 -10 -51 c 0,0,1
EndSplineSet
EndChar

StartChar: quotedblleft
Encoding: 8220 8220 210
Width: 254
GlyphClass: 2
Flags: W
LayerCount: 2
Fore
SplineSet
126 692 m 0,0,1
 126 703 126 703 133.5 711.5 c 128,-1,2
 141 720 141 720 151 720 c 1,3,4
 155 703 155 703 179.5 667 c 128,-1,5
 204 631 204 631 212 613 c 0,6,7
 214 607 214 607 214 604 c 0,8,9
 214 587 214 587 195 576 c 1,10,11
 189 585 189 585 168 614 c 128,-1,12
 147 643 147 643 136.5 661.5 c 128,-1,13
 126 680 126 680 126 692 c 0,0,1
236 692 m 0,14,15
 236 703 236 703 243.5 711.5 c 128,-1,16
 251 720 251 720 261 720 c 1,17,18
 265 703 265 703 289.5 667 c 128,-1,19
 314 631 314 631 322 613 c 0,20,21
 324 607 324 607 324 604 c 0,22,23
 324 587 324 587 305 576 c 1,24,25
 299 585 299 585 278 614 c 128,-1,26
 257 643 257 643 246.5 661.5 c 128,-1,27
 236 680 236 680 236 692 c 0,14,15
EndSplineSet
EndChar

StartChar: quotedblright
Encoding: 8221 8221 211
Width: 235
GlyphClass: 2
Flags: W
LayerCount: 2
Fore
SplineSet
124 604 m 0,0,1
 124 607 124 607 126 613 c 0,2,3
 134 631 134 631 158.5 667 c 128,-1,4
 183 703 183 703 187 720 c 1,5,6
 197 720 197 720 204.5 711.5 c 128,-1,7
 212 703 212 703 212 692 c 0,8,9
 212 680 212 680 201.5 661.5 c 128,-1,10
 191 643 191 643 170 614 c 128,-1,11
 149 585 149 585 143 576 c 1,12,13
 124 587 124 587 124 604 c 0,0,1
234 604 m 0,14,15
 234 607 234 607 236 613 c 0,16,17
 244 631 244 631 268.5 667 c 128,-1,18
 293 703 293 703 297 720 c 1,19,20
 307 720 307 720 314.5 711.5 c 128,-1,21
 322 703 322 703 322 692 c 0,22,23
 322 680 322 680 311.5 661.5 c 128,-1,24
 301 643 301 643 280 614 c 128,-1,25
 259 585 259 585 253 576 c 1,26,27
 234 587 234 587 234 604 c 0,14,15
EndSplineSet
EndChar

StartChar: quotedblbase
Encoding: 8222 8222 212
Width: 306
GlyphClass: 2
Flags: W
LayerCount: 2
Fore
SplineSet
-10 -51 m 0,0,1
 -10 -18 -10 -18 10 19 c 128,-1,2
 30 56 30 56 51 56 c 0,3,4
 61 56 61 56 68.5 47.5 c 128,-1,5
 76 39 76 39 76 28 c 1,6,7
 67 19 67 19 59 8.5 c 128,-1,8
 51 -2 51 -2 46 -10 c 128,-1,9
 41 -18 41 -18 34.5 -30.5 c 128,-1,10
 28 -43 28 -43 25 -49 c 2,11,-1
 15 -69 l 2,12,13
 8 -83 8 -83 7 -88 c 1,14,15
 -10 -78 -10 -78 -10 -51 c 0,0,1
100 -51 m 0,16,17
 100 -18 100 -18 120 19 c 128,-1,18
 140 56 140 56 161 56 c 0,19,20
 171 56 171 56 178.5 47.5 c 128,-1,21
 186 39 186 39 186 28 c 1,22,23
 177 19 177 19 169 8.5 c 128,-1,24
 161 -2 161 -2 156 -10 c 128,-1,25
 151 -18 151 -18 145 -31 c 1,26,-1
 135 -49 l 2,27,28
 132 -55 132 -55 125.5 -69 c 128,-1,29
 119 -83 119 -83 117 -88 c 1,30,31
 100 -78 100 -78 100 -51 c 0,16,17
EndSplineSet
EndChar

StartChar: dagger
Encoding: 8224 8224 213
Width: 381
GlyphClass: 2
Flags: W
LayerCount: 2
Fore
SplineSet
71 -27 m 1,0,1
 71 23 71 23 120 163 c 2,2,-1
 175 322 l 1,3,4
 120 317 120 317 72 308 c 1,5,6
 74 344 74 344 103 359.5 c 128,-1,7
 132 375 132 375 157 375 c 0,8,9
 164 375 164 375 176 374.5 c 128,-1,10
 188 374 188 374 195 374 c 1,11,12
 276 590 276 590 318 590 c 0,13,14
 325 590 325 590 330.5 583 c 128,-1,15
 336 576 336 576 336 567 c 0,16,17
 336 535 336 535 263 368 c 1,18,19
 368 358 368 358 375 358 c 1,20,21
 352 326 352 326 315 326 c 0,22,23
 267 326 267 326 244 325 c 1,24,25
 134 77 134 77 71 -27 c 1,0,1
EndSplineSet
EndChar

StartChar: daggerdbl
Encoding: 8225 8225 214
Width: 419
GlyphClass: 2
Flags: W
LayerCount: 2
Fore
SplineSet
38 221 m 1,0,1
 42 289 42 289 179 291 c 1,2,-1
 199 344 l 1,3,4
 151 343 151 343 96 335 c 2,5,-1
 62 330 l 1,6,7
 66 400 66 400 211 400 c 2,8,-1
 220 400 l 1,9,10
 295 590 295 590 333 590 c 0,11,12
 340 590 340 590 345.5 583 c 128,-1,13
 351 576 351 576 351 567 c 0,14,15
 351 536 351 536 290 394 c 1,16,17
 303 392 303 392 331 387 c 128,-1,18
 359 382 359 382 378 379.5 c 128,-1,19
 397 377 397 377 414 377 c 1,20,21
 391 345 391 345 354 345 c 0,22,23
 314 344 314 344 268 344 c 1,24,-1
 242 288 l 1,25,26
 265 286 265 286 315 277.5 c 128,-1,27
 365 269 365 269 390 268 c 1,28,29
 367 236 367 236 330 236 c 0,30,31
 277 235 277 235 219 235 c 1,32,33
 130 42 130 42 86 -27 c 1,34,35
 86 23 86 23 135 163 c 1,36,-1
 159 234 l 1,37,38
 120 233 120 233 72 226 c 2,39,-1
 38 221 l 1,0,1
EndSplineSet
EndChar

StartChar: bullet
Encoding: 8226 8226 215
Width: 242
GlyphClass: 2
Flags: W
LayerCount: 2
Fore
SplineSet
40 156 m 0,0,1
 40 180 40 180 62 202 c 128,-1,2
 84 224 84 224 110 224 c 0,3,4
 128 224 128 224 143 211 c 128,-1,5
 158 198 158 198 158 180 c 0,6,7
 158 159 158 159 135 138.5 c 128,-1,8
 112 118 112 118 85 118 c 0,9,10
 66 118 66 118 53 127.5 c 128,-1,11
 40 137 40 137 40 156 c 0,0,1
EndSplineSet
EndChar

StartChar: ellipsis
Encoding: 8230 8230 216
Width: 526
GlyphClass: 2
Flags: W
LayerCount: 2
Fore
SplineSet
8 17 m 0,0,1
 8 33 8 33 27 45.5 c 128,-1,2
 46 58 46 58 66 58 c 0,3,4
 92 58 92 58 92 34 c 0,5,6
 92 19 92 19 75.5 4.5 c 128,-1,7
 59 -10 59 -10 40 -10 c 0,8,9
 8 -10 8 -10 8 17 c 0,0,1
164 17 m 0,10,11
 164 33 164 33 183 45.5 c 128,-1,12
 202 58 202 58 222 58 c 0,13,14
 248 58 248 58 248 34 c 0,15,16
 248 19 248 19 231.5 4.5 c 128,-1,17
 215 -10 215 -10 196 -10 c 0,18,19
 164 -10 164 -10 164 17 c 0,10,11
320 17 m 0,20,21
 320 33 320 33 339 45.5 c 128,-1,22
 358 58 358 58 378 58 c 0,23,24
 404 58 404 58 404 34 c 0,25,26
 404 19 404 19 387.5 4.5 c 128,-1,27
 371 -10 371 -10 352 -10 c 0,28,29
 320 -10 320 -10 320 17 c 0,20,21
EndSplineSet
EndChar

StartChar: perthousand
Encoding: 8240 8240 217
Width: 987
GlyphClass: 2
Flags: W
LayerCount: 2
Fore
SplineSet
80 -87 m 1,0,1
 147 -20 147 -20 300.5 255 c 128,-1,2
 454 530 454 530 510 675 c 0,3,4
 515 690 515 690 543 705 c 128,-1,5
 571 720 571 720 594 720 c 1,6,7
 575 672 575 672 450 432.5 c 128,-1,8
 325 193 325 193 265 97 c 0,9,10
 208 6 208 6 164 -40.5 c 128,-1,11
 120 -87 120 -87 80 -87 c 1,0,1
100 455 m 0,12,13
 100 528 100 528 142.5 598.5 c 128,-1,14
 185 669 185 669 245 669 c 0,15,16
 283 669 283 669 306 640.5 c 128,-1,17
 329 612 329 612 329 565 c 0,18,19
 329 494 329 494 285.5 420.5 c 128,-1,20
 242 347 242 347 182 347 c 0,21,22
 142 347 142 347 121 378 c 128,-1,23
 100 409 100 409 100 455 c 0,12,13
155 447 m 0,24,25
 155 385 155 385 188 385 c 0,26,27
 222 385 222 385 249.5 448.5 c 128,-1,28
 277 512 277 512 277 573 c 0,29,30
 277 633 277 633 245 633 c 0,31,32
 205 633 205 633 180 569 c 128,-1,33
 155 505 155 505 155 447 c 0,24,25
423 108 m 0,34,35
 423 181 423 181 465.5 251.5 c 128,-1,36
 508 322 508 322 568 322 c 0,37,38
 606 322 606 322 629 293.5 c 128,-1,39
 652 265 652 265 652 218 c 0,40,41
 652 147 652 147 608.5 73.5 c 128,-1,42
 565 0 565 0 505 0 c 0,43,44
 465 0 465 0 444 31 c 128,-1,45
 423 62 423 62 423 108 c 0,34,35
478 101 m 0,46,47
 478 38 478 38 511 38 c 0,48,49
 545 38 545 38 572.5 101.5 c 128,-1,50
 600 165 600 165 600 226 c 0,51,52
 600 286 600 286 568 286 c 0,53,54
 528 286 528 286 503 222.5 c 128,-1,55
 478 159 478 159 478 101 c 0,46,47
711 108 m 0,56,57
 711 181 711 181 753.5 251.5 c 128,-1,58
 796 322 796 322 856 322 c 0,59,60
 894 322 894 322 917 293.5 c 128,-1,61
 940 265 940 265 940 218 c 0,62,63
 940 147 940 147 896.5 73.5 c 128,-1,64
 853 0 853 0 793 0 c 0,65,66
 753 0 753 0 732 31 c 128,-1,67
 711 62 711 62 711 108 c 0,56,57
766 101 m 0,68,69
 766 38 766 38 799 38 c 0,70,71
 833 38 833 38 860.5 101.5 c 128,-1,72
 888 165 888 165 888 226 c 0,73,74
 888 286 888 286 856 286 c 0,75,76
 816 286 816 286 791 222.5 c 128,-1,77
 766 159 766 159 766 101 c 0,68,69
EndSplineSet
EndChar

StartChar: guilsinglleft
Encoding: 8249 8249 218
Width: 285
GlyphClass: 2
Flags: W
LayerCount: 2
Fore
SplineSet
6 158 m 1,0,1
 55 179 55 179 109.5 225 c 128,-1,2
 164 271 164 271 196 316 c 1,3,4
 201 308 201 308 201 294 c 0,5,6
 201 235 201 235 32 147 c 1,7,-1
 74 117 l 2,8,9
 88 107 88 107 119.5 92 c 128,-1,10
 151 77 151 77 194 60 c 1,11,12
 180 44 180 44 165 44 c 0,13,14
 129 44 129 44 71.5 86 c 128,-1,15
 14 128 14 128 6 158 c 1,0,1
EndSplineSet
EndChar

StartChar: guilsinglright
Encoding: 8250 8250 219
Width: 304
GlyphClass: 2
Flags: W
LayerCount: 2
Fore
SplineSet
51 294 m 0,0,1
 51 308 51 308 56 316 c 1,2,3
 88 271 88 271 142.5 225 c 128,-1,4
 197 179 197 179 246 158 c 1,5,6
 238 128 238 128 180.5 86 c 128,-1,7
 123 44 123 44 87 44 c 0,8,9
 72 44 72 44 58 60 c 1,10,11
 102 77 102 77 132 92 c 128,-1,12
 162 107 162 107 177 117 c 2,13,-1
 220 147 l 1,14,15
 51 235 51 235 51 294 c 0,0,1
EndSplineSet
EndChar

StartChar: uni2074
Encoding: 8308 8308 220
Width: 268
GlyphClass: 2
Flags: W
LayerCount: 2
Fore
SplineSet
68 466 m 1,0,1
 68 481 68 481 78 491 c 0,2,3
 243 637 243 637 287 717 c 1,4,5
 300 715 300 715 300 703 c 0,6,7
 300 700 300 700 294.5 680.5 c 128,-1,8
 289 661 289 661 277.5 612.5 c 128,-1,9
 266 564 266 564 254 504 c 1,10,-1
 271 504 l 2,11,12
 282 504 282 504 307 509 c 1,13,14
 282 474 282 474 256 474 c 2,15,-1
 249 474 l 1,16,17
 228 369 228 369 228 314 c 1,18,19
 180 317 180 317 180 340 c 0,20,21
 180 359 180 359 205 474 c 1,22,23
 201 474 201 474 195 474.5 c 128,-1,24
 189 475 189 475 186 475 c 2,25,-1
 169 475 l 2,26,27
 108 475 108 475 68 466 c 1,0,1
123 505 m 1,28,29
 147 507 147 507 166 507 c 0,30,31
 171 507 171 507 180.5 506.5 c 128,-1,32
 190 506 190 506 194 506 c 2,33,-1
 213 506 l 1,34,-1
 218 529 l 1,35,36
 230 589 230 589 240 619 c 1,37,-1
 196 576 l 1,38,39
 132 515 132 515 123 505 c 1,28,29
EndSplineSet
EndChar

StartChar: Euro
Encoding: 8364 8364 221
Width: 686
GlyphClass: 2
Flags: W
LayerCount: 2
Fore
SplineSet
18 155 m 1,0,1
 21 216 21 216 128 223 c 1,2,3
 130 238 130 238 136 268 c 1,4,-1
 72 260 l 1,5,-1
 38 255 l 1,6,7
 41 315 41 315 150 324 c 1,8,9
 200 484 200 484 312 601.5 c 128,-1,10
 424 719 424 719 535 719 c 0,11,12
 627 719 627 719 627 633 c 0,13,14
 627 571 627 571 588.5 495.5 c 128,-1,15
 550 420 550 420 511 420 c 0,16,17
 491 420 491 420 480 443 c 1,18,19
 517 485 517 485 552 545 c 128,-1,20
 587 605 587 605 587 644 c 0,21,22
 587 689 587 689 538 689 c 0,23,24
 460 689 460 689 372 578 c 128,-1,25
 284 467 284 467 237 323 c 1,26,27
 266 321 266 321 323 315 c 128,-1,28
 380 309 380 309 405 308 c 1,29,30
 389 285 389 285 360.5 280 c 128,-1,31
 332 275 332 275 222 273 c 1,32,33
 219 260 219 260 212 224 c 1,34,35
 243 222 243 222 301.5 215.5 c 128,-1,36
 360 209 360 209 385 208 c 1,37,38
 369 185 369 185 340.5 180.5 c 128,-1,39
 312 176 312 176 205 174 c 1,40,41
 204 162 204 162 204 140 c 0,42,43
 204 58 204 58 239 2.5 c 128,-1,44
 274 -53 274 -53 345 -53 c 0,45,46
 422 -53 422 -53 499 10 c 128,-1,47
 576 73 576 73 617 162 c 1,48,-1
 631 152 l 1,49,50
 577 46 577 46 496.5 -20.5 c 128,-1,51
 416 -87 416 -87 321 -87 c 0,52,53
 222 -87 222 -87 173 -16 c 128,-1,54
 124 55 124 55 124 157 c 2,55,-1
 124 169 l 1,56,57
 99 167 99 167 52 160 c 2,58,-1
 18 155 l 1,0,1
EndSplineSet
EndChar
